font.ufo
<glyph name="exclam" format="1">
  <advance width="301"/>
  <unicode hex="0021"/>
  <outline>
    <contour>
      <point x="215" y="229" type="line"/>
      <point x="230" y="722" type="line"/>
      <point x="71" y="722" type="line"/>
      <point x="86" y="229" type="line"/>
    </contour>
    <contour>
      <point x="234" y="63" type="curve"/>
      <point x="234" y="112"/>
      <point x="198" y="136"/>
      <point x="149" y="136" type="curve"/>
      <point x="100" y="136"/>
      <point x="68" y="109"/>
      <point x="68" y="63" type="curve"/>
      <point x="234" y="63"/>
      <point x="68" y="63"/>
      <point x="234" y="63" type="curve"/>
      <point x="234" y="12"/>
      <point x="198" y="-10"/>
      <point x="149" y="-10" type="curve"/>
      <point x="99" y="-10"/>
      <point x="68" y="15"/>
      <point x="68" y="63" type="curve"/>
      <point x="234" y="63"/>
      <point x="68" y="63"/>
    </contour>
  </outline>
</glyph>
<glyph name="quotedbl" format="1">
  <advance width="489"/>
  <unicode hex="0022"/>
  <outline>
    <contour>
      <point x="206" y="618" type="line"/>
      <point x="216" y="845" type="line"/>
      <point x="56" y="845" type="line"/>
      <point x="66" y="618" type="line"/>
    </contour>
    <contour>
      <point x="423" y="618" type="line"/>
      <point x="432" y="845" type="line"/>
      <point x="273" y="845" type="line"/>
      <point x="283" y="618" type="line"/>
    </contour>
  </outline>
</glyph>
<glyph name="numbersign" format="1">
  <advance width="735"/>
  <unicode hex="0023"/>
  <outline>
    <contour>
      <point x="43" y="216" type="line"/>
      <point x="584" y="216" type="line"/>
      <point x="622" y="329" type="line"/>
      <point x="82" y="329" type="line"/>
    </contour>
    <contour>
      <point x="111" y="428" type="line"/>
      <point x="655" y="428" type="line"/>
      <point x="693" y="540" type="line"/>
      <point x="148" y="540" type="line"/>
    </contour>
    <contour>
      <point x="471" y="39" type="line"/>
      <point x="696" y="722" type="line"/>
      <point x="546" y="722" type="line"/>
      <point x="320" y="39" type="line"/>
    </contour>
    <contour>
      <point x="189" y="46" type="line"/>
      <point x="412" y="722" type="line"/>
      <point x="263" y="722" type="line"/>
      <point x="45" y="46" type="line"/>
    </contour>
  </outline>
</glyph>
<glyph name="dollar" format="1">
  <advance width="640"/>
  <unicode hex="0024"/>
  <outline>
    <contour>
      <point x="179" y="91" type="curve"/>
      <point x="179" y="211"/>
      <point x="179" y="107"/>
      <point x="179" y="227" type="curve"/>
      <point x="64" y="227"/>
      <point x="179" y="227"/>
      <point x="64" y="227" type="curve"/>
      <point x="64" y="107"/>
      <point x="64" y="211"/>
      <point x="64" y="91" type="curve"/>
      <point x="179" y="91"/>
      <point x="64" y="91"/>
    </contour>
    <contour>
      <point x="437" y="636" type="curve"/>
      <point x="437" y="516"/>
      <point x="437" y="620"/>
      <point x="437" y="500" type="curve"/>
      <point x="552" y="500"/>
      <point x="437" y="500"/>
      <point x="552" y="500" type="curve"/>
      <point x="552" y="620"/>
      <point x="552" y="516"/>
      <point x="552" y="636" type="curve"/>
      <point x="437" y="636"/>
      <point x="552" y="636"/>
    </contour>
    <contour>
      <point x="377" y="-40" type="curve"/>
      <point x="377" y="-10"/>
      <point x="377" y="68"/>
      <point x="377" y="98" type="curve"/>
      <point x="227" y="98"/>
      <point x="377" y="98"/>
      <point x="227" y="98" type="curve"/>
      <point x="227" y="68"/>
      <point x="227" y="-10"/>
      <point x="227" y="-40" type="curve"/>
      <point x="377" y="-40"/>
      <point x="227" y="-40"/>
    </contour>
    <contour>
      <point x="389" y="631" type="curve"/>
      <point x="389" y="661"/>
      <point x="389" y="744"/>
      <point x="389" y="773" type="curve"/>
      <point x="240" y="773"/>
      <point x="389" y="773"/>
      <point x="240" y="773" type="curve"/>
      <point x="240" y="744"/>
      <point x="240" y="661"/>
      <point x="240" y="631" type="curve"/>
      <point x="389" y="631"/>
      <point x="240" y="631"/>
    </contour>
    <contour>
      <point x="64" y="91" type="curve"/>
      <point x="129" y="64"/>
      <point x="207" y="41"/>
      <point x="294" y="41" type="curve"/>
      <point x="462" y="41"/>
      <point x="600" y="89"/>
      <point x="600" y="222" type="curve"/>
      <point x="600" y="335"/>
      <point x="484" y="378"/>
      <point x="361" y="424" type="curve"/>
      <point x="285" y="450"/>
      <point x="210" y="465"/>
      <point x="210" y="519" type="curve"/>
      <point x="210" y="562"/>
      <point x="259" y="577"/>
      <point x="316" y="577" type="curve"/>
      <point x="379" y="577"/>
      <point x="422" y="565"/>
      <point x="477" y="540" type="curve"/>
      <point x="552" y="636"/>
      <point x="477" y="540"/>
      <point x="552" y="636" type="curve"/>
      <point x="474" y="670"/>
      <point x="411" y="688"/>
      <point x="323" y="688" type="curve"/>
      <point x="176" y="688"/>
      <point x="61" y="638"/>
      <point x="61" y="519" type="curve"/>
      <point x="61" y="410"/>
      <point x="154" y="366"/>
      <point x="272" y="323" type="curve"/>
      <point x="355" y="294"/>
      <point x="451" y="279"/>
      <point x="451" y="217" type="curve"/>
      <point x="451" y="162"/>
      <point x="383" y="153"/>
      <point x="308" y="153" type="curve"/>
      <point x="246" y="153"/>
      <point x="191" y="173"/>
      <point x="145" y="192" type="curve"/>
      <point x="64" y="90"/>
      <point x="145" y="192"/>
    </contour>
  </outline>
</glyph>
<glyph name="ampersand" format="1">
  <advance width="765"/>
  <unicode hex="0026"/>
  <outline>
    <contour>
      <point x="741" y="66" type="line"/>
      <point x="639" y="158"/>
      <point x="513" y="280"/>
      <point x="407" y="378" type="curve"/>
      <point x="349" y="432"/>
      <point x="272" y="468"/>
      <point x="272" y="549" type="curve"/>
      <point x="272" y="587"/>
      <point x="293" y="615"/>
      <point x="332" y="615" type="curve"/>
      <point x="378" y="615"/>
      <point x="407" y="593"/>
      <point x="407" y="551" type="curve"/>
      <point x="407" y="478"/>
      <point x="347" y="453"/>
      <point x="279" y="420" type="curve"/>
      <point x="166" y="364"/>
      <point x="55" y="323"/>
      <point x="55" y="202" type="curve"/>
      <point x="55" y="62"/>
      <point x="176" y="-5"/>
      <point x="326" y="-5" type="curve"/>
      <point x="529" y="-5"/>
      <point x="655" y="119"/>
      <point x="728" y="311" type="curve"/>
      <point x="598" y="341"/>
      <point x="728" y="311"/>
      <point x="598" y="341" type="curve"/>
      <point x="547" y="205"/>
      <point x="474" y="107"/>
      <point x="333" y="107" type="curve"/>
      <point x="261" y="107"/>
      <point x="206" y="134"/>
      <point x="206" y="202" type="curve"/>
      <point x="206" y="276"/>
      <point x="272" y="296"/>
      <point x="341" y="331" type="curve"/>
      <point x="451" y="387"/>
      <point x="556" y="431"/>
      <point x="557" y="551" type="curve"/>
      <point x="557" y="668"/>
      <point x="462" y="727"/>
      <point x="339" y="727" type="curve"/>
      <point x="217" y="727"/>
      <point x="127" y="664"/>
      <point x="127" y="549" type="curve"/>
      <point x="127" y="439"/>
      <point x="221" y="384"/>
      <point x="303" y="311" type="curve"/>
      <point x="407" y="213"/>
      <point x="552" y="77"/>
      <point x="652" y="-16" type="curve"/>
    </contour>
  </outline>
</glyph>
<glyph name="quotesingle" format="1">
  <advance width="272"/>
  <unicode hex="0027"/>
  <outline>
    <contour>
      <point x="206" y="618" type="line"/>
      <point x="216" y="845" type="line"/>
      <point x="56" y="845" type="line"/>
      <point x="66" y="618" type="line"/>
    </contour>
  </outline>
</glyph>
<glyph name="parenleft" format="1">
  <advance width="418"/>
  <unicode hex="0028"/>
  <outline>
    <contour>
      <point x="414" y="-204" type="curve"/>
      <point x="256" y="-50"/>
      <point x="189" y="104"/>
      <point x="189" y="326" type="curve"/>
      <point x="189" y="549"/>
      <point x="256" y="702"/>
      <point x="413" y="860" type="curve"/>
      <point x="325" y="931"/>
      <point x="413" y="860"/>
      <point x="325" y="931" type="curve"/>
      <point x="139" y="753"/>
      <point x="42" y="586"/>
      <point x="42" y="326" type="curve"/>
      <point x="42" y="65"/>
      <point x="140" y="-102"/>
      <point x="326" y="-282" type="curve"/>
      <point x="414" y="-204"/>
      <point x="326" y="-282"/>
    </contour>
  </outline>
</glyph>
<glyph name="parenright" format="1">
  <advance width="422"/>
  <unicode hex="0029"/>
  <outline>
    <contour>
      <point x="83" y="-295" type="curve"/>
      <point x="273" y="-108"/>
      <point x="381" y="60"/>
      <point x="381" y="329" type="curve"/>
      <point x="381" y="592"/>
      <point x="280" y="758"/>
      <point x="87" y="934" type="curve"/>
      <point x="-1" y="856"/>
      <point x="87" y="934"/>
      <point x="-1" y="856" type="curve"/>
      <point x="161" y="700"/>
      <point x="234" y="549"/>
      <point x="234" y="324" type="curve"/>
      <point x="234" y="95"/>
      <point x="152" y="-58"/>
      <point x="-6" y="-224" type="curve"/>
      <point x="83" y="-295"/>
      <point x="-6" y="-224"/>
    </contour>
  </outline>
</glyph>
<glyph name="asterisk" format="1">
  <advance width="562"/>
  <unicode hex="002A"/>
  <outline>
    <contour>
      <point x="330" y="578" type="line"/>
      <point x="337" y="805" type="line"/>
      <point x="225" y="805" type="line"/>
      <point x="232" y="578" type="line"/>
    </contour>
    <contour>
      <point x="299" y="530" type="line"/>
      <point x="515" y="601" type="line"/>
      <point x="476" y="707" type="line"/>
      <point x="266" y="623" type="line"/>
    </contour>
    <contour>
      <point x="245" y="544" type="line"/>
      <point x="385" y="365" type="line"/>
      <point x="471" y="438" type="line"/>
      <point x="319" y="607" type="line"/>
    </contour>
    <contour>
      <point x="243" y="607" type="line"/>
      <point x="92" y="438" type="line"/>
      <point x="178" y="366" type="line"/>
      <point x="318" y="544" type="line"/>
    </contour>
    <contour>
      <point x="297" y="623" type="line"/>
      <point x="86" y="707" type="line"/>
      <point x="48" y="602" type="line"/>
      <point x="263" y="531" type="line"/>
    </contour>
  </outline>
</glyph>
<glyph name="plus" format="1">
  <advance width="671"/>
  <unicode hex="002B"/>
  <outline>
    <contour>
      <point x="42" y="253" type="curve"/>
      <point x="629" y="253" type="line"/>
      <point x="629" y="376"/>
      <point x="629" y="253"/>
      <point x="629" y="376" type="curve"/>
      <point x="42" y="376" type="line"/>
      <point x="42" y="253"/>
      <point x="42" y="376"/>
    </contour>
    <contour>
      <point x="408" y="37" type="curve"/>
      <point x="408" y="583" type="line"/>
      <point x="258" y="583"/>
      <point x="418" y="583"/>
      <point x="268" y="583" type="curve"/>
      <point x="268" y="37" type="line"/>
      <point x="418" y="37"/>
      <point x="258" y="37"/>
    </contour>
  </outline>
</glyph>
<glyph name="comma" format="1">
  <advance width="323"/>
  <unicode hex="002C"/>
  <outline>
    <contour>
      <point x="66" y="-121" type="line"/>
      <point x="175" y="-120"/>
      <point x="250" y="-48"/>
      <point x="250" y="59" type="curve"/>
      <point x="250" y="142"/>
      <point x="212" y="198"/>
      <point x="153" y="198" type="curve"/>
      <point x="106" y="198"/>
      <point x="71" y="172"/>
      <point x="71" y="125" type="curve"/>
      <point x="71" y="79"/>
      <point x="103" y="53"/>
      <point x="151" y="53" type="curve"/>
      <point x="150" y="14"/>
      <point x="138" y="-32"/>
      <point x="65" y="-42" type="curve"/>
    </contour>
  </outline>
</glyph>
<glyph name="hyphen" format="1">
  <advance width="445"/>
  <unicode hex="002D"/>
  <outline>
    <contour>
      <point x="70" y="222" type="curve"/>
      <point x="171" y="222"/>
      <point x="273" y="222"/>
      <point x="374" y="222" type="curve"/>
      <point x="374" y="346"/>
      <point x="374" y="222"/>
      <point x="374" y="346" type="curve"/>
      <point x="273" y="346"/>
      <point x="171" y="346"/>
      <point x="70" y="346" type="curve"/>
      <point x="70" y="222"/>
      <point x="70" y="346"/>
    </contour>
  </outline>
</glyph>
<glyph name="period" format="1">
  <advance width="295"/>
  <unicode hex="002E"/>
  <outline>
    <contour>
      <point x="231" y="63" type="curve"/>
      <point x="231" y="112"/>
      <point x="194" y="136"/>
      <point x="146" y="136" type="curve"/>
      <point x="97" y="136"/>
      <point x="63" y="109"/>
      <point x="63" y="63" type="curve"/>
      <point x="231" y="63"/>
      <point x="64" y="63"/>
      <point x="231" y="63" type="curve"/>
      <point x="231" y="12"/>
      <point x="195" y="-10"/>
      <point x="145" y="-10" type="curve"/>
      <point x="96" y="-10"/>
      <point x="63" y="15"/>
      <point x="63" y="63" type="curve"/>
      <point x="231" y="63"/>
      <point x="64" y="63"/>
    </contour>
  </outline>
</glyph>
<glyph name="slash" format="1">
  <advance width="646"/>
  <unicode hex="002F"/>
  <outline>
    <contour>
      <point x="177" y="-12" type="curve"/>
      <point x="324" y="253"/>
      <point x="472" y="516"/>
      <point x="620" y="780" type="curve"/>
      <point x="470" y="780"/>
      <point x="620" y="780"/>
      <point x="470" y="780" type="curve"/>
      <point x="322" y="516"/>
      <point x="174" y="253"/>
      <point x="26" y="-12" type="curve"/>
      <point x="177" y="-12"/>
      <point x="26" y="-12"/>
    </contour>
  </outline>
</glyph>
<glyph name="one" format="1">
  <advance width="506"/>
  <unicode hex="0031"/>
  <outline>
    <contour>
      <point x="296" y="0" type="curve"/>
      <point x="351" y="0"/>
      <point x="407" y="0"/>
      <point x="463" y="0" type="curve"/>
      <point x="463" y="112"/>
      <point x="463" y="0"/>
      <point x="463" y="112" type="curve"/>
      <point x="296" y="112"/>
      <point x="463" y="112"/>
      <point x="296" y="112" type="curve"/>
      <point x="296" y="0"/>
      <point x="296" y="112"/>
    </contour>
    <contour>
      <point x="296" y="112" type="curve"/>
      <point x="129" y="112"/>
      <point x="296" y="112"/>
      <point x="129" y="112" type="curve"/>
      <point x="129" y="0"/>
      <point x="129" y="112"/>
      <point x="129" y="0" type="curve"/>
      <point x="185" y="0"/>
      <point x="241" y="0"/>
      <point x="296" y="0" type="curve"/>
      <point x="296" y="112"/>
      <point x="296" y="0"/>
    </contour>
    <contour>
      <point x="92" y="470" type="curve"/>
      <point x="329" y="646"/>
      <point x="92" y="470"/>
      <point x="329" y="646" type="curve"/>
      <point x="220" y="722"/>
      <point x="329" y="646"/>
      <point x="220" y="722" type="curve"/>
      <point x="19" y="568"/>
      <point x="220" y="722"/>
      <point x="19" y="568" type="curve"/>
      <point x="92" y="470"/>
      <point x="19" y="568"/>
    </contour>
    <contour>
      <point x="369" y="0" type="curve"/>
      <point x="369" y="241"/>
      <point x="369" y="481"/>
      <point x="369" y="722" type="curve"/>
      <point x="220" y="722"/>
      <point x="369" y="722"/>
      <point x="220" y="722" type="curve"/>
      <point x="220" y="481"/>
      <point x="220" y="241"/>
      <point x="220" y="0" type="curve"/>
      <point x="369" y="0"/>
      <point x="220" y="0"/>
    </contour>
  </outline>
</glyph>
<glyph name="two" format="1">
  <advance width="678"/>
  <unicode hex="0032"/>
  <outline>
    <contour>
      <point x="618" y="112" type="curve"/>
      <point x="618" y="220"/>
      <point x="618" y="104"/>
      <point x="618" y="214" type="curve"/>
      <point x="502" y="214"/>
      <point x="618" y="214"/>
      <point x="502" y="214" type="curve"/>
      <point x="502" y="104"/>
      <point x="502" y="220"/>
      <point x="502" y="112" type="curve"/>
      <point x="618" y="112"/>
      <point x="502" y="112"/>
    </contour>
    <contour>
      <point x="51" y="0" type="curve"/>
      <point x="277" y="0"/>
      <point x="465" y="0"/>
      <point x="618" y="0" type="curve"/>
      <point x="618" y="112"/>
      <point x="618" y="0"/>
      <point x="618" y="112" type="curve"/>
      <point x="440" y="112"/>
      <point x="229" y="112"/>
      <point x="51" y="112" type="curve"/>
      <point x="51" y="0"/>
      <point x="51" y="112"/>
    </contour>
    <contour>
      <point x="154" y="511" type="curve"/>
      <point x="208" y="573"/>
      <point x="246" y="610"/>
      <point x="316" y="610" type="curve"/>
      <point x="388" y="610"/>
      <point x="434" y="575"/>
      <point x="434" y="502" type="curve"/>
      <point x="434" y="406"/>
      <point x="362" y="350"/>
      <point x="278" y="287" type="curve"/>
      <point x="203" y="228"/>
      <point x="129" y="172"/>
      <point x="51" y="112" type="curve"/>
      <point x="51" y="0"/>
      <point x="51" y="112"/>
      <point x="51" y="0" type="curve"/>
      <point x="209" y="61"/>
      <point x="289" y="134"/>
      <point x="373" y="200" type="curve"/>
      <point x="489" y="288"/>
      <point x="571" y="361"/>
      <point x="571" y="507" type="curve"/>
      <point x="571" y="656"/>
      <point x="474" y="727"/>
      <point x="322" y="727" type="curve"/>
      <point x="202" y="727"/>
      <point x="113" y="676"/>
      <point x="54" y="576" type="curve"/>
      <point x="154" y="511"/>
      <point x="54" y="576"/>
    </contour>
  </outline>
</glyph>
<glyph name="three" format="1">
  <advance width="607"/>
  <unicode hex="0033"/>
  <outline>
    <contour>
      <point x="43" y="56" type="curve"/>
      <point x="98" y="21"/>
      <point x="169" y="-5"/>
      <point x="256" y="-5" type="curve"/>
      <point x="428" y="-5"/>
      <point x="553" y="53"/>
      <point x="553" y="219" type="curve"/>
      <point x="553" y="358"/>
      <point x="395" y="415"/>
      <point x="175" y="415" type="curve"/>
      <point x="175" y="320"/>
      <point x="175" y="414"/>
      <point x="175" y="320" type="curve"/>
      <point x="295" y="320"/>
      <point x="409" y="291"/>
      <point x="409" y="214" type="curve"/>
      <point x="409" y="132"/>
      <point x="338" y="112"/>
      <point x="261" y="112" type="curve"/>
      <point x="218" y="112"/>
      <point x="165" y="124"/>
      <point x="114" y="149" type="curve"/>
      <point x="43" y="56"/>
      <point x="114" y="149"/>
    </contour>
    <contour>
      <point x="125" y="557" type="curve"/>
      <point x="153" y="583"/>
      <point x="204" y="610"/>
      <point x="253" y="610" type="curve"/>
      <point x="325" y="610"/>
      <point x="375" y="591"/>
      <point x="375" y="524" type="curve"/>
      <point x="375" y="455"/>
      <point x="280" y="429"/>
      <point x="175" y="429" type="curve"/>
      <point x="175" y="334"/>
      <point x="175" y="429"/>
      <point x="175" y="334" type="curve"/>
      <point x="365" y="334"/>
      <point x="518" y="389"/>
      <point x="518" y="529" type="curve"/>
      <point x="518" y="668"/>
      <point x="411" y="727"/>
      <point x="265" y="727" type="curve"/>
      <point x="170" y="727"/>
      <point x="84" y="687"/>
      <point x="44" y="638" type="curve"/>
      <point x="125" y="557"/>
      <point x="44" y="638"/>
    </contour>
  </outline>
</glyph>
<glyph name="four" format="1">
  <advance width="661"/>
  <unicode hex="0034"/>
  <outline>
    <contour>
      <point x="416" y="112" type="line"/>
      <point x="276" y="112" type="line"/>
      <point x="276" y="0" type="line"/>
      <point x="416" y="0" type="line"/>
    </contour>
    <contour>
      <point x="416" y="0" type="line"/>
      <point x="558" y="0" type="line"/>
      <point x="558" y="112" type="line"/>
      <point x="416" y="112" type="line"/>
    </contour>
    <contour>
      <point x="89" y="242" type="line"/>
      <point x="462" y="667" type="line"/>
      <point x="344" y="696" type="line"/>
      <point x="34" y="349" type="line"/>
    </contour>
    <contour>
      <point x="623" y="349" type="line"/>
      <point x="34" y="349" type="line"/>
      <point x="35" y="225" type="line"/>
      <point x="623" y="225" type="line"/>
    </contour>
    <contour>
      <point x="493" y="48" type="line"/>
      <point x="493" y="696" type="line"/>
      <point x="345" y="696" type="line"/>
      <point x="345" y="48" type="line"/>
    </contour>
  </outline>
</glyph>
<glyph name="five" format="1">
  <advance width="606"/>
  <unicode hex="0035"/>
  <outline>
    <contour>
      <point x="75" y="722" type="curve"/>
      <point x="75" y="627"/>
      <point x="75" y="516"/>
      <point x="75" y="375" type="curve"/>
      <point x="217" y="336"/>
      <point x="75" y="375"/>
      <point x="217" y="336" type="curve"/>
      <point x="217" y="423"/>
      <point x="217" y="524"/>
      <point x="217" y="610" type="curve"/>
      <point x="75" y="722"/>
      <point x="217" y="610"/>
    </contour>
    <contour>
      <point x="217" y="336" type="curve"/>
      <point x="234" y="354"/>
      <point x="266" y="365"/>
      <point x="290" y="365" type="curve"/>
      <point x="367" y="365"/>
      <point x="407" y="321"/>
      <point x="407" y="243" type="curve"/>
      <point x="407" y="163"/>
      <point x="346" y="112"/>
      <point x="265" y="112" type="curve"/>
      <point x="211" y="112"/>
      <point x="170" y="120"/>
      <point x="117" y="143" type="curve"/>
      <point x="48" y="43"/>
      <point x="117" y="143"/>
      <point x="48" y="43" type="curve"/>
      <point x="118" y="10"/>
      <point x="180" y="-5"/>
      <point x="258" y="-5" type="curve"/>
      <point x="424" y="-5"/>
      <point x="556" y="85"/>
      <point x="556" y="243" type="curve"/>
      <point x="556" y="392"/>
      <point x="456" y="484"/>
      <point x="303" y="484" type="curve"/>
      <point x="227" y="484"/>
      <point x="141" y="459"/>
      <point x="75" y="375" type="curve"/>
      <point x="217" y="336"/>
      <point x="75" y="375"/>
    </contour>
    <contour>
      <point x="522" y="722" type="curve"/>
      <point x="368" y="722"/>
      <point x="212" y="722"/>
      <point x="75" y="722" type="curve"/>
      <point x="217" y="610"/>
      <point x="75" y="722"/>
      <point x="217" y="610" type="curve"/>
      <point x="308" y="610"/>
      <point x="415" y="610"/>
      <point x="522" y="610" type="curve"/>
      <point x="522" y="722"/>
      <point x="522" y="610"/>
    </contour>
  </outline>
</glyph>
<glyph name="seven" format="1">
  <advance width="597"/>
  <unicode hex="0037"/>
  <outline>
    <contour>
      <point x="173" y="507" type="line"/>
      <point x="173" y="610" type="line"/>
      <point x="57" y="610" type="line"/>
      <point x="57" y="507" type="line"/>
    </contour>
    <contour>
      <point x="57" y="610" type="line"/>
      <point x="575" y="610" type="line"/>
      <point x="575" y="722" type="line"/>
      <point x="57" y="722" type="line"/>
    </contour>
    <contour>
      <point x="487" y="722" type="line"/>
      <point x="71" y="0" type="line"/>
      <point x="233" y="0" type="line"/>
      <point x="575" y="610" type="line"/>
    </contour>
  </outline>
</glyph>
<glyph name="colon" format="1">
  <advance width="310"/>
  <unicode hex="003A"/>
  <outline>
    <contour>
      <point x="239" y="370" type="curve"/>
      <point x="239" y="420"/>
      <point x="202" y="444"/>
      <point x="154" y="444" type="curve"/>
      <point x="105" y="444"/>
      <point x="71" y="417"/>
      <point x="71" y="370" type="curve"/>
      <point x="238" y="370"/>
      <point x="72" y="370"/>
      <point x="239" y="370" type="curve"/>
      <point x="239" y="320"/>
      <point x="203" y="298"/>
      <point x="153" y="298" type="curve"/>
      <point x="104" y="298"/>
      <point x="71" y="323"/>
      <point x="71" y="370" type="curve"/>
      <point x="238" y="370"/>
      <point x="72" y="370"/>
    </contour>
    <contour>
      <point x="238" y="64" type="curve"/>
      <point x="238" y="114"/>
      <point x="202" y="138"/>
      <point x="153" y="138" type="curve"/>
      <point x="104" y="138"/>
      <point x="70" y="111"/>
      <point x="70" y="64" type="curve"/>
      <point x="237" y="64"/>
      <point x="71" y="64"/>
      <point x="238" y="64" type="curve"/>
      <point x="238" y="14"/>
      <point x="202" y="-8"/>
      <point x="153" y="-8" type="curve"/>
      <point x="104" y="-8"/>
      <point x="70" y="17"/>
      <point x="70" y="64" type="curve"/>
      <point x="237" y="64"/>
      <point x="71" y="64"/>
    </contour>
  </outline>
</glyph>
<glyph name="semicolon" format="1">
  <advance width="327"/>
  <unicode hex="003B"/>
  <outline>
    <contour>
      <point x="72" y="-191" type="line"/>
      <point x="185" y="-190"/>
      <point x="262" y="-118"/>
      <point x="262" y="-10" type="curve"/>
      <point x="262" y="72"/>
      <point x="221" y="128"/>
      <point x="162" y="128" type="curve"/>
      <point x="113" y="128"/>
      <point x="77" y="103"/>
      <point x="77" y="55" type="curve"/>
      <point x="77" y="10"/>
      <point x="109" y="-17"/>
      <point x="159" y="-17" type="curve"/>
      <point x="158" y="-55"/>
      <point x="146" y="-101"/>
      <point x="71" y="-112" type="curve"/>
    </contour>
    <contour>
      <point x="242" y="376" type="curve"/>
      <point x="242" y="426"/>
      <point x="207" y="450"/>
      <point x="157" y="450" type="curve"/>
      <point x="108" y="450"/>
      <point x="76" y="423"/>
      <point x="76" y="376" type="curve"/>
      <point x="242" y="376"/>
      <point x="76" y="376"/>
      <point x="242" y="376" type="curve"/>
      <point x="242" y="326"/>
      <point x="207" y="304"/>
      <point x="157" y="304" type="curve"/>
      <point x="107" y="304"/>
      <point x="76" y="329"/>
      <point x="76" y="376" type="curve"/>
      <point x="242" y="376"/>
      <point x="76" y="376"/>
    </contour>
  </outline>
</glyph>
<glyph name="equal" format="1">
  <advance width="808"/>
  <unicode hex="003D"/>
  <outline>
    <contour>
      <point x="76" y="158" type="curve"/>
      <point x="294" y="158"/>
      <point x="513" y="158"/>
      <point x="731" y="158" type="curve"/>
      <point x="731" y="277"/>
      <point x="731" y="158"/>
      <point x="731" y="277" type="curve"/>
      <point x="513" y="277"/>
      <point x="294" y="277"/>
      <point x="76" y="277" type="curve"/>
      <point x="76" y="158"/>
      <point x="76" y="277"/>
    </contour>
    <contour>
      <point x="76" y="380" type="curve"/>
      <point x="294" y="380"/>
      <point x="513" y="380"/>
      <point x="731" y="380" type="curve"/>
      <point x="731" y="499"/>
      <point x="731" y="380"/>
      <point x="731" y="499" type="curve"/>
      <point x="513" y="499"/>
      <point x="294" y="499"/>
      <point x="76" y="499" type="curve"/>
      <point x="76" y="380"/>
      <point x="76" y="499"/>
    </contour>
  </outline>
</glyph>
<glyph name="greater" format="1">
  <advance width="751"/>
  <unicode hex="003E"/>
  <outline>
    <contour>
      <point x="77" y="-26" type="curve"/>
      <point x="288" y="64"/>
      <point x="500" y="154"/>
      <point x="712" y="244" type="curve"/>
      <point x="712" y="368"/>
      <point x="712" y="244"/>
      <point x="712" y="368" type="curve"/>
      <point x="500" y="278"/>
      <point x="288" y="188"/>
      <point x="77" y="98" type="curve"/>
      <point x="77" y="-26"/>
      <point x="77" y="98"/>
    </contour>
    <contour>
      <point x="67" y="508" type="curve"/>
      <point x="281" y="420"/>
      <point x="497" y="332"/>
      <point x="712" y="244" type="curve"/>
      <point x="712" y="368"/>
      <point x="712" y="244"/>
      <point x="712" y="368" type="curve"/>
      <point x="497" y="456"/>
      <point x="281" y="544"/>
      <point x="67" y="632" type="curve"/>
      <point x="67" y="508"/>
      <point x="67" y="632"/>
    </contour>
  </outline>
</glyph>
<glyph name="question" format="1">
  <advance width="584"/>
  <unicode hex="003F"/>
  <outline>
    <contour>
      <point x="193" y="381" type="curve"/>
      <point x="193" y="344"/>
      <point x="193" y="258"/>
      <point x="193" y="221" type="curve"/>
      <point x="337" y="221"/>
      <point x="193" y="221"/>
      <point x="337" y="221" type="curve"/>
      <point x="337" y="258"/>
      <point x="337" y="344"/>
      <point x="337" y="381" type="curve"/>
      <point x="193" y="381"/>
      <point x="337" y="381"/>
    </contour>
    <contour>
      <point x="111" y="570" type="line"/>
      <point x="148" y="608"/>
      <point x="198" y="636"/>
      <point x="260" y="636" type="curve"/>
      <point x="339" y="636"/>
      <point x="393" y="596"/>
      <point x="393" y="519" type="curve"/>
      <point x="393" y="429"/>
      <point x="316" y="381"/>
      <point x="209" y="381" type="curve"/>
      <point x="209" y="341"/>
      <point x="209" y="311"/>
      <point x="209" y="271" type="curve"/>
      <point x="398" y="271"/>
      <point x="536" y="358"/>
      <point x="536" y="519" type="curve"/>
      <point x="536" y="671"/>
      <point x="422" y="754"/>
      <point x="267" y="754" type="curve"/>
      <point x="172" y="754"/>
      <point x="97" y="723"/>
      <point x="35" y="659" type="curve"/>
    </contour>
    <contour>
      <point x="351" y="38" type="curve"/>
      <point x="351" y="88"/>
      <point x="314" y="111"/>
      <point x="266" y="111" type="curve"/>
      <point x="217" y="111"/>
      <point x="183" y="85"/>
      <point x="183" y="38" type="curve"/>
      <point x="351" y="38"/>
      <point x="183" y="38"/>
      <point x="351" y="38" type="curve"/>
      <point x="351" y="-12"/>
      <point x="315" y="-33"/>
      <point x="265" y="-33" type="curve"/>
      <point x="216" y="-33"/>
      <point x="183" y="-10"/>
      <point x="183" y="38" type="curve"/>
      <point x="351" y="38"/>
      <point x="183" y="38"/>
    </contour>
  </outline>
</glyph>
<glyph name="at" format="1">
  <advance width="935"/>
  <unicode hex="0040"/>
  <outline>
    <contour>
      <point x="624" y="0" type="curve"/>
      <point x="574" y="-20"/>
      <point x="537" y="-29"/>
      <point x="484" y="-29" type="curve"/>
      <point x="311" y="-29"/>
      <point x="189" y="49"/>
      <point x="189" y="215" type="curve"/>
      <point x="189" y="374"/>
      <point x="307" y="446"/>
      <point x="474" y="446" type="curve"/>
      <point x="634" y="446"/>
      <point x="745" y="368"/>
      <point x="745" y="214" type="curve"/>
      <point x="745" y="168"/>
      <point x="743" y="129"/>
      <point x="714" y="129" type="curve"/>
      <point x="683" y="129"/>
      <point x="676" y="168"/>
      <point x="676" y="219" type="curve"/>
      <point x="676" y="342"/>
      <point x="594" y="413"/>
      <point x="468" y="413" type="curve"/>
      <point x="329" y="413"/>
      <point x="246" y="346"/>
      <point x="246" y="215" type="curve"/>
      <point x="246" y="83"/>
      <point x="321" y="9"/>
      <point x="453" y="9" type="curve"/>
      <point x="569" y="9"/>
      <point x="632" y="80"/>
      <point x="654" y="198" type="curve"/>
      <point x="559" y="221"/>
      <point x="654" y="198"/>
      <point x="559" y="221" type="curve"/>
      <point x="543" y="164"/>
      <point x="527" y="122"/>
      <point x="472" y="122" type="curve"/>
      <point x="416" y="122"/>
      <point x="384" y="159"/>
      <point x="384" y="221" type="curve"/>
      <point x="384" y="271"/>
      <point x="409" y="300"/>
      <point x="457" y="300" type="curve"/>
      <point x="514" y="300"/>
      <point x="539" y="269"/>
      <point x="539" y="213" type="curve"/>
      <point x="539" y="99"/>
      <point x="593" y="22"/>
      <point x="702" y="22" type="curve"/>
      <point x="819" y="22"/>
      <point x="880" y="99"/>
      <point x="880" y="220" type="curve"/>
      <point x="880" y="448"/>
      <point x="718" y="563"/>
      <point x="480" y="563" type="curve"/>
      <point x="224" y="563"/>
      <point x="51" y="451"/>
      <point x="51" y="209" type="curve"/>
      <point x="51" y="-29"/>
      <point x="225" y="-141"/>
      <point x="477" y="-141" type="curve"/>
      <point x="559" y="-141"/>
      <point x="619" y="-125"/>
      <point x="678" y="-94" type="curve"/>
      <point x="624" y="0"/>
      <point x="678" y="-94"/>
    </contour>
  </outline>
</glyph>
<glyph name="B" format="1">
  <advance width="760"/>
  <unicode hex="0042"/>
  <outline>
    <contour>
      <point x="220" y="722" type="curve"/>
      <point x="170" y="722"/>
      <point x="120" y="722"/>
      <point x="70" y="722" type="curve"/>
      <point x="70" y="610"/>
      <point x="70" y="722"/>
      <point x="70" y="610" type="curve"/>
      <point x="220" y="610"/>
      <point x="70" y="610"/>
      <point x="220" y="610" type="curve"/>
      <point x="220" y="722"/>
      <point x="220" y="610"/>
    </contour>
    <contour>
      <point x="219" y="112" type="curve"/>
      <point x="69" y="112"/>
      <point x="219" y="112"/>
      <point x="69" y="112" type="curve"/>
      <point x="69" y="0"/>
      <point x="69" y="112"/>
      <point x="69" y="0" type="curve"/>
      <point x="119" y="0"/>
      <point x="170" y="0"/>
      <point x="219" y="0" type="curve"/>
      <point x="219" y="112"/>
      <point x="219" y="0"/>
    </contour>
    <contour>
      <point x="209" y="610" type="curve"/>
      <point x="282" y="610"/>
      <point x="347" y="610"/>
      <point x="420" y="610" type="curve"/>
      <point x="476" y="610"/>
      <point x="512" y="584"/>
      <point x="512" y="532" type="curve"/>
      <point x="512" y="481"/>
      <point x="466" y="460"/>
      <point x="410" y="460" type="curve"/>
      <point x="341" y="460"/>
      <point x="279" y="460"/>
      <point x="209" y="460" type="curve"/>
      <point x="209" y="380"/>
      <point x="209" y="428"/>
      <point x="209" y="347" type="curve"/>
      <point x="256" y="347"/>
      <point x="299" y="347"/>
      <point x="347" y="347" type="curve"/>
      <point x="474" y="347"/>
      <point x="661" y="383"/>
      <point x="661" y="530" type="curve"/>
      <point x="661" y="660"/>
      <point x="565" y="722"/>
      <point x="425" y="722" type="curve"/>
      <point x="350" y="722"/>
      <point x="283" y="722"/>
      <point x="209" y="722" type="curve"/>
      <point x="209" y="641"/>
      <point x="209" y="691"/>
    </contour>
    <contour>
      <point x="299" y="0" type="curve"/>
      <point x="299" y="241"/>
      <point x="299" y="481"/>
      <point x="299" y="722" type="curve"/>
      <point x="143" y="722"/>
      <point x="299" y="722"/>
      <point x="143" y="722" type="curve"/>
      <point x="143" y="481"/>
      <point x="143" y="241"/>
      <point x="143" y="0" type="curve"/>
      <point x="299" y="0"/>
      <point x="143" y="0"/>
    </contour>
    <contour>
      <point x="209" y="347" type="curve"/>
      <point x="279" y="347"/>
      <point x="341" y="347"/>
      <point x="410" y="347" type="curve"/>
      <point x="500" y="347"/>
      <point x="561" y="310"/>
      <point x="561" y="227" type="curve"/>
      <point x="561" y="148"/>
      <point x="506" y="112"/>
      <point x="421" y="112" type="curve"/>
      <point x="347" y="112"/>
      <point x="282" y="112"/>
      <point x="209" y="112" type="curve"/>
      <point x="209" y="32"/>
      <point x="209" y="81"/>
      <point x="209" y="0" type="curve"/>
      <point x="284" y="0"/>
      <point x="350" y="0"/>
      <point x="426" y="0" type="curve"/>
      <point x="595" y="0"/>
      <point x="711" y="69"/>
      <point x="711" y="225" type="curve"/>
      <point x="711" y="406"/>
      <point x="510" y="460"/>
      <point x="347" y="460" type="curve"/>
      <point x="299" y="460"/>
      <point x="256" y="460"/>
      <point x="209" y="460" type="curve"/>
      <point x="209" y="380"/>
      <point x="209" y="428"/>
    </contour>
  </outline>
</glyph>
<glyph name="E" format="1">
  <advance width="709"/>
  <unicode hex="0045"/>
  <outline>
    <contour>
      <point x="366" y="781" type="move" name="top"/>
    </contour>
    <contour>
      <point x="613" y="9" type="move" name="bottom"/>
    </contour>
    <contour>
      <point x="667" y="56" type="curve"/>
      <point x="667" y="176"/>
      <point x="667" y="56"/>
      <point x="667" y="176" type="curve"/>
      <point x="552" y="176"/>
      <point x="667" y="176"/>
      <point x="552" y="176" type="curve"/>
      <point x="552" y="56"/>
      <point x="552" y="176"/>
      <point x="552" y="56" type="curve"/>
      <point x="667" y="56"/>
      <point x="552" y="56"/>
    </contour>
    <contour>
      <point x="516" y="666" type="curve"/>
      <point x="516" y="546"/>
      <point x="516" y="666"/>
      <point x="516" y="546" type="curve"/>
      <point x="632" y="546"/>
      <point x="516" y="546"/>
      <point x="632" y="546" type="curve"/>
      <point x="632" y="666"/>
      <point x="632" y="546"/>
      <point x="632" y="666" type="curve"/>
      <point x="516" y="666"/>
      <point x="632" y="666"/>
    </contour>
    <contour>
      <point x="222" y="112" type="curve"/>
      <point x="70" y="112"/>
      <point x="222" y="112"/>
      <point x="70" y="112" type="curve"/>
      <point x="70" y="0"/>
      <point x="70" y="112"/>
      <point x="70" y="0" type="curve"/>
      <point x="121" y="0"/>
      <point x="171" y="0"/>
      <point x="222" y="0" type="curve"/>
      <point x="222" y="112"/>
      <point x="222" y="0"/>
    </contour>
    <contour>
      <point x="222" y="722" type="curve"/>
      <point x="171" y="722"/>
      <point x="121" y="722"/>
      <point x="70" y="722" type="curve"/>
      <point x="70" y="610"/>
      <point x="70" y="722"/>
      <point x="70" y="610" type="curve"/>
      <point x="222" y="610"/>
      <point x="70" y="610"/>
      <point x="222" y="610" type="curve"/>
      <point x="222" y="722"/>
      <point x="222" y="610"/>
    </contour>
    <contour>
      <point x="225" y="316" type="curve"/>
      <point x="339" y="316"/>
      <point x="453" y="316"/>
      <point x="567" y="316" type="curve"/>
      <point x="567" y="429"/>
      <point x="567" y="316"/>
      <point x="567" y="429" type="curve"/>
      <point x="453" y="429"/>
      <point x="339" y="429"/>
      <point x="225" y="429" type="curve"/>
      <point x="225" y="316"/>
      <point x="225" y="429"/>
    </contour>
    <contour>
      <point x="209" y="610" type="curve"/>
      <point x="350" y="610"/>
      <point x="491" y="610"/>
      <point x="632" y="610" type="curve"/>
      <point x="632" y="722"/>
      <point x="632" y="610"/>
      <point x="632" y="722" type="curve"/>
      <point x="491" y="722"/>
      <point x="350" y="722"/>
      <point x="209" y="722" type="curve"/>
      <point x="209" y="610"/>
      <point x="209" y="722"/>
    </contour>
    <contour>
      <point x="296" y="0" type="curve"/>
      <point x="296" y="722" type="line"/>
      <point x="146" y="722"/>
      <point x="296" y="722"/>
      <point x="146" y="722" type="curve"/>
      <point x="146" y="481"/>
      <point x="146" y="241"/>
      <point x="146" y="0" type="curve"/>
      <point x="296" y="0"/>
      <point x="146" y="0"/>
    </contour>
    <contour>
      <point x="209" y="0" type="curve"/>
      <point x="362" y="0"/>
      <point x="514" y="0"/>
      <point x="667" y="0" type="curve"/>
      <point x="667" y="112"/>
      <point x="667" y="0"/>
      <point x="667" y="112" type="curve"/>
      <point x="514" y="112"/>
      <point x="362" y="112"/>
      <point x="209" y="112" type="curve"/>
      <point x="209" y="0"/>
      <point x="209" y="112"/>
    </contour>
  </outline>
</glyph>
<glyph name="F" format="1">
  <advance width="664"/>
  <unicode hex="0046"/>
  <outline>
    <contour>
      <point x="220" y="0" type="curve"/>
      <point x="271" y="0"/>
      <point x="220" y="0"/>
      <point x="372" y="0" type="curve"/>
      <point x="372" y="112"/>
      <point x="372" y="0"/>
      <point x="372" y="112" type="curve"/>
      <point x="220" y="112"/>
      <point x="372" y="112"/>
      <point x="220" y="112" type="curve"/>
      <point x="220" y="0"/>
      <point x="220" y="112"/>
    </contour>
    <contour>
      <point x="220" y="722" type="curve"/>
      <point x="170" y="722"/>
      <point x="120" y="722"/>
      <point x="69" y="722" type="curve"/>
      <point x="69" y="610"/>
      <point x="69" y="722"/>
      <point x="69" y="610" type="curve"/>
      <point x="220" y="610"/>
      <point x="69" y="610"/>
      <point x="220" y="610" type="curve"/>
      <point x="220" y="722"/>
      <point x="220" y="610"/>
    </contour>
    <contour>
      <point x="220" y="112" type="curve"/>
      <point x="69" y="112"/>
      <point x="220" y="112"/>
      <point x="69" y="112" type="curve"/>
      <point x="69" y="0"/>
      <point x="69" y="112"/>
      <point x="69" y="0" type="curve"/>
      <point x="120" y="0"/>
      <point x="170" y="0"/>
      <point x="220" y="0" type="curve"/>
      <point x="220" y="112"/>
      <point x="220" y="0"/>
    </contour>
    <contour>
      <point x="521" y="666" type="curve"/>
      <point x="521" y="546"/>
      <point x="521" y="666"/>
      <point x="521" y="546" type="curve"/>
      <point x="636" y="546"/>
      <point x="521" y="546"/>
      <point x="636" y="546" type="curve"/>
      <point x="636" y="666"/>
      <point x="636" y="546"/>
      <point x="636" y="666" type="curve"/>
      <point x="521" y="666"/>
      <point x="636" y="666"/>
    </contour>
    <contour>
      <point x="225" y="316" type="curve"/>
      <point x="337" y="316"/>
      <point x="448" y="316"/>
      <point x="560" y="316" type="curve"/>
      <point x="560" y="429"/>
      <point x="560" y="316"/>
      <point x="560" y="429" type="curve"/>
      <point x="448" y="429"/>
      <point x="337" y="429"/>
      <point x="225" y="429" type="curve"/>
      <point x="225" y="316"/>
      <point x="225" y="429"/>
    </contour>
    <contour>
      <point x="296" y="0" type="curve"/>
      <point x="296" y="722" type="line"/>
      <point x="146" y="722"/>
      <point x="296" y="722"/>
      <point x="146" y="722" type="curve"/>
      <point x="146" y="481"/>
      <point x="146" y="241"/>
      <point x="146" y="0" type="curve"/>
      <point x="296" y="0"/>
      <point x="146" y="0"/>
    </contour>
    <contour>
      <point x="209" y="610" type="curve"/>
      <point x="351" y="610"/>
      <point x="494" y="610"/>
      <point x="636" y="610" type="curve"/>
      <point x="636" y="722"/>
      <point x="636" y="610"/>
      <point x="636" y="722" type="curve"/>
      <point x="494" y="722"/>
      <point x="351" y="722"/>
      <point x="209" y="722" type="curve"/>
      <point x="209" y="610"/>
      <point x="209" y="722"/>
    </contour>
  </outline>
</glyph>
<glyph name="G" format="1">
  <advance width="862"/>
  <unicode hex="0047"/>
  <outline>
    <contour>
      <point x="457" y="781" type="move" name="top"/>
    </contour>
    <contour>
      <point x="514" y="7" type="move" name="bottom"/>
    </contour>
    <contour>
      <point x="662" y="646" type="curve"/>
      <point x="662" y="516"/>
      <point x="662" y="624"/>
      <point x="662" y="496" type="curve"/>
      <point x="777" y="496"/>
      <point x="662" y="496"/>
      <point x="777" y="496" type="curve"/>
      <point x="777" y="624"/>
      <point x="777" y="516"/>
      <point x="777" y="646" type="curve"/>
      <point x="662" y="646"/>
      <point x="777" y="646"/>
    </contour>
    <contour>
      <point x="756" y="371" type="curve"/>
      <point x="679" y="371"/>
      <point x="603" y="371"/>
      <point x="526" y="371" type="curve"/>
      <point x="526" y="259"/>
      <point x="526" y="371"/>
      <point x="526" y="259" type="curve"/>
      <point x="603" y="259"/>
      <point x="679" y="259"/>
      <point x="756" y="259" type="curve"/>
      <point x="756" y="371"/>
      <point x="756" y="259"/>
    </contour>
    <contour>
      <point x="795" y="79" type="curve"/>
      <point x="795" y="177"/>
      <point x="795" y="273"/>
      <point x="795" y="371" type="curve"/>
      <point x="660" y="371"/>
      <point x="795" y="371"/>
      <point x="660" y="371" type="curve"/>
      <point x="660" y="273"/>
      <point x="660" y="177"/>
      <point x="660" y="79" type="curve"/>
      <point x="795" y="79"/>
      <point x="660" y="79"/>
    </contour>
    <contour>
      <point x="777" y="646" type="curve"/>
      <point x="673" y="703"/>
      <point x="579" y="727"/>
      <point x="459" y="727" type="curve"/>
      <point x="212" y="727"/>
      <point x="53" y="602"/>
      <point x="53" y="359" type="curve"/>
      <point x="53" y="115"/>
      <point x="218" y="-5"/>
      <point x="470" y="-5" type="curve"/>
      <point x="599" y="-5"/>
      <point x="681" y="23"/>
      <point x="795" y="79" type="curve"/>
      <point x="721" y="163"/>
      <point x="795" y="79"/>
      <point x="721" y="163" type="curve"/>
      <point x="634" y="121"/>
      <point x="566" y="112"/>
      <point x="470" y="112" type="curve"/>
      <point x="301" y="112"/>
      <point x="204" y="203"/>
      <point x="204" y="371" type="curve"/>
      <point x="204" y="527"/>
      <point x="300" y="610"/>
      <point x="459" y="610" type="curve"/>
      <point x="550" y="610"/>
      <point x="622" y="594"/>
      <point x="703" y="550" type="curve"/>
      <point x="777" y="646"/>
      <point x="703" y="550"/>
    </contour>
  </outline>
</glyph>
<glyph name="I" format="1">
  <advance width="390"/>
  <unicode hex="0049"/>
  <outline>
    <contour>
      <point x="195" y="781" type="move" name="top"/>
    </contour>
    <contour>
      <point x="265" y="2" type="move" name="bottom"/>
    </contour>
    <contour>
      <point x="196" y="722" type="curve"/>
      <point x="140" y="722"/>
      <point x="100" y="722"/>
      <point x="44" y="722" type="curve"/>
      <point x="44" y="610"/>
      <point x="44" y="722"/>
      <point x="44" y="610" type="curve"/>
      <point x="212" y="610"/>
      <point x="28" y="610"/>
      <point x="196" y="610" type="curve"/>
      <point x="196" y="722"/>
      <point x="196" y="610"/>
    </contour>
    <contour>
      <point x="196" y="610" type="curve"/>
      <point x="362" y="610"/>
      <point x="180" y="610"/>
      <point x="347" y="610" type="curve"/>
      <point x="347" y="722"/>
      <point x="347" y="610"/>
      <point x="347" y="722" type="curve"/>
      <point x="291" y="722"/>
      <point x="251" y="722"/>
      <point x="196" y="722" type="curve"/>
      <point x="196" y="610"/>
      <point x="196" y="722"/>
    </contour>
    <contour>
      <point x="196" y="0" type="curve"/>
      <point x="251" y="0"/>
      <point x="291" y="0"/>
      <point x="347" y="0" type="curve"/>
      <point x="347" y="112"/>
      <point x="347" y="0"/>
      <point x="347" y="112" type="curve"/>
      <point x="180" y="112"/>
      <point x="362" y="112"/>
      <point x="196" y="112" type="curve"/>
      <point x="196" y="0"/>
      <point x="196" y="112"/>
    </contour>
    <contour>
      <point x="196" y="112" type="curve"/>
      <point x="28" y="112"/>
      <point x="212" y="112"/>
      <point x="44" y="112" type="curve"/>
      <point x="44" y="0"/>
      <point x="44" y="112"/>
      <point x="44" y="0" type="curve"/>
      <point x="100" y="0"/>
      <point x="140" y="0"/>
      <point x="196" y="0" type="curve"/>
      <point x="196" y="112"/>
      <point x="196" y="0"/>
    </contour>
    <contour>
      <point x="269" y="0" type="curve"/>
      <point x="269" y="241"/>
      <point x="269" y="481"/>
      <point x="269" y="722" type="curve"/>
      <point x="119" y="722"/>
      <point x="269" y="722"/>
      <point x="119" y="722" type="curve"/>
      <point x="119" y="481"/>
      <point x="119" y="241"/>
      <point x="119" y="0" type="curve"/>
      <point x="269" y="0"/>
      <point x="119" y="0"/>
    </contour>
  </outline>
</glyph>
<glyph name="J" format="1">
  <advance width="502"/>
  <unicode hex="004A"/>
  <outline>
    <contour>
      <point x="328" y="722" type="curve"/>
      <point x="273" y="722"/>
      <point x="234" y="722"/>
      <point x="178" y="722" type="curve"/>
      <point x="178" y="610"/>
      <point x="178" y="722"/>
      <point x="178" y="610" type="curve"/>
      <point x="344" y="610"/>
      <point x="163" y="610"/>
      <point x="328" y="610" type="curve"/>
      <point x="328" y="722"/>
      <point x="328" y="610"/>
    </contour>
    <contour>
      <point x="328" y="610" type="curve"/>
      <point x="493" y="610"/>
      <point x="312" y="610"/>
      <point x="477" y="610" type="curve"/>
      <point x="477" y="722"/>
      <point x="477" y="610"/>
      <point x="477" y="722" type="curve"/>
      <point x="423" y="722"/>
      <point x="383" y="722"/>
      <point x="328" y="722" type="curve"/>
      <point x="328" y="610"/>
      <point x="328" y="722"/>
    </contour>
    <contour>
      <point x="-4" y="45" type="curve"/>
      <point x="32" y="22"/>
      <point x="83" y="-5"/>
      <point x="147" y="-5" type="curve"/>
      <point x="309" y="-5"/>
      <point x="402" y="78"/>
      <point x="402" y="246" type="curve"/>
      <point x="402" y="404"/>
      <point x="402" y="565"/>
      <point x="402" y="722" type="curve"/>
      <point x="253" y="722"/>
      <point x="402" y="722"/>
      <point x="252" y="722" type="curve"/>
      <point x="252" y="565"/>
      <point x="252" y="404"/>
      <point x="252" y="246" type="curve"/>
      <point x="252" y="165"/>
      <point x="223" y="108"/>
      <point x="147" y="108" type="curve"/>
      <point x="113" y="108"/>
      <point x="92" y="120"/>
      <point x="65" y="134" type="curve"/>
      <point x="-4" y="45"/>
      <point x="65" y="134"/>
    </contour>
  </outline>
</glyph>
<glyph name="K" format="1">
  <advance width="790"/>
  <unicode hex="004B"/>
  <outline>
    <contour>
      <point x="439" y="2" type="move" name="bottom"/>
    </contour>
    <contour>
      <point x="622" y="722" type="curve"/>
      <point x="565" y="722"/>
      <point x="453" y="722"/>
      <point x="396" y="722" type="curve"/>
      <point x="396" y="610"/>
      <point x="396" y="722"/>
      <point x="396" y="610" type="curve"/>
      <point x="566" y="610"/>
      <point x="450" y="610"/>
      <point x="622" y="610" type="curve"/>
      <point x="622" y="722"/>
      <point x="622" y="610"/>
    </contour>
    <contour>
      <point x="625" y="0" type="curve"/>
      <point x="690" y="0"/>
      <point x="697" y="0"/>
      <point x="761" y="0" type="curve"/>
      <point x="761" y="112"/>
      <point x="761" y="0"/>
      <point x="761" y="112" type="curve"/>
      <point x="567" y="112"/>
      <point x="819" y="112"/>
      <point x="625" y="112" type="curve"/>
      <point x="625" y="0"/>
      <point x="625" y="112"/>
    </contour>
    <contour>
      <point x="608" y="610" type="curve"/>
      <point x="770" y="610"/>
      <point x="562" y="610"/>
      <point x="724" y="610" type="curve"/>
      <point x="724" y="722"/>
      <point x="724" y="610"/>
      <point x="724" y="722" type="curve"/>
      <point x="670" y="722"/>
      <point x="662" y="722"/>
      <point x="608" y="722" type="curve"/>
      <point x="608" y="610"/>
      <point x="608" y="722"/>
    </contour>
    <contour>
      <point x="192" y="722" type="curve"/>
      <point x="137" y="722"/>
      <point x="98" y="722"/>
      <point x="43" y="722" type="curve"/>
      <point x="43" y="610"/>
      <point x="43" y="722"/>
      <point x="43" y="610" type="curve"/>
      <point x="208" y="610"/>
      <point x="27" y="610"/>
      <point x="192" y="610" type="curve"/>
      <point x="192" y="722"/>
      <point x="192" y="610"/>
    </contour>
    <contour>
      <point x="192" y="610" type="curve"/>
      <point x="347" y="610"/>
      <point x="166" y="610"/>
      <point x="321" y="610" type="curve"/>
      <point x="321" y="722"/>
      <point x="321" y="610"/>
      <point x="321" y="722" type="curve"/>
      <point x="269" y="722"/>
      <point x="244" y="722"/>
      <point x="192" y="722" type="curve"/>
      <point x="192" y="610"/>
      <point x="192" y="722"/>
    </contour>
    <contour>
      <point x="192" y="0" type="curve"/>
      <point x="250" y="0"/>
      <point x="159" y="0"/>
      <point x="333" y="0" type="curve"/>
      <point x="333" y="112"/>
      <point x="333" y="0"/>
      <point x="333" y="112" type="curve"/>
      <point x="159" y="112"/>
      <point x="365" y="112"/>
      <point x="192" y="112" type="curve"/>
      <point x="192" y="0"/>
      <point x="192" y="112"/>
    </contour>
    <contour>
      <point x="192" y="112" type="curve"/>
      <point x="27" y="112"/>
      <point x="208" y="112"/>
      <point x="43" y="112" type="curve"/>
      <point x="43" y="0"/>
      <point x="43" y="112"/>
      <point x="43" y="0" type="curve"/>
      <point x="98" y="0"/>
      <point x="137" y="0"/>
      <point x="192" y="0" type="curve"/>
      <point x="192" y="112"/>
      <point x="192" y="0"/>
    </contour>
    <contour>
      <point x="571" y="722" type="curve"/>
      <point x="231" y="380" type="line"/>
      <point x="409" y="380"/>
      <point x="228" y="380"/>
      <point x="406" y="380" type="curve"/>
      <point x="694" y="667" type="line"/>
      <point x="523" y="667"/>
      <point x="741" y="722"/>
    </contour>
    <contour>
      <point x="267" y="0" type="curve"/>
      <point x="267" y="722" type="line"/>
      <point x="117" y="722"/>
      <point x="267" y="722"/>
      <point x="117" y="722" type="curve"/>
      <point x="117" y="481"/>
      <point x="117" y="241"/>
      <point x="117" y="0" type="curve"/>
      <point x="267" y="0"/>
      <point x="117" y="0"/>
    </contour>
    <contour>
      <point x="729" y="52" type="curve"/>
      <point x="406" y="380" type="line"/>
      <point x="228" y="380"/>
      <point x="409" y="380"/>
      <point x="231" y="380" type="curve"/>
      <point x="593" y="0" type="line"/>
      <point x="775" y="0"/>
      <point x="547" y="52"/>
    </contour>
  </outline>
</glyph>
<glyph name="L" format="1">
  <advance width="652"/>
  <unicode hex="004C"/>
  <outline>
    <contour>
      <point x="195" y="781" type="move" name="top"/>
    </contour>
    <contour>
      <point x="388" y="5" type="move" name="bottom"/>
    </contour>
    <contour>
      <point x="634" y="56" type="curve"/>
      <point x="634" y="176"/>
      <point x="634" y="56"/>
      <point x="634" y="176" type="curve"/>
      <point x="518" y="176"/>
      <point x="634" y="176"/>
      <point x="518" y="176" type="curve"/>
      <point x="518" y="56"/>
      <point x="518" y="176"/>
      <point x="518" y="56" type="curve"/>
      <point x="634" y="56"/>
      <point x="518" y="56"/>
    </contour>
    <contour>
      <point x="195" y="112" type="curve"/>
      <point x="27" y="112"/>
      <point x="210" y="112"/>
      <point x="43" y="112" type="curve"/>
      <point x="43" y="0"/>
      <point x="43" y="112"/>
      <point x="43" y="0" type="curve"/>
      <point x="98" y="0"/>
      <point x="138" y="0"/>
      <point x="195" y="0" type="curve"/>
      <point x="195" y="112"/>
      <point x="195" y="0"/>
    </contour>
    <contour>
      <point x="195" y="722" type="curve"/>
      <point x="138" y="722"/>
      <point x="98" y="722"/>
      <point x="43" y="722" type="curve"/>
      <point x="43" y="610"/>
      <point x="43" y="722"/>
      <point x="43" y="610" type="curve"/>
      <point x="210" y="610"/>
      <point x="27" y="610"/>
      <point x="195" y="610" type="curve"/>
      <point x="195" y="722"/>
      <point x="195" y="610"/>
    </contour>
    <contour>
      <point x="195" y="610" type="curve"/>
      <point x="361" y="610"/>
      <point x="179" y="610"/>
      <point x="346" y="610" type="curve"/>
      <point x="346" y="722"/>
      <point x="346" y="610"/>
      <point x="346" y="722" type="curve"/>
      <point x="290" y="722"/>
      <point x="250" y="722"/>
      <point x="195" y="722" type="curve"/>
      <point x="195" y="610"/>
      <point x="195" y="722"/>
    </contour>
    <contour>
      <point x="270" y="0" type="curve"/>
      <point x="270" y="241"/>
      <point x="270" y="481"/>
      <point x="270" y="722" type="curve"/>
      <point x="120" y="722"/>
      <point x="270" y="722"/>
      <point x="120" y="722" type="curve"/>
      <point x="120" y="481"/>
      <point x="120" y="241"/>
      <point x="120" y="0" type="curve"/>
      <point x="270" y="0"/>
      <point x="120" y="0"/>
    </contour>
    <contour>
      <point x="195" y="0" type="curve"/>
      <point x="341" y="0"/>
      <point x="487" y="0"/>
      <point x="634" y="0" type="curve"/>
      <point x="634" y="112"/>
      <point x="634" y="0"/>
      <point x="634" y="112" type="curve"/>
      <point x="487" y="112"/>
      <point x="341" y="112"/>
      <point x="195" y="112" type="curve"/>
      <point x="195" y="0"/>
      <point x="195" y="112"/>
    </contour>
  </outline>
</glyph>
<glyph name="M" format="1">
  <advance width="1039"/>
  <unicode hex="004D"/>
  <outline>
    <contour>
      <point x="874" y="0" type="curve"/>
      <point x="928" y="0"/>
      <point x="966" y="0"/>
      <point x="1020" y="0" type="curve"/>
      <point x="1020" y="112"/>
      <point x="1020" y="0"/>
      <point x="1020" y="112" type="curve"/>
      <point x="858" y="112"/>
      <point x="1036" y="112"/>
      <point x="874" y="112" type="curve"/>
      <point x="874" y="0"/>
      <point x="874" y="112"/>
    </contour>
    <contour>
      <point x="874" y="112" type="curve"/>
      <point x="716" y="112"/>
      <point x="889" y="112"/>
      <point x="732" y="112" type="curve"/>
      <point x="732" y="0"/>
      <point x="732" y="112"/>
      <point x="732" y="0" type="curve"/>
      <point x="784" y="0"/>
      <point x="821" y="0"/>
      <point x="874" y="0" type="curve"/>
      <point x="874" y="112"/>
      <point x="874" y="0"/>
    </contour>
    <contour>
      <point x="168" y="112" type="curve"/>
      <point x="5" y="112"/>
      <point x="184" y="112"/>
      <point x="21" y="112" type="curve"/>
      <point x="21" y="0"/>
      <point x="21" y="112"/>
      <point x="21" y="0" type="curve"/>
      <point x="75" y="0"/>
      <point x="114" y="0"/>
      <point x="168" y="0" type="curve"/>
      <point x="168" y="112"/>
      <point x="168" y="0"/>
    </contour>
    <contour>
      <point x="223" y="722" type="curve"/>
      <point x="169" y="722"/>
      <point x="131" y="722"/>
      <point x="77" y="722" type="curve"/>
      <point x="76" y="610"/>
      <point x="77" y="722"/>
      <point x="76" y="610" type="curve"/>
      <point x="239" y="610"/>
      <point x="60" y="610"/>
      <point x="223" y="610" type="curve"/>
      <point x="223" y="722"/>
      <point x="223" y="610"/>
    </contour>
    <contour>
      <point x="816" y="610" type="curve"/>
      <point x="978" y="610"/>
      <point x="800" y="610"/>
      <point x="962" y="610" type="curve"/>
      <point x="962" y="722"/>
      <point x="962" y="610"/>
      <point x="962" y="722" type="curve"/>
      <point x="908" y="722"/>
      <point x="870" y="722"/>
      <point x="816" y="722" type="curve"/>
      <point x="816" y="610"/>
      <point x="816" y="722"/>
    </contour>
    <contour>
      <point x="168" y="0" type="curve"/>
      <point x="220" y="0"/>
      <point x="152" y="0"/>
      <point x="310" y="0" type="curve"/>
      <point x="310" y="112"/>
      <point x="310" y="0"/>
      <point x="310" y="112" type="curve"/>
      <point x="152" y="112"/>
      <point x="326" y="112"/>
      <point x="168" y="112" type="curve"/>
      <point x="168" y="0"/>
      <point x="168" y="112"/>
    </contour>
    <contour>
      <point x="958" y="0" type="curve"/>
      <point x="936" y="241"/>
      <point x="909" y="481"/>
      <point x="887" y="722" type="curve"/>
      <point x="751" y="722"/>
      <point x="887" y="722"/>
      <point x="751" y="722" type="curve"/>
      <point x="772" y="482"/>
      <point x="786" y="240"/>
      <point x="807" y="0" type="curve"/>
      <point x="958" y="0"/>
      <point x="807" y="0"/>
    </contour>
    <contour>
      <point x="231" y="0" type="curve"/>
      <point x="251" y="241"/>
      <point x="270" y="481"/>
      <point x="290" y="722" type="curve"/>
      <point x="152" y="722"/>
      <point x="290" y="722"/>
      <point x="152" y="722" type="curve"/>
      <point x="131" y="481"/>
      <point x="111" y="241"/>
      <point x="90" y="0" type="curve"/>
      <point x="231" y="0"/>
      <point x="90" y="0"/>
    </contour>
    <contour>
      <point x="586" y="0" type="curve"/>
      <point x="488" y="241"/>
      <point x="390" y="481"/>
      <point x="293" y="722" type="curve"/>
      <point x="154" y="722"/>
      <point x="293" y="722"/>
      <point x="154" y="722" type="curve"/>
      <point x="251" y="481"/>
      <point x="348" y="241"/>
      <point x="446" y="0" type="curve"/>
      <point x="586" y="0"/>
      <point x="446" y="0"/>
    </contour>
    <contour>
      <point x="595" y="0" type="curve"/>
      <point x="691" y="241"/>
      <point x="786" y="481"/>
      <point x="882" y="722" type="curve"/>
      <point x="743" y="722"/>
      <point x="882" y="722"/>
      <point x="743" y="722" type="curve"/>
      <point x="647" y="481"/>
      <point x="550" y="241"/>
      <point x="454" y="0" type="curve"/>
      <point x="595" y="0"/>
      <point x="454" y="0"/>
    </contour>
  </outline>
</glyph>
<glyph name="P" format="1">
  <advance width="708"/>
  <unicode hex="0050"/>
  <outline>
    <contour>
      <point x="221" y="722" type="curve"/>
      <point x="171" y="722"/>
      <point x="120" y="722"/>
      <point x="69" y="722" type="curve"/>
      <point x="69" y="610"/>
      <point x="69" y="722"/>
      <point x="69" y="610" type="curve"/>
      <point x="221" y="610"/>
      <point x="69" y="610"/>
      <point x="221" y="610" type="curve"/>
      <point x="221" y="722"/>
      <point x="221" y="610"/>
    </contour>
    <contour>
      <point x="221" y="112" type="curve"/>
      <point x="69" y="112"/>
      <point x="221" y="112"/>
      <point x="69" y="112" type="curve"/>
      <point x="69" y="0"/>
      <point x="69" y="112"/>
      <point x="69" y="0" type="curve"/>
      <point x="120" y="0"/>
      <point x="171" y="0"/>
      <point x="221" y="0" type="curve"/>
      <point x="221" y="112"/>
      <point x="221" y="0"/>
    </contour>
    <contour>
      <point x="221" y="0" type="curve"/>
      <point x="272" y="0"/>
      <point x="221" y="0"/>
      <point x="373" y="0" type="curve"/>
      <point x="373" y="112"/>
      <point x="373" y="0"/>
      <point x="373" y="112" type="curve"/>
      <point x="221" y="112"/>
      <point x="373" y="112"/>
      <point x="221" y="112" type="curve"/>
      <point x="221" y="0"/>
      <point x="221" y="112"/>
    </contour>
    <contour>
      <point x="200" y="293" type="curve"/>
      <point x="261" y="265"/>
      <point x="337" y="248"/>
      <point x="408" y="248" type="curve"/>
      <point x="566" y="250"/>
      <point x="673" y="322"/>
      <point x="673" y="479" type="curve"/>
      <point x="673" y="641"/>
      <point x="541" y="722"/>
      <point x="366" y="722" type="curve"/>
      <point x="319" y="722"/>
      <point x="272" y="722"/>
      <point x="224" y="722" type="curve"/>
      <point x="224" y="610"/>
      <point x="224" y="722"/>
      <point x="224" y="610" type="curve"/>
      <point x="265" y="610"/>
      <point x="305" y="610"/>
      <point x="346" y="610" type="curve"/>
      <point x="447" y="610"/>
      <point x="524" y="571"/>
      <point x="524" y="483" type="curve"/>
      <point x="524" y="399"/>
      <point x="469" y="357"/>
      <point x="390" y="357" type="curve"/>
      <point x="336" y="357"/>
      <point x="297" y="369"/>
      <point x="247" y="390" type="curve"/>
      <point x="200" y="295"/>
      <point x="247" y="390"/>
    </contour>
    <contour>
      <point x="295" y="0" type="curve"/>
      <point x="295" y="241"/>
      <point x="295" y="481"/>
      <point x="295" y="722" type="curve"/>
      <point x="146" y="722"/>
      <point x="295" y="722"/>
      <point x="146" y="722" type="curve"/>
      <point x="146" y="481"/>
      <point x="146" y="241"/>
      <point x="146" y="0" type="curve"/>
      <point x="295" y="0"/>
      <point x="146" y="0"/>
    </contour>
  </outline>
</glyph>
<glyph name="Q" format="1">
  <advance width="849"/>
  <unicode hex="0051"/>
  <outline>
    <contour>
      <point x="369" y="28" type="curve"/>
      <point x="492" y="-158"/>
      <point x="630" y="-211"/>
      <point x="840" y="-211" type="curve"/>
      <point x="840" y="-94"/>
      <point x="840" y="-211"/>
      <point x="840" y="-94" type="curve"/>
      <point x="688" y="-94"/>
      <point x="590" y="-53"/>
      <point x="497" y="84" type="curve"/>
      <point x="369" y="28"/>
      <point x="497" y="84"/>
    </contour>
    <contour>
      <point x="202" y="360" type="curve"/>
      <point x="202" y="507"/>
      <point x="281" y="605"/>
      <point x="422" y="605" type="curve"/>
      <point x="567" y="605"/>
      <point x="647" y="510"/>
      <point x="647" y="360" type="curve"/>
      <point x="647" y="212"/>
      <point x="571" y="112"/>
      <point x="430" y="112" type="curve"/>
      <point x="283" y="112"/>
      <point x="202" y="209"/>
      <point x="202" y="360" type="curve"/>
      <point x="52" y="360"/>
      <point x="202" y="360"/>
      <point x="52" y="360" type="curve"/>
      <point x="52" y="133"/>
      <point x="198" y="-5"/>
      <point x="422" y="-5" type="curve"/>
      <point x="651" y="-5"/>
      <point x="796" y="136"/>
      <point x="796" y="366" type="curve"/>
      <point x="796" y="593"/>
      <point x="656" y="732"/>
      <point x="431" y="732" type="curve"/>
      <point x="202" y="732"/>
      <point x="52" y="591"/>
      <point x="52" y="360" type="curve"/>
      <point x="202" y="360"/>
      <point x="52" y="360"/>
    </contour>
  </outline>
</glyph>
<glyph name="R" format="1">
  <advance width="803"/>
  <unicode hex="0052"/>
  <outline>
    <contour>
      <point x="370" y="781" type="move" name="top"/>
    </contour>
    <contour>
      <point x="476" y="0" type="move" name="bottom"/>
    </contour>
    <contour>
      <point x="652" y="0" type="curve"/>
      <point x="696" y="0"/>
      <point x="742" y="0"/>
      <point x="788" y="0" type="curve"/>
      <point x="788" y="112"/>
      <point x="788" y="0"/>
      <point x="788" y="112" type="curve"/>
      <point x="651" y="112"/>
      <point x="788" y="112"/>
      <point x="652" y="112" type="curve"/>
      <point x="652" y="0"/>
      <point x="652" y="112"/>
    </contour>
    <contour>
      <point x="219" y="722" type="curve"/>
      <point x="169" y="722"/>
      <point x="118" y="722"/>
      <point x="69" y="722" type="curve"/>
      <point x="69" y="610"/>
      <point x="69" y="722"/>
      <point x="69" y="610" type="curve"/>
      <point x="219" y="610"/>
      <point x="69" y="610"/>
      <point x="219" y="610" type="curve"/>
      <point x="219" y="722"/>
      <point x="219" y="610"/>
    </contour>
    <contour>
      <point x="219" y="112" type="curve"/>
      <point x="69" y="112"/>
      <point x="219" y="112"/>
      <point x="69" y="112" type="curve"/>
      <point x="69" y="0"/>
      <point x="69" y="112"/>
      <point x="69" y="0" type="curve"/>
      <point x="118" y="0"/>
      <point x="169" y="0"/>
      <point x="219" y="0" type="curve"/>
      <point x="219" y="112"/>
      <point x="219" y="0"/>
    </contour>
    <contour>
      <point x="219" y="0" type="curve"/>
      <point x="269" y="0"/>
      <point x="219" y="0"/>
      <point x="368" y="0" type="curve"/>
      <point x="368" y="112"/>
      <point x="368" y="0"/>
      <point x="368" y="112" type="curve"/>
      <point x="219" y="112"/>
      <point x="368" y="112"/>
      <point x="219" y="112" type="curve"/>
      <point x="219" y="0"/>
      <point x="219" y="112"/>
    </contour>
    <contour>
      <point x="350" y="354" type="curve"/>
      <point x="437" y="237"/>
      <point x="528" y="117"/>
      <point x="616" y="0" type="curve"/>
      <point x="770" y="0"/>
      <point x="616" y="19"/>
      <point x="770" y="19" type="curve"/>
      <point x="688" y="129"/>
      <point x="604" y="243"/>
      <point x="521" y="354" type="curve"/>
      <point x="350" y="354"/>
      <point x="521" y="354"/>
    </contour>
    <contour>
      <point x="295" y="0" type="curve"/>
      <point x="295" y="241"/>
      <point x="295" y="481"/>
      <point x="295" y="722" type="curve"/>
      <point x="146" y="722"/>
      <point x="295" y="722"/>
      <point x="146" y="722" type="curve"/>
      <point x="146" y="481"/>
      <point x="146" y="241"/>
      <point x="146" y="0" type="curve"/>
      <point x="295" y="0"/>
      <point x="146" y="0"/>
    </contour>
    <contour>
      <point x="222" y="296" type="curve"/>
      <point x="282" y="296"/>
      <point x="341" y="296"/>
      <point x="401" y="296" type="curve"/>
      <point x="570" y="296"/>
      <point x="690" y="359"/>
      <point x="690" y="518" type="curve"/>
      <point x="690" y="665"/>
      <point x="577" y="722"/>
      <point x="419" y="722" type="curve"/>
      <point x="354" y="722"/>
      <point x="288" y="722"/>
      <point x="222" y="722" type="curve"/>
      <point x="222" y="610"/>
      <point x="222" y="722"/>
      <point x="222" y="610" type="curve"/>
      <point x="279" y="610"/>
      <point x="335" y="610"/>
      <point x="392" y="610" type="curve"/>
      <point x="478" y="610"/>
      <point x="541" y="585"/>
      <point x="541" y="508" type="curve"/>
      <point x="541" y="436"/>
      <point x="488" y="409"/>
      <point x="409" y="409" type="curve"/>
      <point x="347" y="409"/>
      <point x="284" y="409"/>
      <point x="222" y="409" type="curve"/>
      <point x="222" y="296"/>
      <point x="222" y="409"/>
    </contour>
  </outline>
</glyph>
<glyph name="S" format="1">
  <advance width="683"/>
  <unicode hex="0053"/>
  <outline>
    <contour>
      <point x="343" y="781" type="move" name="top"/>
    </contour>
    <contour>
      <point x="378" y="8" type="move" name="bottom"/>
    </contour>
    <contour>
      <point x="465" y="661" type="curve"/>
      <point x="465" y="541"/>
      <point x="465" y="634"/>
      <point x="465" y="514" type="curve"/>
      <point x="581" y="514"/>
      <point x="465" y="514"/>
      <point x="581" y="514" type="curve"/>
      <point x="581" y="634"/>
      <point x="581" y="541"/>
      <point x="581" y="661" type="curve"/>
      <point x="465" y="661"/>
      <point x="581" y="661"/>
    </contour>
    <contour>
      <point x="189" y="52" type="curve"/>
      <point x="189" y="172"/>
      <point x="189" y="91"/>
      <point x="189" y="211" type="curve"/>
      <point x="74" y="211"/>
      <point x="189" y="211"/>
      <point x="74" y="211" type="curve"/>
      <point x="74" y="91"/>
      <point x="74" y="172"/>
      <point x="74" y="52" type="curve"/>
      <point x="189" y="52"/>
      <point x="74" y="52"/>
    </contour>
    <contour>
      <point x="75" y="52" type="curve"/>
      <point x="159" y="9"/>
      <point x="230" y="-5"/>
      <point x="325" y="-5" type="curve"/>
      <point x="492" y="-5"/>
      <point x="633" y="46"/>
      <point x="633" y="194" type="curve"/>
      <point x="633" y="322"/>
      <point x="525" y="369"/>
      <point x="402" y="419" type="curve"/>
      <point x="316" y="454"/>
      <point x="222" y="487"/>
      <point x="222" y="541" type="curve"/>
      <point x="221" y="593"/>
      <point x="274" y="616"/>
      <point x="339" y="616" type="curve"/>
      <point x="405" y="616"/>
      <point x="456" y="594"/>
      <point x="512" y="569" type="curve"/>
      <point x="582" y="660"/>
      <point x="511" y="570"/>
      <point x="581" y="661" type="curve"/>
      <point x="501" y="701"/>
      <point x="435" y="722"/>
      <point x="344" y="722" type="curve"/>
      <point x="193" y="722"/>
      <point x="73" y="666"/>
      <point x="73" y="534" type="curve"/>
      <point x="73" y="409"/>
      <point x="180" y="364"/>
      <point x="301" y="315" type="curve"/>
      <point x="388" y="280"/>
      <point x="482" y="248"/>
      <point x="482" y="192" type="curve"/>
      <point x="482" y="141"/>
      <point x="412" y="112"/>
      <point x="331" y="112" type="curve"/>
      <point x="264" y="112"/>
      <point x="216" y="131"/>
      <point x="156" y="160" type="curve"/>
      <point x="74" y="54"/>
      <point x="156" y="159"/>
    </contour>
  </outline>
</glyph>
<glyph name="T" format="1">
  <advance width="694"/>
  <unicode hex="0054"/>
  <outline>
    <contour>
      <point x="345" y="781" type="move" name="top"/>
    </contour>
    <contour>
      <point x="398" y="3" type="move" name="bottom"/>
    </contour>
    <contour>
      <point x="25" y="665" type="curve"/>
      <point x="25" y="545"/>
      <point x="25" y="665"/>
      <point x="25" y="545" type="curve"/>
      <point x="139" y="545"/>
      <point x="25" y="545"/>
      <point x="139" y="545" type="curve"/>
      <point x="139" y="665"/>
      <point x="139" y="545"/>
      <point x="139" y="665" type="curve"/>
      <point x="25" y="665"/>
      <point x="139" y="665"/>
    </contour>
    <contour>
      <point x="554" y="665" type="curve"/>
      <point x="554" y="545"/>
      <point x="554" y="665"/>
      <point x="554" y="545" type="curve"/>
      <point x="670" y="545"/>
      <point x="554" y="545"/>
      <point x="670" y="545" type="curve"/>
      <point x="670" y="665"/>
      <point x="670" y="545"/>
      <point x="670" y="665" type="curve"/>
      <point x="554" y="665"/>
      <point x="670" y="665"/>
    </contour>
    <contour>
      <point x="346" y="0" type="curve"/>
      <point x="397" y="0"/>
      <point x="446" y="0"/>
      <point x="497" y="0" type="curve"/>
      <point x="497" y="112"/>
      <point x="497" y="0"/>
      <point x="497" y="112" type="curve"/>
      <point x="345" y="112"/>
      <point x="497" y="112"/>
      <point x="346" y="112" type="curve"/>
      <point x="346" y="0"/>
      <point x="346" y="112"/>
    </contour>
    <contour>
      <point x="346" y="112" type="curve"/>
      <point x="195" y="112"/>
      <point x="346" y="112"/>
      <point x="195" y="112" type="curve"/>
      <point x="195" y="0"/>
      <point x="195" y="112"/>
      <point x="195" y="0" type="curve"/>
      <point x="245" y="0"/>
      <point x="296" y="0"/>
      <point x="346" y="0" type="curve"/>
      <point x="346" y="112"/>
      <point x="346" y="0"/>
    </contour>
    <contour>
      <point x="422" y="0" type="curve"/>
      <point x="422" y="237"/>
      <point x="422" y="473"/>
      <point x="422" y="710" type="curve"/>
      <point x="273" y="710"/>
      <point x="422" y="710"/>
      <point x="273" y="710" type="curve"/>
      <point x="272" y="473"/>
      <point x="273" y="237"/>
      <point x="273" y="0" type="curve"/>
      <point x="422" y="0"/>
      <point x="273" y="0"/>
    </contour>
    <contour>
      <point x="25" y="603" type="curve"/>
      <point x="239" y="603"/>
      <point x="455" y="603"/>
      <point x="670" y="603" type="curve"/>
      <point x="670" y="727"/>
      <point x="670" y="598"/>
      <point x="670" y="722" type="curve"/>
      <point x="455" y="722"/>
      <point x="239" y="722"/>
      <point x="25" y="722" type="curve"/>
      <point x="25" y="598"/>
      <point x="25" y="727"/>
    </contour>
  </outline>
</glyph>
<glyph name="V" format="1">
  <advance width="826"/>
  <unicode hex="0056"/>
  <outline>
    <contour>
      <point x="674" y="722" type="curve"/>
      <point x="620" y="722"/>
      <point x="567" y="722"/>
      <point x="513" y="722" type="curve"/>
      <point x="513" y="610"/>
      <point x="513" y="722"/>
      <point x="513" y="610" type="curve"/>
      <point x="674" y="610"/>
      <point x="513" y="610"/>
      <point x="674" y="610" type="curve"/>
      <point x="674" y="722"/>
      <point x="674" y="610"/>
    </contour>
    <contour>
      <point x="135" y="722" type="curve"/>
      <point x="92" y="722"/>
      <point x="48" y="722"/>
      <point x="4" y="722" type="curve"/>
      <point x="4" y="610"/>
      <point x="4" y="722"/>
      <point x="4" y="610" type="curve"/>
      <point x="135" y="610"/>
      <point x="3" y="610"/>
      <point x="135" y="610" type="curve"/>
      <point x="135" y="722"/>
      <point x="135" y="610"/>
    </contour>
    <contour>
      <point x="689" y="610" type="curve"/>
      <point x="820" y="610"/>
      <point x="689" y="610"/>
      <point x="820" y="610" type="curve"/>
      <point x="820" y="722"/>
      <point x="820" y="610"/>
      <point x="820" y="722" type="curve"/>
      <point x="777" y="722"/>
      <point x="733" y="722"/>
      <point x="689" y="722" type="curve"/>
      <point x="689" y="610"/>
      <point x="689" y="722"/>
    </contour>
    <contour>
      <point x="150" y="610" type="curve"/>
      <point x="310" y="610"/>
      <point x="150" y="610"/>
      <point x="310" y="610" type="curve"/>
      <point x="310" y="722"/>
      <point x="310" y="610"/>
      <point x="310" y="722" type="curve"/>
      <point x="257" y="722"/>
      <point x="203" y="722"/>
      <point x="150" y="722" type="curve"/>
      <point x="150" y="610"/>
      <point x="150" y="722"/>
    </contour>
    <contour>
      <point x="631" y="722" type="curve"/>
      <point x="536" y="481"/>
      <point x="442" y="241"/>
      <point x="349" y="0" type="curve"/>
      <point x="501" y="0"/>
      <point x="341" y="0"/>
      <point x="494" y="0" type="curve"/>
      <point x="590" y="241"/>
      <point x="686" y="481"/>
      <point x="783" y="722" type="curve"/>
      <point x="631" y="722"/>
      <point x="783" y="722"/>
    </contour>
    <contour>
      <point x="41" y="722" type="curve"/>
      <point x="139" y="481"/>
      <point x="237" y="241"/>
      <point x="335" y="0" type="curve"/>
      <point x="488" y="0"/>
      <point x="329" y="0"/>
      <point x="482" y="0" type="curve"/>
      <point x="386" y="241"/>
      <point x="291" y="481"/>
      <point x="195" y="722" type="curve"/>
      <point x="41" y="722"/>
      <point x="195" y="722"/>
    </contour>
  </outline>
</glyph>
<glyph name="W" format="1">
  <advance width="1049"/>
  <unicode hex="0057"/>
  <outline>
    <contour>
      <point x="159" y="610" type="curve"/>
      <point x="291" y="610"/>
      <point x="158" y="610"/>
      <point x="291" y="610" type="curve"/>
      <point x="291" y="722"/>
      <point x="291" y="610"/>
      <point x="291" y="722" type="curve"/>
      <point x="247" y="722"/>
      <point x="203" y="722"/>
      <point x="159" y="722" type="curve"/>
      <point x="159" y="610"/>
      <point x="159" y="722"/>
    </contour>
    <contour>
      <point x="155" y="722" type="curve"/>
      <point x="107" y="722"/>
      <point x="60" y="722"/>
      <point x="13" y="722" type="curve"/>
      <point x="13" y="610"/>
      <point x="13" y="722"/>
      <point x="13" y="610" type="curve"/>
      <point x="155" y="610"/>
      <point x="13" y="610"/>
      <point x="155" y="610" type="curve"/>
      <point x="155" y="722"/>
      <point x="155" y="610"/>
    </contour>
    <contour>
      <point x="897" y="722" type="curve"/>
      <point x="853" y="722"/>
      <point x="809" y="722"/>
      <point x="766" y="722" type="curve"/>
      <point x="766" y="610"/>
      <point x="766" y="722"/>
      <point x="766" y="610" type="curve"/>
      <point x="897" y="610"/>
      <point x="766" y="610"/>
      <point x="897" y="610" type="curve"/>
      <point x="897" y="722"/>
      <point x="897" y="610"/>
    </contour>
    <contour>
      <point x="899" y="610" type="curve"/>
      <point x="1041" y="610"/>
      <point x="899" y="610"/>
      <point x="1041" y="610" type="curve"/>
      <point x="1041" y="722"/>
      <point x="1041" y="610"/>
      <point x="1041" y="722" type="curve"/>
      <point x="995" y="722"/>
      <point x="947" y="722"/>
      <point x="899" y="722" type="curve"/>
      <point x="899" y="610"/>
      <point x="899" y="722"/>
    </contour>
    <contour>
      <point x="390" y="0" type="curve"/>
      <point x="460" y="241"/>
      <point x="527" y="481"/>
      <point x="596" y="722" type="curve"/>
      <point x="457" y="722"/>
      <point x="599" y="722"/>
      <point x="460" y="722" type="curve"/>
      <point x="396" y="481"/>
      <point x="333" y="242"/>
      <point x="268" y="0" type="curve"/>
      <point x="402" y="0"/>
      <point x="256" y="0"/>
    </contour>
    <contour>
      <point x="472" y="722" type="curve"/>
      <point x="535" y="481"/>
      <point x="593" y="241"/>
      <point x="655" y="0" type="curve"/>
      <point x="790" y="0"/>
      <point x="641" y="0"/>
      <point x="776" y="0" type="curve"/>
      <point x="719" y="243"/>
      <point x="665" y="480"/>
      <point x="606" y="722" type="curve"/>
      <point x="468" y="722"/>
      <point x="611" y="722"/>
    </contour>
    <contour>
      <point x="60" y="722" type="curve"/>
      <point x="123" y="481"/>
      <point x="187" y="241"/>
      <point x="249" y="0" type="curve"/>
      <point x="384" y="0"/>
      <point x="244" y="0"/>
      <point x="379" y="0" type="curve"/>
      <point x="318" y="241"/>
      <point x="262" y="481"/>
      <point x="201" y="722" type="curve"/>
      <point x="60" y="722"/>
      <point x="201" y="722"/>
    </contour>
    <contour>
      <point x="853" y="722" type="curve"/>
      <point x="791" y="481"/>
      <point x="731" y="241"/>
      <point x="670" y="0" type="curve"/>
      <point x="804" y="0"/>
      <point x="662" y="0"/>
      <point x="797" y="0" type="curve"/>
      <point x="862" y="241"/>
      <point x="928" y="481"/>
      <point x="994" y="722" type="curve"/>
      <point x="853" y="722"/>
      <point x="994" y="722"/>
    </contour>
  </outline>
</glyph>
<glyph name="X" format="1">
  <advance width="771"/>
  <unicode hex="0058"/>
  <outline>
    <contour>
      <point x="173" y="0" type="curve"/>
      <point x="227" y="0"/>
      <point x="173" y="0"/>
      <point x="336" y="0" type="curve"/>
      <point x="336" y="112"/>
      <point x="336" y="0"/>
      <point x="336" y="112" type="curve"/>
      <point x="173" y="112"/>
      <point x="336" y="112"/>
      <point x="173" y="112" type="curve"/>
      <point x="173" y="0"/>
      <point x="173" y="112"/>
    </contour>
    <contour>
      <point x="165" y="112" type="curve"/>
      <point x="18" y="112"/>
      <point x="165" y="112"/>
      <point x="18" y="112" type="curve"/>
      <point x="17" y="0"/>
      <point x="18" y="112"/>
      <point x="17" y="0" type="curve"/>
      <point x="66" y="0"/>
      <point x="116" y="0"/>
      <point x="165" y="0" type="curve"/>
      <point x="165" y="112"/>
      <point x="165" y="0"/>
    </contour>
    <contour>
      <point x="603" y="0" type="curve"/>
      <point x="652" y="0"/>
      <point x="702" y="0"/>
      <point x="750" y="0" type="curve"/>
      <point x="750" y="112"/>
      <point x="750" y="0"/>
      <point x="750" y="112" type="curve"/>
      <point x="603" y="112"/>
      <point x="750" y="112"/>
      <point x="603" y="112" type="curve"/>
      <point x="603" y="0"/>
      <point x="603" y="112"/>
    </contour>
    <contour>
      <point x="594" y="112" type="curve"/>
      <point x="431" y="112"/>
      <point x="594" y="112"/>
      <point x="432" y="112" type="curve"/>
      <point x="432" y="0"/>
      <point x="432" y="112"/>
      <point x="432" y="0" type="curve"/>
      <point x="485" y="0"/>
      <point x="540" y="0"/>
      <point x="594" y="0" type="curve"/>
      <point x="594" y="112"/>
      <point x="594" y="0"/>
    </contour>
    <contour>
      <point x="577" y="610" type="curve"/>
      <point x="725" y="610"/>
      <point x="577" y="610"/>
      <point x="725" y="610" type="curve"/>
      <point x="725" y="722"/>
      <point x="725" y="610"/>
      <point x="725" y="722" type="curve"/>
      <point x="676" y="722"/>
      <point x="626" y="722"/>
      <point x="577" y="722" type="curve"/>
      <point x="577" y="610"/>
      <point x="577" y="722"/>
    </contour>
    <contour>
      <point x="585" y="722" type="curve"/>
      <point x="529" y="722"/>
      <point x="473" y="722"/>
      <point x="417" y="722" type="curve"/>
      <point x="417" y="610"/>
      <point x="417" y="722"/>
      <point x="417" y="610" type="curve"/>
      <point x="585" y="610"/>
      <point x="417" y="610"/>
      <point x="585" y="610" type="curve"/>
      <point x="585" y="722"/>
      <point x="585" y="610"/>
    </contour>
    <contour>
      <point x="198" y="722" type="curve"/>
      <point x="150" y="722"/>
      <point x="101" y="722"/>
      <point x="52" y="722" type="curve"/>
      <point x="52" y="610"/>
      <point x="52" y="722"/>
      <point x="52" y="610" type="curve"/>
      <point x="199" y="610"/>
      <point x="51" y="610"/>
      <point x="198" y="610" type="curve"/>
      <point x="198" y="722"/>
      <point x="198" y="610"/>
    </contour>
    <contour>
      <point x="192" y="610" type="curve"/>
      <point x="358" y="610"/>
      <point x="192" y="610"/>
      <point x="358" y="610" type="curve"/>
      <point x="358" y="722"/>
      <point x="358" y="610"/>
      <point x="358" y="722" type="curve"/>
      <point x="303" y="722"/>
      <point x="247" y="722"/>
      <point x="192" y="722" type="curve"/>
      <point x="192" y="610"/>
      <point x="192" y="722"/>
    </contour>
    <contour>
      <point x="556" y="722" type="curve"/>
      <point x="390" y="489"/>
      <point x="221" y="260"/>
      <point x="55" y="26" type="curve"/>
      <point x="202" y="26"/>
      <point x="55" y="0"/>
      <point x="202" y="0" type="curve"/>
      <point x="367" y="233"/>
      <point x="530" y="467"/>
      <point x="695" y="699" type="curve"/>
      <point x="556" y="699"/>
      <point x="695" y="722"/>
    </contour>
    <contour>
      <point x="82" y="699" type="curve"/>
      <point x="245" y="466"/>
      <point x="407" y="233"/>
      <point x="571" y="0" type="curve"/>
      <point x="717" y="0"/>
      <point x="571" y="18"/>
      <point x="717" y="18" type="curve"/>
      <point x="551" y="253"/>
      <point x="384" y="487"/>
      <point x="218" y="722" type="curve"/>
      <point x="82" y="722"/>
      <point x="218" y="699"/>
    </contour>
  </outline>
</glyph>
<glyph name="Z" format="1">
  <advance width="754"/>
  <unicode hex="005A"/>
  <outline>
    <contour>
      <point x="373" y="781" type="move" name="top"/>
    </contour>
    <contour>
      <point x="71" y="666" type="curve"/>
      <point x="71" y="546"/>
      <point x="71" y="666"/>
      <point x="71" y="546" type="curve"/>
      <point x="186" y="546"/>
      <point x="71" y="546"/>
      <point x="186" y="546" type="curve"/>
      <point x="186" y="666"/>
      <point x="186" y="546"/>
      <point x="186" y="666" type="curve"/>
      <point x="71" y="666"/>
      <point x="186" y="666"/>
    </contour>
    <contour>
      <point x="702" y="56" type="curve"/>
      <point x="702" y="176"/>
      <point x="702" y="56"/>
      <point x="702" y="176" type="curve"/>
      <point x="586" y="176"/>
      <point x="702" y="176"/>
      <point x="586" y="176" type="curve"/>
      <point x="586" y="56"/>
      <point x="586" y="176"/>
      <point x="586" y="56" type="curve"/>
      <point x="702" y="56"/>
      <point x="586" y="56"/>
    </contour>
    <contour>
      <point x="71" y="610" type="curve"/>
      <point x="237" y="610"/>
      <point x="459" y="610"/>
      <point x="626" y="610" type="curve"/>
      <point x="614" y="622"/>
      <point x="594" y="618"/>
      <point x="582" y="630" type="curve"/>
      <point x="573" y="640"/>
      <point x="571" y="656"/>
      <point x="562" y="667" type="curve"/>
      <point x="554" y="657"/>
      <point x="539" y="667"/>
      <point x="531" y="657" type="curve"/>
      <point x="35" y="112" type="line"/>
      <point x="35" y="55"/>
      <point x="35" y="112"/>
      <point x="35" y="55" type="curve"/>
      <point x="35" y="0"/>
      <point x="35" y="55"/>
      <point x="35" y="0" type="curve"/>
      <point x="89" y="0"/>
      <point x="35" y="0"/>
      <point x="89" y="0" type="curve"/>
      <point x="687" y="0"/>
      <point x="502" y="0"/>
      <point x="702" y="0" type="curve"/>
      <point x="702" y="112"/>
      <point x="702" y="0"/>
      <point x="702" y="112" type="curve"/>
      <point x="502" y="112"/>
      <point x="288" y="112"/>
      <point x="89" y="112" type="curve"/>
      <point x="100" y="103"/>
      <point x="117" y="104"/>
      <point x="128" y="96" type="curve"/>
      <point x="137" y="85"/>
      <point x="140" y="67"/>
      <point x="151" y="55" type="curve"/>
      <point x="161" y="66"/>
      <point x="183" y="54"/>
      <point x="194" y="65" type="curve"/>
      <point x="690" y="610" type="line"/>
      <point x="690" y="667"/>
      <point x="690" y="610"/>
      <point x="690" y="667" type="curve"/>
      <point x="690" y="722"/>
      <point x="690" y="667"/>
      <point x="690" y="722" type="curve"/>
      <point x="616" y="722"/>
      <point x="690" y="722"/>
      <point x="616" y="722" type="curve"/>
      <point x="451" y="722"/>
      <point x="234" y="722"/>
      <point x="71" y="722" type="curve"/>
      <point x="71" y="610"/>
      <point x="71" y="722"/>
    </contour>
  </outline>
</glyph>
<glyph name="bracketleft" format="1">
  <advance width="353"/>
  <unicode hex="005B"/>
  <outline>
    <contour>
      <point x="303" y="769" type="curve"/>
      <point x="250" y="769"/>
      <point x="197" y="769"/>
      <point x="144" y="769" type="curve"/>
      <point x="125" y="769"/>
      <point x="93" y="769"/>
      <point x="76" y="769" type="curve"/>
      <point x="76" y="753"/>
      <point x="76" y="730"/>
      <point x="76" y="713" type="curve"/>
      <point x="76" y="455"/>
      <point x="76" y="200"/>
      <point x="76" y="-58" type="curve"/>
      <point x="76" y="-75"/>
      <point x="76" y="-94"/>
      <point x="76" y="-112" type="curve"/>
      <point x="93" y="-112"/>
      <point x="123" y="-112"/>
      <point x="143" y="-112" type="curve"/>
      <point x="196" y="-112"/>
      <point x="250" y="-112"/>
      <point x="303" y="-112" type="curve"/>
      <point x="303" y="11"/>
      <point x="303" y="-112"/>
      <point x="303" y="11" type="curve"/>
      <point x="250" y="11"/>
      <point x="196" y="11"/>
      <point x="143" y="11" type="curve"/>
      <point x="226" y="11"/>
      <point x="143" y="11"/>
      <point x="226" y="11" type="curve"/>
      <point x="226" y="-58"/>
      <point x="226" y="11"/>
      <point x="226" y="-58" type="curve"/>
      <point x="226" y="200"/>
      <point x="226" y="455"/>
      <point x="226" y="713" type="curve"/>
      <point x="226" y="646"/>
      <point x="226" y="713"/>
      <point x="226" y="646" type="curve"/>
      <point x="144" y="646"/>
      <point x="226" y="646"/>
      <point x="144" y="646" type="curve"/>
      <point x="197" y="646"/>
      <point x="250" y="646"/>
      <point x="303" y="646" type="curve"/>
      <point x="303" y="769"/>
      <point x="303" y="646"/>
    </contour>
  </outline>
</glyph>
<glyph name="backslash" format="1">
  <advance width="620"/>
  <unicode hex="005C"/>
  <outline>
    <contour>
      <point x="593" y="-68" type="curve"/>
      <point x="457" y="236"/>
      <point x="320" y="540"/>
      <point x="184" y="844" type="curve"/>
      <point x="27" y="844"/>
      <point x="184" y="844"/>
      <point x="27" y="844" type="curve"/>
      <point x="163" y="540"/>
      <point x="300" y="236"/>
      <point x="436" y="-68" type="curve"/>
      <point x="593" y="-68"/>
      <point x="436" y="-68"/>
    </contour>
  </outline>
</glyph>
<glyph name="bracketright" format="1">
  <advance width="353"/>
  <unicode hex="005D"/>
  <outline>
    <contour>
      <point x="50" y="646" type="curve"/>
      <point x="103" y="646"/>
      <point x="156" y="646"/>
      <point x="209" y="646" type="curve"/>
      <point x="195" y="657"/>
      <point x="176" y="661"/>
      <point x="163" y="672" type="curve"/>
      <point x="149" y="684"/>
      <point x="140" y="700"/>
      <point x="127" y="713" type="curve"/>
      <point x="127" y="455"/>
      <point x="126" y="200"/>
      <point x="127" y="-58" type="curve"/>
      <point x="141" y="-45"/>
      <point x="153" y="-31"/>
      <point x="167" y="-19" type="curve"/>
      <point x="179" y="-7"/>
      <point x="197" y="-1"/>
      <point x="210" y="11" type="curve"/>
      <point x="157" y="11"/>
      <point x="103" y="11"/>
      <point x="50" y="11" type="curve"/>
      <point x="50" y="-112"/>
      <point x="50" y="11"/>
      <point x="50" y="-112" type="curve"/>
      <point x="103" y="-112"/>
      <point x="157" y="-112"/>
      <point x="210" y="-112" type="curve"/>
      <point x="277" y="-112"/>
      <point x="210" y="-112"/>
      <point x="277" y="-112" type="curve"/>
      <point x="277" y="-58"/>
      <point x="277" y="-112"/>
      <point x="277" y="-58" type="curve"/>
      <point x="277" y="200"/>
      <point x="277" y="455"/>
      <point x="277" y="713" type="curve"/>
      <point x="277" y="769"/>
      <point x="277" y="713"/>
      <point x="277" y="769" type="curve"/>
      <point x="209" y="769"/>
      <point x="277" y="769"/>
      <point x="209" y="769" type="curve"/>
      <point x="156" y="769"/>
      <point x="103" y="769"/>
      <point x="50" y="769" type="curve"/>
      <point x="50" y="646"/>
      <point x="50" y="769"/>
    </contour>
  </outline>
</glyph>
<glyph name="asciicircum" format="1">
  <advance width="608"/>
  <unicode hex="005E"/>
  <outline>
    <contour>
      <point x="196" y="452" type="curve"/>
      <point x="256" y="553"/>
      <point x="317" y="653"/>
      <point x="378" y="752" type="curve"/>
      <point x="229" y="752"/>
      <point x="378" y="752"/>
      <point x="229" y="752" type="curve"/>
      <point x="168" y="653"/>
      <point x="107" y="553"/>
      <point x="47" y="452" type="curve"/>
      <point x="196" y="452"/>
      <point x="47" y="452"/>
    </contour>
    <contour>
      <point x="561" y="452" type="curve"/>
      <point x="501" y="552"/>
      <point x="438" y="653"/>
      <point x="378" y="752" type="curve"/>
      <point x="229" y="752"/>
      <point x="378" y="752"/>
      <point x="229" y="752" type="curve"/>
      <point x="289" y="653"/>
      <point x="351" y="552"/>
      <point x="412" y="452" type="curve"/>
      <point x="561" y="452"/>
      <point x="412" y="452"/>
    </contour>
  </outline>
</glyph>
<glyph name="grave" format="1">
  <advance width="391"/>
  <unicode hex="0060"/>
  <outline>
    <contour>
      <point x="286" y="560" type="move" name="_top"/>
    </contour>
    <contour>
      <point x="367" y="560" type="line"/>
      <point x="249" y="726" type="line"/>
      <point x="59" y="726" type="line"/>
      <point x="220" y="560" type="line"/>
    </contour>
  </outline>
</glyph>
<glyph name="a" format="1">
  <advance width="653"/>
  <unicode hex="0061"/>
  <outline>
    <contour>
      <point x="312" y="611" type="move" name="top"/>
    </contour>
    <contour>
      <point x="530" y="8" type="move" name="bottom"/>
    </contour>
    <contour>
      <point x="74" y="462" type="curve"/>
      <point x="74" y="345"/>
      <point x="74" y="458"/>
      <point x="74" y="342" type="curve"/>
      <point x="190" y="342"/>
      <point x="74" y="342"/>
      <point x="190" y="342" type="curve"/>
      <point x="190" y="458"/>
      <point x="190" y="345"/>
      <point x="190" y="462" type="curve"/>
      <point x="74" y="462"/>
      <point x="190" y="462"/>
    </contour>
    <contour>
      <point x="555" y="0" type="curve"/>
      <point x="555" y="123"/>
      <point x="555" y="242"/>
      <point x="555" y="366" type="curve"/>
      <point x="555" y="499"/>
      <point x="449" y="538"/>
      <point x="310" y="538" type="curve"/>
      <point x="209" y="538"/>
      <point x="133" y="507"/>
      <point x="74" y="462" type="curve"/>
      <point x="130" y="367"/>
      <point x="79" y="458"/>
      <point x="135" y="364" type="curve"/>
      <point x="176" y="393"/>
      <point x="219" y="424"/>
      <point x="290" y="424" type="curve"/>
      <point x="354" y="424"/>
      <point x="405" y="409"/>
      <point x="405" y="343" type="curve"/>
      <point x="405" y="229"/>
      <point x="405" y="114"/>
      <point x="405" y="0" type="curve"/>
      <point x="555" y="0"/>
      <point x="405" y="0"/>
    </contour>
    <contour>
      <point x="482" y="0" type="curve"/>
      <point x="528" y="0"/>
      <point x="575" y="0"/>
      <point x="621" y="0" type="curve"/>
      <point x="621" y="112"/>
      <point x="621" y="0"/>
      <point x="621" y="112" type="curve"/>
      <point x="482" y="112"/>
      <point x="621" y="112"/>
      <point x="482" y="112" type="curve"/>
      <point x="482" y="0"/>
      <point x="482" y="112"/>
    </contour>
    <contour>
      <point x="476" y="345" type="curve"/>
      <point x="395" y="335"/>
      <point x="346" y="333"/>
      <point x="266" y="324" type="curve"/>
      <point x="140" y="309"/>
      <point x="45" y="280"/>
      <point x="45" y="162" type="curve"/>
      <point x="45" y="47"/>
      <point x="125" y="-5"/>
      <point x="247" y="-5" type="curve"/>
      <point x="371" y="-5"/>
      <point x="445" y="67"/>
      <point x="514" y="153" type="curve"/>
      <point x="442" y="212"/>
      <point x="514" y="153"/>
      <point x="442" y="212" type="curve"/>
      <point x="408" y="153"/>
      <point x="350" y="106"/>
      <point x="275" y="106" type="curve"/>
      <point x="223" y="106"/>
      <point x="192" y="123"/>
      <point x="192" y="165" type="curve"/>
      <point x="192" y="204"/>
      <point x="226" y="218"/>
      <point x="264" y="222" type="curve"/>
      <point x="351" y="232"/>
      <point x="396" y="239"/>
      <point x="483" y="249" type="curve"/>
      <point x="476" y="345"/>
      <point x="483" y="249"/>
    </contour>
  </outline>
</glyph>
<glyph name="b" format="1">
  <advance width="736"/>
  <unicode hex="0062"/>
  <outline>
    <contour>
      <point x="187" y="800" type="curve"/>
      <point x="132" y="800"/>
      <point x="90" y="800"/>
      <point x="36" y="800" type="curve"/>
      <point x="35" y="725"/>
      <point x="36" y="763"/>
      <point x="35" y="688" type="curve"/>
      <point x="134" y="688"/>
      <point x="88" y="688"/>
      <point x="187" y="688" type="curve"/>
      <point x="187" y="763"/>
      <point x="187" y="725"/>
    </contour>
    <contour>
      <point x="220" y="327" type="curve"/>
      <point x="264" y="378"/>
      <point x="318" y="421"/>
      <point x="401" y="421" type="curve"/>
      <point x="494" y="421"/>
      <point x="543" y="358"/>
      <point x="543" y="262" type="curve"/>
      <point x="545" y="169"/>
      <point x="492" y="111"/>
      <point x="402" y="112" type="curve"/>
      <point x="328" y="112"/>
      <point x="272" y="143"/>
      <point x="231" y="188" type="curve"/>
      <point x="178" y="153"/>
      <point x="200" y="167"/>
      <point x="148" y="131" type="curve"/>
      <point x="222" y="52"/>
      <point x="299" y="-5"/>
      <point x="426" y="-5" type="curve"/>
      <point x="589" y="-5"/>
      <point x="694" y="95"/>
      <point x="693" y="265" type="curve"/>
      <point x="693" y="437"/>
      <point x="589" y="539"/>
      <point x="424" y="539" type="curve"/>
      <point x="301" y="539"/>
      <point x="225" y="477"/>
      <point x="155" y="395" type="curve"/>
      <point x="198" y="356"/>
      <point x="176" y="365"/>
    </contour>
    <contour>
      <point x="260" y="0" type="curve"/>
      <point x="260" y="289"/>
      <point x="260" y="511"/>
      <point x="260" y="800" type="curve"/>
      <point x="161" y="800"/>
      <point x="209" y="800"/>
      <point x="111" y="800" type="curve"/>
      <point x="111" y="511"/>
      <point x="111" y="289"/>
      <point x="111" y="0" type="curve"/>
      <point x="209" y="0"/>
      <point x="161" y="0"/>
    </contour>
    <contour>
      <point x="187" y="111" type="curve"/>
      <point x="88" y="111"/>
      <point x="134" y="112"/>
      <point x="36" y="112" type="curve"/>
      <point x="36" y="37"/>
      <point x="36" y="75"/>
      <point x="36" y="0" type="curve"/>
      <point x="90" y="0"/>
      <point x="132" y="0"/>
      <point x="187" y="0" type="curve"/>
      <point x="187" y="75"/>
      <point x="187" y="37"/>
    </contour>
  </outline>
</glyph>
<glyph name="c" format="1">
  <advance width="605"/>
  <unicode hex="0063"/>
  <outline>
    <contour>
      <point x="332" y="611" type="move" name="top"/>
    </contour>
    <contour>
      <point x="359" y="10" type="move" name="bottom"/>
    </contour>
    <contour>
      <point x="440" y="469" type="curve"/>
      <point x="440" y="327"/>
      <point x="440" y="469"/>
      <point x="440" y="327" type="curve"/>
      <point x="555" y="327"/>
      <point x="440" y="327"/>
      <point x="555" y="327" type="curve"/>
      <point x="555" y="469"/>
      <point x="555" y="327"/>
      <point x="555" y="469" type="curve"/>
      <point x="440" y="469"/>
      <point x="555" y="469"/>
    </contour>
    <contour>
      <point x="555" y="469" type="curve"/>
      <point x="498" y="510"/>
      <point x="424" y="538"/>
      <point x="349" y="538" type="curve"/>
      <point x="164" y="538"/>
      <point x="42" y="451"/>
      <point x="42" y="267" type="curve"/>
      <point x="42" y="84"/>
      <point x="160" y="-5"/>
      <point x="345" y="-5" type="curve"/>
      <point x="429" y="-5"/>
      <point x="510" y="21"/>
      <point x="559" y="81" type="curve"/>
      <point x="471" y="164"/>
      <point x="559" y="81"/>
      <point x="471" y="164" type="curve"/>
      <point x="437" y="132"/>
      <point x="398" y="112"/>
      <point x="352" y="112" type="curve"/>
      <point x="251" y="112"/>
      <point x="192" y="164"/>
      <point x="192" y="267" type="curve"/>
      <point x="192" y="368"/>
      <point x="247" y="421"/>
      <point x="346" y="421" type="curve"/>
      <point x="390" y="421"/>
      <point x="432" y="413"/>
      <point x="467" y="390" type="curve"/>
      <point x="555" y="469"/>
      <point x="467" y="390"/>
    </contour>
  </outline>
</glyph>
<glyph name="f" format="1">
  <advance width="519"/>
  <unicode hex="0066"/>
  <outline>
    <contour>
      <point x="378" y="766" type="curve"/>
      <point x="378" y="635"/>
      <point x="378" y="766"/>
      <point x="378" y="635" type="curve"/>
      <point x="493" y="635"/>
      <point x="378" y="635"/>
      <point x="493" y="635" type="curve"/>
      <point x="493" y="766"/>
      <point x="493" y="635"/>
      <point x="493" y="766" type="curve"/>
      <point x="378" y="766"/>
      <point x="493" y="766"/>
    </contour>
    <contour>
      <point x="209" y="-1" type="curve"/>
      <point x="264" y="-1"/>
      <point x="303" y="0"/>
      <point x="358" y="0" type="curve"/>
      <point x="358" y="112"/>
      <point x="358" y="0"/>
      <point x="358" y="112" type="curve"/>
      <point x="193" y="111"/>
      <point x="374" y="112"/>
      <point x="209" y="111" type="curve"/>
      <point x="209" y="-1"/>
      <point x="209" y="111"/>
    </contour>
    <contour>
      <point x="209" y="111" type="curve"/>
      <point x="42" y="112"/>
      <point x="224" y="111"/>
      <point x="58" y="112" type="curve"/>
      <point x="58" y="0"/>
      <point x="58" y="112"/>
      <point x="58" y="0" type="curve"/>
      <point x="114" y="0"/>
      <point x="154" y="-1"/>
      <point x="209" y="-1" type="curve"/>
      <point x="209" y="111"/>
      <point x="209" y="-1"/>
    </contour>
    <contour>
      <point x="26" y="421" type="curve"/>
      <point x="449" y="421" type="line"/>
      <point x="449" y="533"/>
      <point x="449" y="421"/>
      <point x="449" y="533" type="curve"/>
      <point x="26" y="533" type="line"/>
      <point x="26" y="421"/>
      <point x="26" y="533"/>
    </contour>
    <contour>
      <point x="283" y="0" type="curve"/>
      <point x="283" y="604" type="line"/>
      <point x="283" y="656"/>
      <point x="304" y="695"/>
      <point x="355" y="695" type="curve"/>
      <point x="383" y="695"/>
      <point x="408" y="688"/>
      <point x="432" y="677" type="curve"/>
      <point x="493" y="766"/>
      <point x="432" y="677"/>
      <point x="493" y="766" type="curve"/>
      <point x="450" y="787"/>
      <point x="403" y="802"/>
      <point x="355" y="802" type="curve"/>
      <point x="223" y="802"/>
      <point x="132" y="730"/>
      <point x="134" y="604" type="curve"/>
      <point x="134" y="0" type="line"/>
      <point x="283" y="0"/>
      <point x="134" y="0"/>
    </contour>
  </outline>
</glyph>
<glyph name="g" format="1">
  <advance width="628"/>
  <unicode hex="0067"/>
  <outline>
    <contour>
      <point x="316" y="611" type="move" name="top"/>
    </contour>
    <contour>
      <point x="439" y="433" type="curve"/>
      <point x="610" y="501" type="line"/>
      <point x="609" y="501"/>
      <point x="553" y="610"/>
      <point x="552" y="610" type="curve"/>
      <point x="362" y="516" type="line"/>
      <point x="438" y="432"/>
      <point x="362" y="517"/>
    </contour>
    <contour>
      <point x="216" y="336" type="curve"/>
      <point x="216" y="395"/>
      <point x="261" y="426"/>
      <point x="324" y="426" type="curve"/>
      <point x="387" y="426"/>
      <point x="428" y="393"/>
      <point x="428" y="335" type="curve"/>
      <point x="428" y="280"/>
      <point x="386" y="252"/>
      <point x="326" y="252" type="curve"/>
      <point x="264" y="252"/>
      <point x="216" y="278"/>
      <point x="216" y="336" type="curve"/>
      <point x="67" y="331"/>
      <point x="216" y="336"/>
      <point x="67" y="331" type="curve"/>
      <point x="67" y="203"/>
      <point x="177" y="140"/>
      <point x="315" y="140" type="curve"/>
      <point x="462" y="140"/>
      <point x="578" y="205"/>
      <point x="578" y="339" type="curve"/>
      <point x="578" y="471"/>
      <point x="467" y="538"/>
      <point x="324" y="538" type="curve"/>
      <point x="178" y="538"/>
      <point x="67" y="467"/>
      <point x="67" y="331" type="curve"/>
      <point x="216" y="336"/>
      <point x="67" y="331"/>
    </contour>
    <contour>
      <point x="185" y="248" type="curve"/>
      <point x="121" y="218"/>
      <point x="71" y="182"/>
      <point x="71" y="113" type="curve"/>
      <point x="71" y="2"/>
      <point x="182" y="-25"/>
      <point x="305" y="-34" type="curve"/>
      <point x="394" y="-40"/>
      <point x="488" y="-43"/>
      <point x="488" y="-118" type="curve"/>
      <point x="488" y="-179"/>
      <point x="409" y="-193"/>
      <point x="327" y="-193" type="curve"/>
      <point x="249" y="-193"/>
      <point x="181" y="-172"/>
      <point x="181" y="-102" type="curve"/>
      <point x="181" y="-46"/>
      <point x="210" y="-12"/>
      <point x="255" y="4" type="curve"/>
      <point x="180" y="71"/>
      <point x="255" y="4"/>
      <point x="180" y="71" type="curve"/>
      <point x="95" y="41"/>
      <point x="31" y="-11"/>
      <point x="31" y="-108" type="curve"/>
      <point x="31" y="-253"/>
      <point x="164" y="-304"/>
      <point x="320" y="-304" type="curve"/>
      <point x="484" y="-304"/>
      <point x="626" y="-259"/>
      <point x="623" y="-107" type="curve"/>
      <point x="623" y="39"/>
      <point x="484" y="63"/>
      <point x="332" y="73" type="curve"/>
      <point x="276" y="77"/>
      <point x="220" y="83"/>
      <point x="220" y="124" type="curve"/>
      <point x="220" y="150"/>
      <point x="234" y="165"/>
      <point x="258" y="178" type="curve"/>
      <point x="185" y="248"/>
      <point x="258" y="178"/>
    </contour>
  </outline>
</glyph>
<glyph name="h" format="1">
  <advance width="702"/>
  <unicode hex="0068"/>
  <outline>
    <contour>
      <point x="546" y="-1" type="curve"/>
      <point x="602" y="-1"/>
      <point x="641" y="0"/>
      <point x="697" y="0" type="curve"/>
      <point x="697" y="112"/>
      <point x="697" y="0"/>
      <point x="697" y="112" type="curve"/>
      <point x="530" y="111"/>
      <point x="712" y="112"/>
      <point x="546" y="111" type="curve"/>
      <point x="546" y="-1"/>
      <point x="546" y="111"/>
    </contour>
    <contour>
      <point x="160" y="-1" type="curve"/>
      <point x="210" y="-1"/>
      <point x="144" y="-1"/>
      <point x="295" y="0" type="curve"/>
      <point x="295" y="112"/>
      <point x="295" y="0"/>
      <point x="295" y="112" type="curve"/>
      <point x="144" y="111"/>
      <point x="310" y="112"/>
      <point x="160" y="111" type="curve"/>
      <point x="160" y="-1"/>
      <point x="160" y="111"/>
    </contour>
    <contour>
      <point x="160" y="799" type="curve"/>
      <point x="104" y="799"/>
      <point x="64" y="800"/>
      <point x="9" y="800" type="curve"/>
      <point x="8" y="688"/>
      <point x="9" y="800"/>
      <point x="8" y="688" type="curve"/>
      <point x="176" y="688"/>
      <point x="-8" y="688"/>
      <point x="160" y="688" type="curve"/>
      <point x="160" y="799"/>
      <point x="160" y="688"/>
    </contour>
    <contour>
      <point x="160" y="111" type="curve"/>
      <point x="-7" y="112"/>
      <point x="176" y="111"/>
      <point x="9" y="112" type="curve"/>
      <point x="8" y="0"/>
      <point x="9" y="112"/>
      <point x="8" y="0" type="curve"/>
      <point x="64" y="0"/>
      <point x="104" y="-1"/>
      <point x="160" y="-1" type="curve"/>
      <point x="160" y="111"/>
      <point x="160" y="-1"/>
    </contour>
    <contour>
      <point x="200" y="283" type="curve"/>
      <point x="230" y="366"/>
      <point x="292" y="424"/>
      <point x="367" y="424" type="curve"/>
      <point x="440" y="424"/>
      <point x="472" y="373"/>
      <point x="472" y="300" type="curve"/>
      <point x="472" y="198"/>
      <point x="472" y="102"/>
      <point x="472" y="0" type="curve"/>
      <point x="622" y="0"/>
      <point x="472" y="0"/>
      <point x="622" y="0" type="curve"/>
      <point x="622" y="106"/>
      <point x="622" y="212"/>
      <point x="622" y="319" type="curve"/>
      <point x="622" y="460"/>
      <point x="547" y="536"/>
      <point x="399" y="536" type="curve"/>
      <point x="285" y="536"/>
      <point x="187" y="459"/>
      <point x="142" y="338" type="curve"/>
      <point x="202" y="282"/>
      <point x="140" y="341"/>
    </contour>
    <contour>
      <point x="235" y="0" type="curve"/>
      <point x="235" y="267"/>
      <point x="235" y="533"/>
      <point x="235" y="800" type="curve"/>
      <point x="84" y="800"/>
      <point x="235" y="800"/>
      <point x="84" y="800" type="curve"/>
      <point x="84" y="533"/>
      <point x="84" y="267"/>
      <point x="84" y="0" type="curve"/>
      <point x="235" y="0"/>
      <point x="84" y="0"/>
    </contour>
  </outline>
</glyph>
<glyph name="i" format="1">
  <advance width="349"/>
  <unicode hex="0069"/>
  <outline>
    <contour>
      <point x="178" y="611" type="move" name="top"/>
    </contour>
    <contour>
      <point x="248" y="9" type="move" name="bottom"/>
    </contour>
    <contour>
      <point x="181" y="112" type="curve"/>
      <point x="14" y="112"/>
      <point x="197" y="112"/>
      <point x="30" y="112" type="curve"/>
      <point x="29" y="0"/>
      <point x="30" y="112"/>
      <point x="29" y="0" type="curve"/>
      <point x="85" y="0"/>
      <point x="125" y="0"/>
      <point x="181" y="0" type="curve"/>
      <point x="181" y="112"/>
      <point x="181" y="0"/>
    </contour>
    <contour>
      <point x="181" y="0" type="curve"/>
      <point x="234" y="0"/>
      <point x="275" y="0"/>
      <point x="327" y="0" type="curve"/>
      <point x="327" y="112"/>
      <point x="327" y="0"/>
      <point x="327" y="112" type="curve"/>
      <point x="170" y="112"/>
      <point x="338" y="112"/>
      <point x="181" y="112" type="curve"/>
      <point x="181" y="0"/>
      <point x="181" y="112"/>
    </contour>
    <contour>
      <point x="181" y="533" type="curve"/>
      <point x="125" y="533"/>
      <point x="85" y="533"/>
      <point x="30" y="533" type="curve"/>
      <point x="29" y="421"/>
      <point x="30" y="533"/>
      <point x="29" y="421" type="curve"/>
      <point x="197" y="421"/>
      <point x="13" y="421"/>
      <point x="181" y="421" type="curve"/>
      <point x="181" y="533"/>
      <point x="181" y="421"/>
    </contour>
    <contour>
      <point x="260" y="0" type="curve"/>
      <point x="260" y="178"/>
      <point x="260" y="355"/>
      <point x="260" y="533" type="curve"/>
      <point x="103" y="533"/>
      <point x="260" y="533"/>
      <point x="103" y="533" type="curve"/>
      <point x="103" y="355"/>
      <point x="103" y="178"/>
      <point x="103" y="0" type="curve"/>
      <point x="260" y="0"/>
      <point x="103" y="0"/>
    </contour>
    <contour>
      <point x="263" y="682" type="curve"/>
      <point x="263" y="731"/>
      <point x="226" y="755"/>
      <point x="178" y="755" type="curve"/>
      <point x="129" y="755"/>
      <point x="95" y="729"/>
      <point x="95" y="682" type="curve"/>
      <point x="262" y="682"/>
      <point x="96" y="682"/>
      <point x="263" y="682" type="curve"/>
      <point x="263" y="632"/>
      <point x="226" y="610"/>
      <point x="177" y="610" type="curve"/>
      <point x="128" y="610"/>
      <point x="95" y="635"/>
      <point x="95" y="682" type="curve"/>
      <point x="262" y="682"/>
      <point x="96" y="682"/>
    </contour>
  </outline>
</glyph>
<glyph name="j" format="1">
  <advance width="330"/>
  <unicode hex="006A"/>
  <outline>
    <contour>
      <point x="172" y="533" type="curve"/>
      <point x="118" y="533"/>
      <point x="62" y="533"/>
      <point x="6" y="533" type="curve"/>
      <point x="6" y="421"/>
      <point x="6" y="533"/>
      <point x="6" y="421" type="curve"/>
      <point x="172" y="421"/>
      <point x="6" y="421"/>
      <point x="172" y="421" type="curve"/>
      <point x="172" y="533"/>
      <point x="172" y="421"/>
    </contour>
    <contour>
      <point x="-18" y="-303" type="curve"/>
      <point x="-9" y="-304"/>
      <point x="4" y="-305"/>
      <point x="17" y="-305" type="curve"/>
      <point x="148" y="-305"/>
      <point x="249" y="-242"/>
      <point x="249" y="-119" type="curve"/>
      <point x="249" y="99"/>
      <point x="249" y="316"/>
      <point x="249" y="534" type="curve"/>
      <point x="100" y="534"/>
      <point x="249" y="534"/>
      <point x="100" y="534" type="curve"/>
      <point x="100" y="316"/>
      <point x="100" y="99"/>
      <point x="100" y="-119" type="curve"/>
      <point x="100" y="-167"/>
      <point x="72" y="-198"/>
      <point x="24" y="-198" type="curve"/>
      <point x="16" y="-198"/>
      <point x="8" y="-198"/>
      <point x="2" y="-197" type="curve"/>
      <point x="-18" y="-303"/>
      <point x="2" y="-197"/>
    </contour>
    <contour>
      <point x="258" y="678" type="curve"/>
      <point x="258" y="728"/>
      <point x="222" y="752"/>
      <point x="172" y="752" type="curve"/>
      <point x="124" y="752"/>
      <point x="91" y="725"/>
      <point x="91" y="678" type="curve"/>
      <point x="258" y="678"/>
      <point x="91" y="678"/>
      <point x="258" y="678" type="curve"/>
      <point x="258" y="628"/>
      <point x="222" y="606"/>
      <point x="172" y="606" type="curve"/>
      <point x="123" y="606"/>
      <point x="91" y="631"/>
      <point x="91" y="678" type="curve"/>
      <point x="258" y="678"/>
      <point x="91" y="678"/>
    </contour>
  </outline>
</glyph>
<glyph name="k" format="1">
  <advance width="652"/>
  <unicode hex="006B"/>
  <outline>
    <contour>
      <point x="391" y="-3" type="move" name="bottom"/>
    </contour>
    <contour>
      <point x="158" y="111" type="curve"/>
      <point x="-9" y="112"/>
      <point x="174" y="111"/>
      <point x="7" y="112" type="curve"/>
      <point x="7" y="0"/>
      <point x="7" y="112"/>
      <point x="7" y="0" type="curve"/>
      <point x="63" y="0"/>
      <point x="102" y="-1"/>
      <point x="158" y="-1" type="curve"/>
      <point x="158" y="111"/>
      <point x="158" y="-1"/>
    </contour>
    <contour>
      <point x="485" y="-1" type="curve"/>
      <point x="542" y="-1"/>
      <point x="576" y="0"/>
      <point x="633" y="0" type="curve"/>
      <point x="633" y="112"/>
      <point x="633" y="0"/>
      <point x="633" y="112" type="curve"/>
      <point x="459" y="111"/>
      <point x="660" y="112"/>
      <point x="486" y="111" type="curve"/>
      <point x="486" y="-1"/>
      <point x="485" y="111"/>
    </contour>
    <contour>
      <point x="493" y="421" type="curve"/>
      <point x="636" y="421"/>
      <point x="466" y="421"/>
      <point x="609" y="421" type="curve"/>
      <point x="609" y="533"/>
      <point x="609" y="421"/>
      <point x="609" y="533" type="curve"/>
      <point x="561" y="533"/>
      <point x="540" y="533"/>
      <point x="493" y="533" type="curve"/>
      <point x="493" y="421"/>
      <point x="493" y="533"/>
    </contour>
    <contour>
      <point x="158" y="-1" type="curve"/>
      <point x="202" y="-1"/>
      <point x="158" y="-1"/>
      <point x="290" y="0" type="curve"/>
      <point x="290" y="112"/>
      <point x="290" y="0"/>
      <point x="290" y="112" type="curve"/>
      <point x="158" y="111"/>
      <point x="290" y="112"/>
      <point x="158" y="111" type="curve"/>
      <point x="158" y="-1"/>
      <point x="158" y="111"/>
    </contour>
    <contour>
      <point x="516" y="533" type="curve"/>
      <point x="439" y="533"/>
      <point x="367" y="533"/>
      <point x="289" y="533" type="curve"/>
      <point x="289" y="421"/>
      <point x="289" y="533"/>
      <point x="289" y="421" type="curve"/>
      <point x="522" y="421"/>
      <point x="284" y="421"/>
      <point x="516" y="421" type="curve"/>
      <point x="516" y="533"/>
      <point x="516" y="421"/>
    </contour>
    <contour>
      <point x="160" y="799" type="curve"/>
      <point x="104" y="799"/>
      <point x="65" y="800"/>
      <point x="9" y="800" type="curve"/>
      <point x="9" y="688"/>
      <point x="9" y="800"/>
      <point x="9" y="688" type="curve"/>
      <point x="176" y="688"/>
      <point x="-7" y="688"/>
      <point x="160" y="688" type="curve"/>
      <point x="160" y="799"/>
      <point x="160" y="688"/>
    </contour>
    <contour>
      <point x="234" y="0" type="curve"/>
      <point x="234" y="800" type="line"/>
      <point x="84" y="800"/>
      <point x="234" y="800"/>
      <point x="84" y="800" type="curve"/>
      <point x="84" y="533"/>
      <point x="84" y="267"/>
      <point x="84" y="0" type="curve"/>
      <point x="234" y="0"/>
      <point x="84" y="0"/>
    </contour>
    <contour>
      <point x="450" y="533" type="curve"/>
      <point x="199" y="275" type="line"/>
      <point x="365" y="275"/>
      <point x="199" y="275"/>
      <point x="365" y="275" type="curve"/>
      <point x="590" y="485" type="line"/>
      <point x="417" y="485"/>
      <point x="621" y="533"/>
    </contour>
    <contour>
      <point x="605" y="63" type="curve"/>
      <point x="364" y="275" type="line"/>
      <point x="199" y="275"/>
      <point x="364" y="275"/>
      <point x="199" y="275" type="curve"/>
      <point x="477" y="0" type="line"/>
      <point x="643" y="0"/>
      <point x="438" y="63"/>
    </contour>
  </outline>
</glyph>
<glyph name="l" format="1">
  <advance width="376"/>
  <unicode hex="006C"/>
  <outline>
    <contour>
      <point x="188" y="879" type="move" name="top"/>
    </contour>
    <contour>
      <point x="246" y="6" type="move" name="bottom"/>
    </contour>
    <contour>
      <point x="188" y="111" type="curve"/>
      <point x="22" y="112"/>
      <point x="188" y="111"/>
      <point x="22" y="112" type="curve"/>
      <point x="22" y="0"/>
      <point x="22" y="112"/>
      <point x="22" y="0" type="curve"/>
      <point x="78" y="0"/>
      <point x="132" y="-1"/>
      <point x="188" y="-1" type="curve"/>
      <point x="188" y="112"/>
      <point x="188" y="-1"/>
    </contour>
    <contour>
      <point x="190" y="799" type="curve"/>
      <point x="134" y="799"/>
      <point x="79" y="800"/>
      <point x="24" y="800" type="curve"/>
      <point x="24" y="688"/>
      <point x="24" y="800"/>
      <point x="24" y="688" type="curve"/>
      <point x="190" y="688"/>
      <point x="24" y="688"/>
      <point x="190" y="688" type="curve"/>
      <point x="190" y="799"/>
      <point x="190" y="688"/>
    </contour>
    <contour>
      <point x="188" y="-1" type="curve"/>
      <point x="244" y="-1"/>
      <point x="299" y="0"/>
      <point x="356" y="0" type="curve"/>
      <point x="356" y="112"/>
      <point x="356" y="0"/>
      <point x="356" y="112" type="curve"/>
      <point x="188" y="111"/>
      <point x="356" y="112"/>
      <point x="188" y="111" type="curve"/>
      <point x="188" y="-1"/>
      <point x="188" y="112"/>
    </contour>
    <contour>
      <point x="262" y="0" type="curve"/>
      <point x="262" y="267"/>
      <point x="262" y="533"/>
      <point x="262" y="800" type="curve"/>
      <point x="113" y="800"/>
      <point x="262" y="800"/>
      <point x="113" y="800" type="curve"/>
      <point x="113" y="533"/>
      <point x="113" y="267"/>
      <point x="113" y="0" type="curve"/>
      <point x="262" y="0"/>
      <point x="113" y="0"/>
    </contour>
  </outline>
</glyph>
<glyph name="m" format="1">
  <advance width="1076"/>
  <unicode hex="006D"/>
  <outline>
    <contour>
      <point x="552" y="0" type="curve"/>
      <point x="682" y="0"/>
      <point x="552" y="0"/>
      <point x="682" y="0" type="curve"/>
      <point x="682" y="112"/>
      <point x="682" y="0"/>
      <point x="682" y="112" type="curve"/>
      <point x="552" y="112"/>
      <point x="682" y="112"/>
      <point x="552" y="112" type="curve"/>
      <point x="552" y="0"/>
      <point x="552" y="112"/>
    </contour>
    <contour>
      <point x="899" y="0" type="curve"/>
      <point x="945" y="0"/>
      <point x="990" y="0"/>
      <point x="1035" y="0" type="curve"/>
      <point x="1035" y="112"/>
      <point x="1035" y="0"/>
      <point x="1035" y="112" type="curve"/>
      <point x="899" y="112"/>
      <point x="1035" y="112"/>
      <point x="899" y="112" type="curve"/>
      <point x="899" y="0"/>
      <point x="899" y="112"/>
    </contour>
    <contour>
      <point x="206" y="112" type="curve"/>
      <point x="56" y="112"/>
      <point x="207" y="112"/>
      <point x="56" y="112" type="curve"/>
      <point x="55" y="0"/>
      <point x="56" y="112"/>
      <point x="55" y="0" type="curve"/>
      <point x="106" y="0"/>
      <point x="155" y="0"/>
      <point x="206" y="0" type="curve"/>
      <point x="206" y="112"/>
      <point x="206" y="0"/>
    </contour>
    <contour>
      <point x="206" y="0" type="curve"/>
      <point x="249" y="0"/>
      <point x="206" y="0"/>
      <point x="337" y="0" type="curve"/>
      <point x="337" y="112"/>
      <point x="337" y="0"/>
      <point x="337" y="112" type="curve"/>
      <point x="206" y="112"/>
      <point x="337" y="112"/>
      <point x="206" y="112" type="curve"/>
      <point x="206" y="0"/>
      <point x="206" y="112"/>
    </contour>
    <contour>
      <point x="206" y="533" type="curve"/>
      <point x="155" y="533"/>
      <point x="106" y="533"/>
      <point x="56" y="533" type="curve"/>
      <point x="55" y="421"/>
      <point x="56" y="533"/>
      <point x="55" y="421" type="curve"/>
      <point x="207" y="421"/>
      <point x="55" y="421"/>
      <point x="206" y="421" type="curve"/>
      <point x="206" y="533"/>
      <point x="206" y="421"/>
    </contour>
    <contour>
      <point x="593" y="265" type="curve"/>
      <point x="628" y="350"/>
      <point x="663" y="421"/>
      <point x="737" y="421" type="curve"/>
      <point x="806" y="421"/>
      <point x="823" y="381"/>
      <point x="823" y="307" type="curve"/>
      <point x="823" y="204"/>
      <point x="823" y="102"/>
      <point x="823" y="0" type="curve"/>
      <point x="972" y="0"/>
      <point x="823" y="0"/>
      <point x="972" y="0" type="curve"/>
      <point x="972" y="106"/>
      <point x="972" y="212"/>
      <point x="972" y="319" type="curve"/>
      <point x="972" y="464"/>
      <point x="923" y="538"/>
      <point x="778" y="538" type="curve"/>
      <point x="661" y="538"/>
      <point x="588" y="454"/>
      <point x="533" y="326" type="curve"/>
      <point x="595" y="266"/>
      <point x="531" y="324"/>
    </contour>
    <contour>
      <point x="248" y="268" type="curve"/>
      <point x="281" y="352"/>
      <point x="317" y="421"/>
      <point x="391" y="421" type="curve"/>
      <point x="459" y="421"/>
      <point x="477" y="381"/>
      <point x="477" y="307" type="curve"/>
      <point x="477" y="204"/>
      <point x="477" y="102"/>
      <point x="477" y="0" type="curve"/>
      <point x="627" y="0"/>
      <point x="477" y="0"/>
      <point x="627" y="0" type="curve"/>
      <point x="627" y="106"/>
      <point x="627" y="212"/>
      <point x="627" y="319" type="curve"/>
      <point x="627" y="464"/>
      <point x="578" y="538"/>
      <point x="433" y="538" type="curve"/>
      <point x="314" y="538"/>
      <point x="253" y="459"/>
      <point x="187" y="329" type="curve"/>
      <point x="250" y="270"/>
      <point x="185" y="328"/>
    </contour>
    <contour>
      <point x="281" y="0" type="curve"/>
      <point x="281" y="178"/>
      <point x="281" y="355"/>
      <point x="281" y="533" type="curve"/>
      <point x="131" y="533"/>
      <point x="281" y="533"/>
      <point x="131" y="533" type="curve"/>
      <point x="131" y="355"/>
      <point x="131" y="178"/>
      <point x="131" y="0" type="curve"/>
      <point x="281" y="0"/>
      <point x="131" y="0"/>
    </contour>
  </outline>
</glyph>
<glyph name="p" format="1">
  <advance width="708"/>
  <unicode hex="0070"/>
  <outline>
    <contour>
      <point x="158" y="-188" type="curve"/>
      <point x="-9" y="-188"/>
      <point x="174" y="-188"/>
      <point x="7" y="-188" type="curve"/>
      <point x="7" y="-300"/>
      <point x="7" y="-188"/>
      <point x="7" y="-300" type="curve"/>
      <point x="63" y="-300"/>
      <point x="102" y="-300"/>
      <point x="158" y="-300" type="curve"/>
      <point x="158" y="-188"/>
      <point x="158" y="-300"/>
    </contour>
    <contour>
      <point x="158" y="-300" type="curve"/>
      <point x="210" y="-300"/>
      <point x="247" y="-300"/>
      <point x="299" y="-300" type="curve"/>
      <point x="299" y="-188"/>
      <point x="299" y="-300"/>
      <point x="299" y="-188" type="curve"/>
      <point x="142" y="-188"/>
      <point x="315" y="-188"/>
      <point x="158" y="-188" type="curve"/>
      <point x="158" y="-300"/>
      <point x="158" y="-188"/>
    </contour>
    <contour>
      <point x="159" y="533" type="curve"/>
      <point x="103" y="533"/>
      <point x="64" y="533"/>
      <point x="8" y="533" type="curve"/>
      <point x="8" y="421"/>
      <point x="8" y="533"/>
      <point x="8" y="421" type="curve"/>
      <point x="175" y="421"/>
      <point x="-8" y="421"/>
      <point x="159" y="421" type="curve"/>
      <point x="159" y="533"/>
      <point x="159" y="421"/>
    </contour>
    <contour>
      <point x="189" y="291" type="curve"/>
      <point x="235" y="370"/>
      <point x="294" y="427"/>
      <point x="379" y="427" type="curve"/>
      <point x="474" y="427"/>
      <point x="517" y="359"/>
      <point x="517" y="262" type="curve"/>
      <point x="518" y="168"/>
      <point x="471" y="106"/>
      <point x="377" y="107" type="curve"/>
      <point x="305" y="107"/>
      <point x="247" y="133"/>
      <point x="192" y="180" type="curve"/>
      <point x="152" y="140"/>
      <point x="172" y="148"/>
      <point x="130" y="109" type="curve"/>
      <point x="202" y="36"/>
      <point x="289" y="-5"/>
      <point x="400" y="-5" type="curve"/>
      <point x="569" y="-5"/>
      <point x="667" y="103"/>
      <point x="667" y="268" type="curve"/>
      <point x="667" y="429"/>
      <point x="574" y="540"/>
      <point x="409" y="540" type="curve"/>
      <point x="288" y="540"/>
      <point x="204" y="474"/>
      <point x="139" y="375" type="curve"/>
      <point x="171" y="317"/>
      <point x="158" y="349"/>
    </contour>
    <contour>
      <point x="233" y="-300" type="curve"/>
      <point x="233" y="-22"/>
      <point x="233" y="255"/>
      <point x="233" y="533" type="curve"/>
      <point x="83" y="533"/>
      <point x="233" y="533"/>
      <point x="83" y="533" type="curve"/>
      <point x="83" y="255"/>
      <point x="83" y="-22"/>
      <point x="83" y="-300" type="curve"/>
      <point x="233" y="-300"/>
      <point x="83" y="-300"/>
    </contour>
  </outline>
</glyph>
<glyph name="t" format="1">
  <advance width="429"/>
  <unicode hex="0074"/>
  <outline>
    <contour>
      <point x="319" y="8" type="move" name="bottom"/>
    </contour>
    <contour>
      <point x="14" y="421" type="curve"/>
      <point x="394" y="421" type="line"/>
      <point x="394" y="533"/>
      <point x="394" y="421"/>
      <point x="394" y="533" type="curve"/>
      <point x="14" y="533" type="line"/>
      <point x="14" y="421"/>
      <point x="14" y="533"/>
    </contour>
    <contour>
      <point x="371" y="126" type="curve"/>
      <point x="346" y="115"/>
      <point x="329" y="111"/>
      <point x="304" y="111" type="curve"/>
      <point x="263" y="111"/>
      <point x="249" y="135"/>
      <point x="249" y="176" type="curve"/>
      <point x="249" y="687" type="line"/>
      <point x="183" y="645"/>
      <point x="165" y="642"/>
      <point x="99" y="601" type="curve"/>
      <point x="99" y="170" type="line"/>
      <point x="99" y="52"/>
      <point x="170" y="-6"/>
      <point x="286" y="-6" type="curve"/>
      <point x="342" y="-6"/>
      <point x="380" y="9"/>
      <point x="418" y="29" type="curve"/>
      <point x="371" y="126"/>
      <point x="418" y="29"/>
    </contour>
  </outline>
</glyph>
<glyph name="v" format="1">
  <advance width="693"/>
  <unicode hex="0076"/>
  <outline>
    <contour>
      <point x="143" y="533" type="curve"/>
      <point x="103" y="533"/>
      <point x="62" y="533"/>
      <point x="23" y="533" type="curve"/>
      <point x="23" y="421"/>
      <point x="23" y="533"/>
      <point x="23" y="421" type="curve"/>
      <point x="143" y="421"/>
      <point x="22" y="421"/>
      <point x="143" y="421" type="curve"/>
      <point x="143" y="533"/>
      <point x="143" y="421"/>
    </contour>
    <contour>
      <point x="143" y="421" type="curve"/>
      <point x="295" y="421"/>
      <point x="143" y="421"/>
      <point x="295" y="421" type="curve"/>
      <point x="295" y="533"/>
      <point x="295" y="421"/>
      <point x="295" y="533" type="curve"/>
      <point x="245" y="533"/>
      <point x="194" y="533"/>
      <point x="143" y="533" type="curve"/>
      <point x="143" y="421"/>
      <point x="143" y="533"/>
    </contour>
    <contour>
      <point x="557" y="533" type="curve"/>
      <point x="507" y="533"/>
      <point x="457" y="533"/>
      <point x="407" y="533" type="curve"/>
      <point x="407" y="421"/>
      <point x="407" y="533"/>
      <point x="407" y="421" type="curve"/>
      <point x="557" y="421"/>
      <point x="407" y="421"/>
      <point x="557" y="421" type="curve"/>
      <point x="557" y="533"/>
      <point x="557" y="421"/>
    </contour>
    <contour>
      <point x="557" y="421" type="curve"/>
      <point x="685" y="421"/>
      <point x="557" y="421"/>
      <point x="684" y="421" type="curve"/>
      <point x="684" y="533"/>
      <point x="684" y="421"/>
      <point x="684" y="533" type="curve"/>
      <point x="642" y="533"/>
      <point x="599" y="533"/>
      <point x="557" y="533" type="curve"/>
      <point x="557" y="421"/>
      <point x="557" y="533"/>
    </contour>
    <contour>
      <point x="47" y="533" type="curve"/>
      <point x="119" y="355"/>
      <point x="191" y="178"/>
      <point x="263" y="0" type="curve"/>
      <point x="408" y="0"/>
      <point x="263" y="0"/>
      <point x="408" y="0" type="curve"/>
      <point x="337" y="178"/>
      <point x="270" y="355"/>
      <point x="198" y="533" type="curve"/>
      <point x="47" y="533"/>
      <point x="198" y="533"/>
    </contour>
    <contour>
      <point x="503" y="533" type="curve"/>
      <point x="281" y="0" type="line"/>
      <point x="427" y="0"/>
      <point x="281" y="0"/>
      <point x="427" y="0" type="curve"/>
      <point x="504" y="178"/>
      <point x="579" y="355"/>
      <point x="655" y="533" type="curve"/>
      <point x="503" y="533"/>
      <point x="655" y="533"/>
    </contour>
  </outline>
</glyph>
<glyph name="w" format="1">
  <advance width="1031"/>
  <unicode hex="0077"/>
  <outline>
    <contour>
      <point x="881" y="421" type="curve"/>
      <point x="1017" y="421"/>
      <point x="881" y="421"/>
      <point x="1017" y="421" type="curve"/>
      <point x="1017" y="533"/>
      <point x="1017" y="421"/>
      <point x="1017" y="533" type="curve"/>
      <point x="971" y="533"/>
      <point x="926" y="533"/>
      <point x="881" y="533" type="curve"/>
      <point x="881" y="421"/>
      <point x="881" y="533"/>
    </contour>
    <contour>
      <point x="881" y="533" type="curve"/>
      <point x="834" y="533"/>
      <point x="787" y="533"/>
      <point x="741" y="533" type="curve"/>
      <point x="741" y="421"/>
      <point x="741" y="533"/>
      <point x="741" y="421" type="curve"/>
      <point x="881" y="421"/>
      <point x="741" y="421"/>
      <point x="881" y="421" type="curve"/>
      <point x="881" y="533"/>
      <point x="881" y="421"/>
    </contour>
    <contour>
      <point x="155" y="533" type="curve"/>
      <point x="110" y="533"/>
      <point x="64" y="533"/>
      <point x="18" y="533" type="curve"/>
      <point x="18" y="421"/>
      <point x="18" y="533"/>
      <point x="18" y="421" type="curve"/>
      <point x="155" y="421"/>
      <point x="18" y="421"/>
      <point x="155" y="421" type="curve"/>
      <point x="155" y="533"/>
      <point x="155" y="421"/>
    </contour>
    <contour>
      <point x="155" y="421" type="curve"/>
      <point x="292" y="421"/>
      <point x="155" y="421"/>
      <point x="292" y="421" type="curve"/>
      <point x="292" y="533"/>
      <point x="292" y="421"/>
      <point x="292" y="533" type="curve"/>
      <point x="246" y="533"/>
      <point x="201" y="533"/>
      <point x="155" y="533" type="curve"/>
      <point x="155" y="421"/>
      <point x="155" y="533"/>
    </contour>
    <contour>
      <point x="380" y="0" type="curve"/>
      <point x="451" y="178"/>
      <point x="522" y="355"/>
      <point x="592" y="533" type="curve"/>
      <point x="450" y="533"/>
      <point x="592" y="533"/>
      <point x="450" y="533" type="curve"/>
      <point x="380" y="355"/>
      <point x="311" y="178"/>
      <point x="241" y="0" type="curve"/>
      <point x="380" y="0"/>
      <point x="241" y="0"/>
    </contour>
    <contour>
      <point x="842" y="533" type="curve"/>
      <point x="777" y="355"/>
      <point x="712" y="178"/>
      <point x="648" y="0" type="curve"/>
      <point x="786" y="0"/>
      <point x="648" y="0"/>
      <point x="786" y="0" type="curve"/>
      <point x="853" y="178"/>
      <point x="919" y="355"/>
      <point x="985" y="533" type="curve"/>
      <point x="842" y="533"/>
      <point x="985" y="533"/>
    </contour>
    <contour>
      <point x="456" y="533" type="curve"/>
      <point x="519" y="355"/>
      <point x="583" y="178"/>
      <point x="646" y="0" type="curve"/>
      <point x="786" y="0"/>
      <point x="646" y="0"/>
      <point x="786" y="0" type="curve"/>
      <point x="723" y="178"/>
      <point x="660" y="355"/>
      <point x="597" y="533" type="curve"/>
      <point x="456" y="533"/>
      <point x="597" y="533"/>
    </contour>
    <contour>
      <point x="51" y="533" type="curve"/>
      <point x="114" y="355"/>
      <point x="177" y="178"/>
      <point x="240" y="0" type="curve"/>
      <point x="379" y="0"/>
      <point x="240" y="0"/>
      <point x="379" y="0" type="curve"/>
      <point x="317" y="178"/>
      <point x="255" y="355"/>
      <point x="192" y="533" type="curve"/>
      <point x="51" y="533"/>
      <point x="192" y="533"/>
    </contour>
  </outline>
</glyph>
<glyph name="x" format="1">
  <advance width="670"/>
  <unicode hex="0078"/>
  <outline>
    <contour>
      <point x="128" y="112" type="curve"/>
      <point x="5" y="112"/>
      <point x="145" y="112"/>
      <point x="21" y="112" type="curve"/>
      <point x="21" y="0"/>
      <point x="21" y="112"/>
      <point x="21" y="0" type="curve"/>
      <point x="62" y="0"/>
      <point x="87" y="0"/>
      <point x="128" y="0" type="curve"/>
      <point x="128" y="112"/>
      <point x="128" y="0"/>
    </contour>
    <contour>
      <point x="562" y="112" type="curve"/>
      <point x="369" y="112"/>
      <point x="564" y="112"/>
      <point x="372" y="112" type="curve"/>
      <point x="372" y="0"/>
      <point x="372" y="112"/>
      <point x="372" y="0" type="curve"/>
      <point x="436" y="0"/>
      <point x="498" y="0"/>
      <point x="562" y="0" type="curve"/>
      <point x="562" y="112"/>
      <point x="562" y="0"/>
    </contour>
    <contour>
      <point x="553" y="0" type="curve"/>
      <point x="594" y="0"/>
      <point x="621" y="0"/>
      <point x="661" y="0" type="curve"/>
      <point x="661" y="112"/>
      <point x="661" y="0"/>
      <point x="661" y="112" type="curve"/>
      <point x="541" y="112"/>
      <point x="673" y="112"/>
      <point x="553" y="112" type="curve"/>
      <point x="553" y="0"/>
      <point x="553" y="112"/>
    </contour>
    <contour>
      <point x="120" y="0" type="curve"/>
      <point x="184" y="0"/>
      <point x="115" y="0"/>
      <point x="309" y="0" type="curve"/>
      <point x="309" y="112"/>
      <point x="309" y="0"/>
      <point x="309" y="112" type="curve"/>
      <point x="115" y="112"/>
      <point x="313" y="112"/>
      <point x="120" y="112" type="curve"/>
      <point x="120" y="0"/>
      <point x="120" y="112"/>
    </contour>
    <contour>
      <point x="526" y="421" type="curve"/>
      <point x="654" y="421"/>
      <point x="517" y="421"/>
      <point x="644" y="421" type="curve"/>
      <point x="644" y="533"/>
      <point x="644" y="421"/>
      <point x="644" y="533" type="curve"/>
      <point x="602" y="533"/>
      <point x="568" y="533"/>
      <point x="526" y="533" type="curve"/>
      <point x="526" y="421"/>
      <point x="526" y="533"/>
    </contour>
    <contour>
      <point x="170" y="533" type="curve"/>
      <point x="126" y="533"/>
      <point x="95" y="533"/>
      <point x="51" y="533" type="curve"/>
      <point x="51" y="421"/>
      <point x="51" y="533"/>
      <point x="51" y="421" type="curve"/>
      <point x="185" y="421"/>
      <point x="37" y="421"/>
      <point x="170" y="421" type="curve"/>
      <point x="170" y="533"/>
      <point x="170" y="421"/>
    </contour>
    <contour>
      <point x="141" y="421" type="curve"/>
      <point x="323" y="421"/>
      <point x="128" y="421"/>
      <point x="310" y="421" type="curve"/>
      <point x="310" y="533"/>
      <point x="310" y="421"/>
      <point x="310" y="533" type="curve"/>
      <point x="250" y="533"/>
      <point x="201" y="533"/>
      <point x="141" y="533" type="curve"/>
      <point x="141" y="421"/>
      <point x="141" y="533"/>
    </contour>
    <contour>
      <point x="540" y="533" type="curve"/>
      <point x="483" y="533"/>
      <point x="438" y="533"/>
      <point x="381" y="533" type="curve"/>
      <point x="381" y="421"/>
      <point x="381" y="533"/>
      <point x="381" y="421" type="curve"/>
      <point x="553" y="421"/>
      <point x="368" y="421"/>
      <point x="540" y="421" type="curve"/>
      <point x="540" y="533"/>
      <point x="540" y="421"/>
    </contour>
    <contour>
      <point x="622" y="47" type="curve"/>
      <point x="619" y="51"/>
      <point x="180" y="529"/>
      <point x="177" y="533" type="curve"/>
      <point x="48" y="533"/>
      <point x="196" y="482"/>
      <point x="69" y="482" type="curve"/>
      <point x="71" y="478"/>
      <point x="499" y="4"/>
      <point x="502" y="0" type="curve"/>
      <point x="641" y="0"/>
      <point x="482" y="47"/>
    </contour>
    <contour>
      <point x="517" y="533" type="curve"/>
      <point x="514" y="529"/>
      <point x="59" y="55"/>
      <point x="56" y="51" type="curve"/>
      <point x="196" y="51"/>
      <point x="38" y="0"/>
      <point x="177" y="0" type="curve"/>
      <point x="180" y="4"/>
      <point x="617" y="477"/>
      <point x="620" y="480" type="curve"/>
      <point x="490" y="480"/>
      <point x="646" y="533"/>
    </contour>
  </outline>
</glyph>
<glyph name="braceleft" format="1">
  <advance width="330"/>
  <unicode hex="007B"/>
  <outline>
    <contour>
      <point x="279" y="4" type="curve"/>
      <point x="240" y="4"/>
      <point x="226" y="29"/>
      <point x="226" y="67" type="curve"/>
      <point x="226" y="117"/>
      <point x="226" y="169"/>
      <point x="226" y="220" type="curve"/>
      <point x="226" y="331"/>
      <point x="151" y="400"/>
      <point x="38" y="400" type="curve"/>
      <point x="38" y="282"/>
      <point x="38" y="400"/>
      <point x="38" y="282" type="curve"/>
      <point x="72" y="282"/>
      <point x="89" y="263"/>
      <point x="89" y="230" type="curve"/>
      <point x="89" y="177"/>
      <point x="89" y="125"/>
      <point x="89" y="73" type="curve"/>
      <point x="89" y="-41"/>
      <point x="164" y="-107"/>
      <point x="279" y="-107" type="curve"/>
      <point x="279" y="4"/>
      <point x="279" y="-107"/>
    </contour>
    <contour>
      <point x="279" y="789" type="curve"/>
      <point x="164" y="789"/>
      <point x="89" y="725"/>
      <point x="89" y="613" type="curve"/>
      <point x="89" y="559"/>
      <point x="89" y="504"/>
      <point x="89" y="448" type="curve"/>
      <point x="89" y="417"/>
      <point x="71" y="400"/>
      <point x="38" y="400" type="curve"/>
      <point x="38" y="282"/>
      <point x="38" y="400"/>
      <point x="38" y="282" type="curve"/>
      <point x="152" y="282"/>
      <point x="226" y="351"/>
      <point x="226" y="465" type="curve"/>
      <point x="226" y="514"/>
      <point x="226" y="564"/>
      <point x="226" y="613" type="curve"/>
      <point x="226" y="652"/>
      <point x="240" y="677"/>
      <point x="279" y="677" type="curve"/>
      <point x="279" y="789"/>
      <point x="279" y="677"/>
    </contour>
  </outline>
</glyph>
<glyph name="braceright" format="1">
  <advance width="331"/>
  <unicode hex="007D"/>
  <outline>
    <contour>
      <point x="52" y="-107" type="curve"/>
      <point x="167" y="-107"/>
      <point x="241" y="-41"/>
      <point x="241" y="73" type="curve"/>
      <point x="241" y="125"/>
      <point x="241" y="177"/>
      <point x="241" y="230" type="curve"/>
      <point x="241" y="263"/>
      <point x="258" y="282"/>
      <point x="293" y="282" type="curve"/>
      <point x="293" y="400"/>
      <point x="293" y="282"/>
      <point x="293" y="400" type="curve"/>
      <point x="179" y="400"/>
      <point x="105" y="331"/>
      <point x="105" y="220" type="curve"/>
      <point x="105" y="169"/>
      <point x="105" y="117"/>
      <point x="105" y="67" type="curve"/>
      <point x="105" y="29"/>
      <point x="90" y="4"/>
      <point x="52" y="4" type="curve"/>
      <point x="52" y="-107"/>
      <point x="52" y="4"/>
    </contour>
    <contour>
      <point x="52" y="677" type="curve"/>
      <point x="91" y="677"/>
      <point x="105" y="652"/>
      <point x="105" y="613" type="curve"/>
      <point x="105" y="564"/>
      <point x="105" y="514"/>
      <point x="105" y="465" type="curve"/>
      <point x="105" y="351"/>
      <point x="178" y="282"/>
      <point x="293" y="282" type="curve"/>
      <point x="293" y="400"/>
      <point x="293" y="282"/>
      <point x="293" y="400" type="curve"/>
      <point x="259" y="400"/>
      <point x="241" y="417"/>
      <point x="241" y="448" type="curve"/>
      <point x="241" y="504"/>
      <point x="241" y="559"/>
      <point x="241" y="613" type="curve"/>
      <point x="241" y="725"/>
      <point x="167" y="789"/>
      <point x="52" y="789" type="curve"/>
      <point x="52" y="677"/>
      <point x="52" y="789"/>
    </contour>
  </outline>
</glyph>
<glyph name="asciitilde" format="1">
  <advance width="738"/>
  <unicode hex="007E"/>
  <outline>
    <contour>
      <point x="562" y="380" type="curve"/>
      <point x="546" y="339"/>
      <point x="530" y="307"/>
      <point x="496" y="307" type="curve"/>
      <point x="460" y="307"/>
      <point x="440" y="314"/>
      <point x="410" y="333" type="curve"/>
      <point x="355" y="374"/>
      <point x="318" y="394"/>
      <point x="250" y="394" type="curve"/>
      <point x="147" y="394"/>
      <point x="93" y="344"/>
      <point x="62" y="247" type="curve"/>
      <point x="104" y="228"/>
      <point x="129" y="218"/>
      <point x="173" y="200" type="curve"/>
      <point x="187" y="246"/>
      <point x="205" y="278"/>
      <point x="244" y="278" type="curve"/>
      <point x="276" y="278"/>
      <point x="293" y="271"/>
      <point x="319" y="254" type="curve"/>
      <point x="378" y="212"/>
      <point x="417" y="193"/>
      <point x="489" y="192" type="curve"/>
      <point x="589" y="192"/>
      <point x="639" y="241"/>
      <point x="677" y="334" type="curve"/>
      <point x="632" y="353"/>
      <point x="607" y="363"/>
    </contour>
  </outline>
</glyph>
<glyph name="exclamdown" format="1">
  <advance width="289"/>
  <unicode hex="00A1"/>
  <outline>
    <contour>
      <point x="81" y="302" type="line"/>
      <point x="65" y="-191" type="line"/>
      <point x="224" y="-191" type="line"/>
      <point x="210" y="302" type="line"/>
    </contour>
    <contour>
      <point x="63" y="468" type="curve"/>
      <point x="62" y="419"/>
      <point x="98" y="395"/>
      <point x="146" y="395" type="curve"/>
      <point x="195" y="395"/>
      <point x="229" y="421"/>
      <point x="229" y="468" type="curve"/>
      <point x="63" y="468"/>
      <point x="229" y="468"/>
      <point x="63" y="468" type="curve"/>
      <point x="63" y="519"/>
      <point x="98" y="541"/>
      <point x="147" y="540" type="curve"/>
      <point x="196" y="540"/>
      <point x="229" y="516"/>
      <point x="229" y="468" type="curve"/>
      <point x="63" y="468"/>
      <point x="229" y="468"/>
    </contour>
  </outline>
</glyph>
<glyph name="currency" format="1">
  <advance width="718"/>
  <unicode hex="00A4"/>
  <outline>
    <contour>
      <point x="278" y="317" type="curve"/>
      <point x="278" y="366"/>
      <point x="307" y="399"/>
      <point x="356" y="399" type="curve"/>
      <point x="410" y="399"/>
      <point x="440" y="369"/>
      <point x="440" y="316" type="curve"/>
      <point x="440" y="266"/>
      <point x="414" y="230"/>
      <point x="365" y="230" type="curve"/>
      <point x="308" y="230"/>
      <point x="278" y="262"/>
      <point x="278" y="317" type="curve"/>
      <point x="129" y="317"/>
      <point x="282" y="317"/>
      <point x="132" y="317" type="curve"/>
      <point x="132" y="186"/>
      <point x="226" y="117"/>
      <point x="361" y="117" type="curve"/>
      <point x="496" y="117"/>
      <point x="588" y="190"/>
      <point x="588" y="320" type="curve"/>
      <point x="588" y="443"/>
      <point x="499" y="511"/>
      <point x="370" y="511" type="curve"/>
      <point x="232" y="511"/>
      <point x="132" y="446"/>
      <point x="132" y="317" type="curve"/>
      <point x="282" y="317"/>
      <point x="129" y="317"/>
    </contour>
    <contour>
      <point x="495" y="313" type="line"/>
      <point x="662" y="467" type="line"/>
      <point x="549" y="580" type="line"/>
      <point x="396" y="412" type="line"/>
    </contour>
    <contour>
      <point x="398" y="223" type="line"/>
      <point x="552" y="56" type="line"/>
      <point x="665" y="168" type="line"/>
      <point x="498" y="322" type="line"/>
    </contour>
    <contour>
      <point x="222" y="324" type="line"/>
      <point x="54" y="170" type="line"/>
      <point x="167" y="57" type="line"/>
      <point x="321" y="224" type="line"/>
    </contour>
    <contour>
      <point x="325" y="413" type="line"/>
      <point x="171" y="581" type="line"/>
      <point x="58" y="468" type="line"/>
      <point x="226" y="315" type="line"/>
    </contour>
  </outline>
</glyph>
<glyph name="yen" format="1">
  <advance width="744"/>
  <unicode hex="00A5"/>
  <outline>
    <contour>
      <point x="600" y="437" type="curve"/>
      <point x="527" y="437"/>
      <point x="454" y="437"/>
      <point x="381" y="437" type="curve"/>
      <point x="381" y="313"/>
      <point x="381" y="437"/>
      <point x="381" y="313" type="curve"/>
      <point x="454" y="313"/>
      <point x="527" y="313"/>
      <point x="600" y="313" type="curve"/>
      <point x="600" y="437"/>
      <point x="600" y="313"/>
    </contour>
    <contour>
      <point x="350" y="437" type="curve"/>
      <point x="279" y="437"/>
      <point x="207" y="437"/>
      <point x="135" y="437" type="curve"/>
      <point x="135" y="313"/>
      <point x="135" y="437"/>
      <point x="135" y="313" type="curve"/>
      <point x="207" y="313"/>
      <point x="279" y="313"/>
      <point x="350" y="313" type="curve"/>
      <point x="350" y="437"/>
      <point x="350" y="313"/>
    </contour>
    <contour>
      <point x="600" y="279" type="curve"/>
      <point x="445" y="279"/>
      <point x="290" y="279"/>
      <point x="135" y="279" type="curve"/>
      <point x="135" y="156"/>
      <point x="135" y="279"/>
      <point x="135" y="156" type="curve"/>
      <point x="290" y="156"/>
      <point x="445" y="156"/>
      <point x="600" y="156" type="curve"/>
      <point x="600" y="279"/>
      <point x="600" y="156"/>
    </contour>
    <contour>
      <point x="364" y="112" type="curve"/>
      <point x="213" y="112"/>
      <point x="364" y="112"/>
      <point x="213" y="112" type="curve"/>
      <point x="213" y="0"/>
      <point x="213" y="112"/>
      <point x="213" y="0" type="curve"/>
      <point x="263" y="0"/>
      <point x="313" y="0"/>
      <point x="364" y="0" type="curve"/>
      <point x="364" y="112"/>
      <point x="364" y="0"/>
    </contour>
    <contour>
      <point x="364" y="0" type="curve"/>
      <point x="415" y="0"/>
      <point x="465" y="0"/>
      <point x="515" y="0" type="curve"/>
      <point x="515" y="112"/>
      <point x="515" y="0"/>
      <point x="515" y="112" type="curve"/>
      <point x="364" y="112"/>
      <point x="515" y="112"/>
      <point x="364" y="112" type="curve"/>
      <point x="364" y="0"/>
      <point x="364" y="112"/>
    </contour>
    <contour>
      <point x="568" y="722" type="curve"/>
      <point x="519" y="722"/>
      <point x="470" y="722"/>
      <point x="421" y="722" type="curve"/>
      <point x="421" y="610"/>
      <point x="421" y="722"/>
      <point x="421" y="610" type="curve"/>
      <point x="568" y="610"/>
      <point x="421" y="610"/>
      <point x="568" y="610" type="curve"/>
      <point x="568" y="722"/>
      <point x="568" y="610"/>
    </contour>
    <contour>
      <point x="164" y="722" type="curve"/>
      <point x="122" y="722"/>
      <point x="80" y="722"/>
      <point x="39" y="722" type="curve"/>
      <point x="39" y="610"/>
      <point x="39" y="722"/>
      <point x="39" y="610" type="curve"/>
      <point x="164" y="610"/>
      <point x="39" y="610"/>
      <point x="164" y="610" type="curve"/>
      <point x="164" y="722"/>
      <point x="164" y="610"/>
    </contour>
    <contour>
      <point x="172" y="610" type="curve"/>
      <point x="320" y="610"/>
      <point x="172" y="610"/>
      <point x="320" y="610" type="curve"/>
      <point x="320" y="722"/>
      <point x="320" y="610"/>
      <point x="320" y="722" type="curve"/>
      <point x="271" y="722"/>
      <point x="222" y="722"/>
      <point x="172" y="722" type="curve"/>
      <point x="172" y="610"/>
      <point x="172" y="722"/>
    </contour>
    <contour>
      <point x="577" y="610" type="curve"/>
      <point x="705" y="610"/>
      <point x="577" y="610"/>
      <point x="705" y="610" type="curve"/>
      <point x="705" y="722"/>
      <point x="705" y="610"/>
      <point x="705" y="722" type="curve"/>
      <point x="662" y="722"/>
      <point x="620" y="722"/>
      <point x="577" y="722" type="curve"/>
      <point x="577" y="610"/>
      <point x="577" y="722"/>
    </contour>
    <contour>
      <point x="61" y="700" type="curve"/>
      <point x="137" y="579"/>
      <point x="210" y="459"/>
      <point x="286" y="337" type="curve"/>
      <point x="437" y="337"/>
      <point x="276" y="337"/>
      <point x="427" y="337" type="curve"/>
      <point x="350" y="467"/>
      <point x="274" y="593"/>
      <point x="195" y="722" type="curve"/>
      <point x="61" y="722"/>
      <point x="195" y="700"/>
    </contour>
    <contour>
      <point x="547" y="722" type="curve"/>
      <point x="463" y="592"/>
      <point x="381" y="467"/>
      <point x="296" y="337" type="curve"/>
      <point x="448" y="337"/>
      <point x="292" y="337"/>
      <point x="443" y="337" type="curve"/>
      <point x="523" y="460"/>
      <point x="601" y="580"/>
      <point x="681" y="701" type="curve"/>
      <point x="547" y="701"/>
      <point x="681" y="722"/>
    </contour>
    <contour>
      <point x="446" y="0" type="curve"/>
      <point x="446" y="115"/>
      <point x="446" y="227"/>
      <point x="446" y="342" type="curve"/>
      <point x="283" y="342"/>
      <point x="446" y="342"/>
      <point x="283" y="342" type="curve"/>
      <point x="283" y="227"/>
      <point x="283" y="115"/>
      <point x="283" y="0" type="curve"/>
      <point x="446" y="0"/>
      <point x="283" y="0"/>
    </contour>
  </outline>
</glyph>
<glyph name="section" format="1">
  <advance width="596"/>
  <unicode hex="00A7"/>
  <outline>
    <contour>
      <point x="479" y="701" type="curve"/>
      <point x="417" y="732"/>
      <point x="371" y="748"/>
      <point x="303" y="748" type="curve"/>
      <point x="180" y="748"/>
      <point x="89" y="700"/>
      <point x="89" y="593" type="curve"/>
      <point x="89" y="499"/>
      <point x="155" y="453"/>
      <point x="249" y="424" type="curve"/>
      <point x="315" y="405"/>
      <point x="394" y="404"/>
      <point x="394" y="356" type="curve"/>
      <point x="394" y="307"/>
      <point x="348" y="292"/>
      <point x="291" y="283" type="curve"/>
      <point x="379" y="192"/>
      <point x="291" y="283"/>
      <point x="379" y="192" type="curve"/>
      <point x="478" y="213"/>
      <point x="544" y="264"/>
      <point x="544" y="361" type="curve"/>
      <point x="543" y="474"/>
      <point x="440" y="500"/>
      <point x="323" y="531" type="curve"/>
      <point x="280" y="544"/>
      <point x="235" y="553"/>
      <point x="235" y="593" type="curve"/>
      <point x="235" y="622"/>
      <point x="260" y="636"/>
      <point x="296" y="636" type="curve"/>
      <point x="342" y="636"/>
      <point x="370" y="628"/>
      <point x="417" y="607" type="curve"/>
      <point x="479" y="701"/>
      <point x="417" y="607"/>
    </contour>
    <contour>
      <point x="216" y="529" type="curve"/>
      <point x="122" y="503"/>
      <point x="53" y="460"/>
      <point x="53" y="366" type="curve"/>
      <point x="53" y="260"/>
      <point x="140" y="224"/>
      <point x="250" y="194" type="curve"/>
      <point x="303" y="177"/>
      <point x="366" y="172"/>
      <point x="366" y="130" type="curve"/>
      <point x="366" y="99"/>
      <point x="337" y="86"/>
      <point x="300" y="86" type="curve"/>
      <point x="250" y="86"/>
      <point x="218" y="98"/>
      <point x="165" y="123" type="curve"/>
      <point x="92" y="38"/>
      <point x="165" y="123"/>
      <point x="92" y="38" type="curve"/>
      <point x="160" y="-9"/>
      <point x="215" y="-26"/>
      <point x="295" y="-26" type="curve"/>
      <point x="418" y="-26"/>
      <point x="514" y="20"/>
      <point x="514" y="133" type="curve"/>
      <point x="513" y="229"/>
      <point x="442" y="274"/>
      <point x="345" y="300" type="curve"/>
      <point x="279" y="319"/>
      <point x="203" y="320"/>
      <point x="203" y="373" type="curve"/>
      <point x="203" y="416"/>
      <point x="242" y="431"/>
      <point x="290" y="444" type="curve"/>
      <point x="216" y="529"/>
      <point x="290" y="444"/>
    </contour>
    <contour>
      <point x="207" y="38" type="curve"/>
      <point x="207" y="158"/>
      <point x="207" y="41"/>
      <point x="207" y="161" type="curve"/>
      <point x="92" y="161"/>
      <point x="207" y="161"/>
      <point x="92" y="161" type="curve"/>
      <point x="92" y="41"/>
      <point x="92" y="158"/>
      <point x="92" y="38" type="curve"/>
      <point x="207" y="38"/>
      <point x="92" y="38"/>
    </contour>
    <contour>
      <point x="479" y="578" type="curve"/>
      <point x="479" y="698"/>
      <point x="479" y="581"/>
      <point x="479" y="701" type="curve"/>
      <point x="363" y="701"/>
      <point x="479" y="701"/>
      <point x="363" y="701" type="curve"/>
      <point x="363" y="581"/>
      <point x="363" y="698"/>
      <point x="363" y="578" type="curve"/>
      <point x="479" y="578"/>
      <point x="363" y="578"/>
    </contour>
  </outline>
</glyph>
<glyph name="dieresis" format="1">
  <advance width="426"/>
  <unicode hex="00A8"/>
  <outline>
    <contour>
      <point x="218" y="549" type="move" name="_top"/>
    </contour>
    <contour>
      <point x="193" y="617" type="curve"/>
      <point x="193" y="666"/>
      <point x="158" y="690"/>
      <point x="108" y="690" type="curve"/>
      <point x="59" y="690"/>
      <point x="26" y="664"/>
      <point x="26" y="617" type="curve"/>
      <point x="193" y="617"/>
      <point x="26" y="617"/>
      <point x="193" y="617" type="curve"/>
      <point x="193" y="567"/>
      <point x="158" y="545"/>
      <point x="107" y="545" type="curve"/>
      <point x="58" y="545"/>
      <point x="26" y="569"/>
      <point x="26" y="617" type="curve"/>
      <point x="193" y="617"/>
      <point x="26" y="617"/>
    </contour>
    <contour>
      <point x="413" y="617" type="curve"/>
      <point x="413" y="666"/>
      <point x="377" y="690"/>
      <point x="328" y="690" type="curve"/>
      <point x="279" y="690"/>
      <point x="246" y="664"/>
      <point x="246" y="617" type="curve"/>
      <point x="413" y="617"/>
      <point x="246" y="617"/>
      <point x="413" y="617" type="curve"/>
      <point x="413" y="567"/>
      <point x="378" y="545"/>
      <point x="327" y="545" type="curve"/>
      <point x="278" y="545"/>
      <point x="246" y="569"/>
      <point x="246" y="617" type="curve"/>
      <point x="413" y="617"/>
      <point x="246" y="617"/>
    </contour>
  </outline>
</glyph>
<glyph name="copyright" format="1">
  <advance width="862"/>
  <unicode hex="00A9"/>
  <outline>
    <contour>
      <point x="175" y="325" type="curve"/>
      <point x="175" y="470"/>
      <point x="286" y="554"/>
      <point x="435" y="554" type="curve"/>
      <point x="582" y="554"/>
      <point x="689" y="467"/>
      <point x="689" y="322" type="curve"/>
      <point x="689" y="182"/>
      <point x="587" y="95"/>
      <point x="444" y="95" type="curve"/>
      <point x="293" y="95"/>
      <point x="175" y="177"/>
      <point x="175" y="325" type="curve"/>
      <point x="55" y="325"/>
      <point x="177" y="325"/>
      <point x="56" y="325" type="curve"/>
      <point x="56" y="120"/>
      <point x="223" y="7"/>
      <point x="439" y="7" type="curve"/>
      <point x="649" y="7"/>
      <point x="806" y="124"/>
      <point x="806" y="327" type="curve"/>
      <point x="806" y="529"/>
      <point x="646" y="645"/>
      <point x="435" y="645" type="curve"/>
      <point x="222" y="645"/>
      <point x="56" y="530"/>
      <point x="56" y="325" type="curve"/>
      <point x="177" y="325"/>
      <point x="55" y="325"/>
    </contour>
    <contour>
      <point x="489" y="415" type="curve"/>
      <point x="489" y="403"/>
      <point x="489" y="388"/>
      <point x="489" y="373" type="curve"/>
      <point x="598" y="373"/>
      <point x="491" y="373"/>
      <point x="599" y="373" type="curve"/>
      <point x="599" y="404"/>
      <point x="599" y="440"/>
      <point x="599" y="467" type="curve"/>
      <point x="491" y="419"/>
      <point x="598" y="463"/>
    </contour>
    <contour>
      <point x="599" y="467" type="curve"/>
      <point x="555" y="500"/>
      <point x="503" y="514"/>
      <point x="441" y="514" type="curve"/>
      <point x="312" y="514"/>
      <point x="225" y="447"/>
      <point x="225" y="323" type="curve"/>
      <point x="225" y="204"/>
      <point x="303" y="138"/>
      <point x="424" y="138" type="curve"/>
      <point x="494" y="138"/>
      <point x="543" y="147"/>
      <point x="600" y="195" type="curve"/>
      <point x="536" y="258"/>
      <point x="600" y="195"/>
      <point x="536" y="258" type="curve"/>
      <point x="493" y="237"/>
      <point x="468" y="228"/>
      <point x="429" y="228" type="curve"/>
      <point x="371" y="228"/>
      <point x="341" y="267"/>
      <point x="341" y="328" type="curve"/>
      <point x="341" y="388"/>
      <point x="375" y="424"/>
      <point x="436" y="424" type="curve"/>
      <point x="459" y="424"/>
      <point x="476" y="420"/>
      <point x="489" y="415" type="curve"/>
      <point x="598" y="463"/>
      <point x="491" y="419"/>
    </contour>
  </outline>
</glyph>
<glyph name="guillemotleft" format="1">
  <advance width="589"/>
  <unicode hex="00AB"/>
  <outline>
    <contour>
      <point x="267" y="483" type="curve"/>
      <point x="209" y="450"/>
      <point x="106" y="387"/>
      <point x="49" y="354" type="curve"/>
      <point x="49" y="230"/>
      <point x="49" y="344"/>
      <point x="49" y="221" type="curve"/>
      <point x="106" y="255"/>
      <point x="209" y="322"/>
      <point x="267" y="356" type="curve"/>
      <point x="267" y="479"/>
      <point x="267" y="361"/>
    </contour>
    <contour>
      <point x="267" y="221" type="curve"/>
      <point x="209" y="254"/>
      <point x="106" y="319"/>
      <point x="49" y="354" type="curve"/>
      <point x="49" y="230"/>
      <point x="49" y="344"/>
      <point x="49" y="221" type="curve"/>
      <point x="106" y="187"/>
      <point x="209" y="127"/>
      <point x="267" y="93" type="curve"/>
      <point x="267" y="216"/>
      <point x="267" y="97"/>
    </contour>
    <contour>
      <point x="516" y="483" type="curve"/>
      <point x="458" y="450"/>
      <point x="355" y="387"/>
      <point x="296" y="354" type="curve"/>
      <point x="296" y="230"/>
      <point x="296" y="344"/>
      <point x="296" y="221" type="curve"/>
      <point x="355" y="255"/>
      <point x="458" y="322"/>
      <point x="516" y="356" type="curve"/>
      <point x="516" y="479"/>
      <point x="516" y="361"/>
    </contour>
    <contour>
      <point x="516" y="221" type="curve"/>
      <point x="458" y="254"/>
      <point x="355" y="319"/>
      <point x="296" y="354" type="curve"/>
      <point x="296" y="230"/>
      <point x="296" y="344"/>
      <point x="296" y="221" type="curve"/>
      <point x="355" y="187"/>
      <point x="458" y="127"/>
      <point x="516" y="93" type="curve"/>
      <point x="516" y="216"/>
      <point x="516" y="97"/>
    </contour>
  </outline>
</glyph>
<glyph name="logicalnot" format="1">
  <advance width="671"/>
  <unicode hex="00AC"/>
  <outline>
    <contour>
      <point x="77" y="253" type="curve"/>
      <point x="598" y="253" type="line"/>
      <point x="598" y="376"/>
      <point x="598" y="253"/>
      <point x="598" y="376" type="curve"/>
      <point x="77" y="376" type="line"/>
      <point x="77" y="253"/>
      <point x="77" y="376"/>
    </contour>
    <contour>
      <point x="598" y="139" type="curve"/>
      <point x="598" y="376" type="line"/>
      <point x="449" y="376"/>
      <point x="604" y="376"/>
      <point x="454" y="376" type="curve"/>
      <point x="454" y="139" type="line"/>
      <point x="604" y="139"/>
      <point x="449" y="139"/>
    </contour>
  </outline>
</glyph>
<glyph name="registered" format="1">
  <advance width="874"/>
  <unicode hex="00AE"/>
  <outline>
    <contour>
      <point x="164" y="324" type="curve"/>
      <point x="164" y="482"/>
      <point x="276" y="563"/>
      <point x="440" y="563" type="curve"/>
      <point x="604" y="563"/>
      <point x="711" y="478"/>
      <point x="711" y="321" type="curve"/>
      <point x="711" y="167"/>
      <point x="607" y="85"/>
      <point x="449" y="85" type="curve"/>
      <point x="281" y="85"/>
      <point x="164" y="163"/>
      <point x="164" y="324" type="curve"/>
      <point x="124" y="324"/>
      <point x="97" y="324"/>
      <point x="57" y="324" type="curve"/>
      <point x="57" y="109"/>
      <point x="218" y="6"/>
      <point x="444" y="6" type="curve"/>
      <point x="666" y="6"/>
      <point x="816" y="114"/>
      <point x="816" y="326" type="curve"/>
      <point x="816" y="537"/>
      <point x="663" y="644"/>
      <point x="440" y="644" type="curve"/>
      <point x="215" y="644"/>
      <point x="57" y="538"/>
      <point x="57" y="324" type="curve"/>
      <point x="97" y="324"/>
      <point x="124" y="324"/>
    </contour>
    <contour>
      <point x="518" y="140" type="curve"/>
      <point x="559" y="140"/>
      <point x="578" y="140"/>
      <point x="620" y="140" type="curve"/>
      <point x="620" y="231"/>
      <point x="620" y="140"/>
      <point x="620" y="231" type="curve"/>
      <point x="607" y="231"/>
      <point x="607" y="231"/>
      <point x="594" y="231" type="curve"/>
      <point x="525" y="193"/>
      <point x="568" y="242"/>
    </contour>
    <contour>
      <point x="421" y="510" type="curve"/>
      <point x="369" y="510"/>
      <point x="324" y="510"/>
      <point x="271" y="510" type="curve"/>
      <point x="271" y="419"/>
      <point x="271" y="510"/>
      <point x="271" y="419" type="curve"/>
      <point x="284" y="419"/>
      <point x="289" y="419"/>
      <point x="301" y="419" type="curve"/>
      <point x="421" y="510"/>
      <point x="301" y="419"/>
    </contour>
    <contour>
      <point x="421" y="231" type="curve"/>
      <point x="369" y="231"/>
      <point x="324" y="231"/>
      <point x="271" y="231" type="curve"/>
      <point x="271" y="140"/>
      <point x="271" y="231"/>
      <point x="271" y="140" type="curve"/>
      <point x="284" y="140"/>
      <point x="289" y="140"/>
      <point x="301" y="140" type="curve"/>
      <point x="421" y="231"/>
      <point x="301" y="140"/>
    </contour>
    <contour>
      <point x="301" y="140" type="curve"/>
      <point x="350" y="140"/>
      <point x="390" y="140"/>
      <point x="440" y="140" type="curve"/>
      <point x="440" y="231"/>
      <point x="440" y="140"/>
      <point x="440" y="231" type="curve"/>
      <point x="431" y="231"/>
      <point x="429" y="231"/>
      <point x="421" y="231" type="curve"/>
      <point x="301" y="140"/>
      <point x="421" y="231"/>
    </contour>
    <contour>
      <point x="401" y="318" type="curve"/>
      <point x="427" y="287"/>
      <point x="493" y="172"/>
      <point x="518" y="140" type="curve"/>
      <point x="597" y="204"/>
      <point x="542" y="155"/>
      <point x="594" y="231" type="curve"/>
      <point x="532" y="315" type="line"/>
      <point x="384" y="315"/>
      <point x="549" y="318"/>
    </contour>
    <contour>
      <point x="415" y="231" type="curve"/>
      <point x="415" y="323"/>
      <point x="415" y="416"/>
      <point x="415" y="510" type="curve"/>
      <point x="295" y="419"/>
      <point x="421" y="510"/>
      <point x="301" y="419" type="curve"/>
      <point x="301" y="327"/>
      <point x="301" y="233"/>
      <point x="301" y="140" type="curve"/>
      <point x="421" y="231"/>
      <point x="295" y="140"/>
    </contour>
    <contour>
      <point x="363" y="269" type="curve"/>
      <point x="383" y="269"/>
      <point x="402" y="269"/>
      <point x="422" y="269" type="curve"/>
      <point x="523" y="269"/>
      <point x="596" y="297"/>
      <point x="596" y="392" type="curve"/>
      <point x="596" y="472"/>
      <point x="532" y="510"/>
      <point x="446" y="510" type="curve"/>
      <point x="438" y="510"/>
      <point x="429" y="510"/>
      <point x="421" y="510" type="curve"/>
      <point x="301" y="419"/>
      <point x="421" y="510"/>
      <point x="301" y="419" type="curve"/>
      <point x="342" y="419"/>
      <point x="384" y="419"/>
      <point x="424" y="419" type="curve"/>
      <point x="456" y="419"/>
      <point x="483" y="416"/>
      <point x="483" y="387" type="curve"/>
      <point x="483" y="363"/>
      <point x="464" y="358"/>
      <point x="439" y="358" type="curve"/>
      <point x="413" y="358"/>
      <point x="388" y="358"/>
      <point x="363" y="358" type="curve"/>
      <point x="363" y="269"/>
      <point x="363" y="358"/>
    </contour>
  </outline>
</glyph>
<glyph name="macron" format="1">
  <advance width="315"/>
  <unicode hex="00AF"/>
  <outline>
    <contour>
      <point x="155" y="558" type="move" name="_top"/>
    </contour>
    <contour>
      <point x="271" y="670" type="curve"/>
      <point x="193" y="670"/>
      <point x="115" y="670"/>
      <point x="36" y="670" type="curve"/>
      <point x="36" y="558"/>
      <point x="36" y="670"/>
      <point x="36" y="558" type="curve"/>
      <point x="115" y="558"/>
      <point x="193" y="558"/>
      <point x="271" y="558" type="curve"/>
      <point x="271" y="670"/>
      <point x="271" y="558"/>
    </contour>
  </outline>
</glyph>
<glyph name="degree" format="1">
  <advance width="542"/>
  <unicode hex="00B0"/>
  <outline>
    <contour>
      <point x="486" y="548" type="curve"/>
      <point x="486" y="672"/>
      <point x="399" y="742"/>
      <point x="271" y="742" type="curve"/>
      <point x="144" y="742"/>
      <point x="56" y="673"/>
      <point x="56" y="549" type="curve"/>
      <point x="151" y="549"/>
      <point x="90" y="549"/>
      <point x="184" y="549" type="curve"/>
      <point x="184" y="602"/>
      <point x="215" y="636"/>
      <point x="269" y="636" type="curve"/>
      <point x="322" y="636"/>
      <point x="356" y="603"/>
      <point x="356" y="548" type="curve"/>
      <point x="356" y="492"/>
      <point x="325" y="457"/>
      <point x="271" y="457" type="curve"/>
      <point x="216" y="457"/>
      <point x="184" y="494"/>
      <point x="184" y="549" type="curve"/>
      <point x="90" y="549"/>
      <point x="151" y="549"/>
      <point x="56" y="549" type="curve"/>
      <point x="56" y="424"/>
      <point x="142" y="351"/>
      <point x="269" y="351" type="curve"/>
      <point x="398" y="351"/>
      <point x="486" y="423"/>
    </contour>
  </outline>
</glyph>
<glyph name="plusminus" format="1">
  <advance width="709"/>
  <unicode hex="00B1"/>
  <outline>
    <contour>
      <point x="61" y="36" type="line"/>
      <point x="648" y="36" type="line"/>
      <point x="648" y="159" type="line"/>
      <point x="61" y="159" type="line"/>
    </contour>
    <contour>
      <point x="61" y="253" type="curve"/>
      <point x="648" y="253" type="line"/>
      <point x="648" y="376"/>
      <point x="648" y="253"/>
      <point x="648" y="376" type="curve"/>
      <point x="61" y="376" type="line"/>
      <point x="61" y="253"/>
      <point x="61" y="376"/>
    </contour>
    <contour>
      <point x="427" y="37" type="curve"/>
      <point x="427" y="583" type="line"/>
      <point x="277" y="583"/>
      <point x="437" y="583"/>
      <point x="287" y="583" type="curve"/>
      <point x="287" y="37" type="line"/>
      <point x="437" y="37"/>
      <point x="277" y="37"/>
    </contour>
  </outline>
</glyph>
<glyph name="twosuperior" format="1">
  <advance width="521"/>
  <unicode hex="00B2"/>
  <outline>
    <contour>
      <point x="256" y="763" type="move" name="_top"/>
    </contour>
    <contour>
      <point x="268" y="319" type="move" name="_bottom"/>
    </contour>
    <contour>
      <point x="470" y="318" type="curve"/>
      <point x="470" y="367"/>
      <point x="470" y="416"/>
      <point x="470" y="464" type="curve"/>
      <point x="362" y="464"/>
      <point x="480" y="464"/>
      <point x="371" y="464" type="curve"/>
      <point x="371" y="450"/>
      <point x="371" y="435"/>
      <point x="371" y="421" type="curve"/>
      <point x="485" y="326"/>
      <point x="356" y="413"/>
    </contour>
    <contour>
      <point x="64" y="318" type="curve"/>
      <point x="223" y="318"/>
      <point x="355" y="318"/>
      <point x="470" y="318" type="curve"/>
      <point x="356" y="413"/>
      <point x="485" y="326"/>
      <point x="371" y="421" type="curve"/>
      <point x="272" y="421"/>
      <point x="163" y="421"/>
      <point x="64" y="421" type="curve"/>
      <point x="64" y="318"/>
      <point x="64" y="421"/>
    </contour>
    <contour>
      <point x="168" y="611" type="curve"/>
      <point x="192" y="642"/>
      <point x="215" y="660"/>
      <point x="250" y="660" type="curve"/>
      <point x="286" y="660"/>
      <point x="311" y="645"/>
      <point x="311" y="615" type="curve"/>
      <point x="311" y="582"/>
      <point x="285" y="567"/>
      <point x="259" y="545" type="curve"/>
      <point x="194" y="503"/>
      <point x="129" y="462"/>
      <point x="64" y="421" type="curve"/>
      <point x="65" y="321"/>
      <point x="67" y="421"/>
      <point x="68" y="321" type="curve"/>
      <point x="170" y="378"/>
      <point x="263" y="419"/>
      <point x="333" y="467" type="curve"/>
      <point x="395" y="514"/>
      <point x="446" y="546"/>
      <point x="446" y="620" type="curve"/>
      <point x="446" y="718"/>
      <point x="367" y="763"/>
      <point x="263" y="763" type="curve"/>
      <point x="178" y="763"/>
      <point x="114" y="737"/>
      <point x="75" y="662" type="curve"/>
      <point x="168" y="611"/>
      <point x="75" y="662"/>
    </contour>
  </outline>
</glyph>
<glyph name="threesuperior" format="1">
  <advance width="469"/>
  <unicode hex="00B3"/>
  <outline>
    <contour>
      <point x="226" y="761" type="move" name="_top"/>
    </contour>
    <contour>
      <point x="218" y="310" type="move" name="_bottom"/>
    </contour>
    <contour>
      <point x="118" y="627" type="curve"/>
      <point x="146" y="650"/>
      <point x="176" y="660"/>
      <point x="200" y="660" type="curve"/>
      <point x="236" y="660"/>
      <point x="261" y="650"/>
      <point x="261" y="622" type="curve"/>
      <point x="261" y="589"/>
      <point x="208" y="584"/>
      <point x="158" y="581" type="curve"/>
      <point x="158" y="497"/>
      <point x="158" y="581"/>
      <point x="158" y="497" type="curve"/>
      <point x="286" y="499"/>
      <point x="398" y="521"/>
      <point x="398" y="629" type="curve"/>
      <point x="398" y="725"/>
      <point x="318" y="760"/>
      <point x="214" y="760" type="curve"/>
      <point x="152" y="760"/>
      <point x="95" y="737"/>
      <point x="53" y="698" type="curve"/>
      <point x="118" y="627"/>
      <point x="53" y="698"/>
    </contour>
    <contour>
      <point x="52" y="350" type="curve"/>
      <point x="97" y="326"/>
      <point x="140" y="311"/>
      <point x="191" y="311" type="curve"/>
      <point x="318" y="308"/>
      <point x="416" y="341"/>
      <point x="414" y="453" type="curve"/>
      <point x="414" y="568"/>
      <point x="291" y="570"/>
      <point x="158" y="573" type="curve"/>
      <point x="158" y="497"/>
      <point x="158" y="573"/>
      <point x="158" y="497" type="curve"/>
      <point x="219" y="495"/>
      <point x="277" y="489"/>
      <point x="277" y="451" type="curve"/>
      <point x="277" y="418"/>
      <point x="244" y="407"/>
      <point x="204" y="408" type="curve"/>
      <point x="175" y="408"/>
      <point x="147" y="414"/>
      <point x="109" y="428" type="curve"/>
      <point x="52" y="350"/>
      <point x="109" y="428"/>
    </contour>
  </outline>
</glyph>
<glyph name="acute" format="1">
  <advance width="538"/>
  <unicode hex="00B4"/>
  <outline>
    <contour>
      <point x="141" y="589" type="move" name="_top"/>
    </contour>
    <contour>
      <point x="204" y="588" type="line"/>
      <point x="364" y="754" type="line"/>
      <point x="174" y="754" type="line"/>
      <point x="58" y="588" type="line"/>
    </contour>
  </outline>
</glyph>
<glyph name="paragraph" format="1">
  <advance width="886"/>
  <unicode hex="00B6"/>
  <outline>
    <contour>
      <point x="490" y="610" type="curve"/>
      <point x="658" y="610"/>
      <point x="490" y="610"/>
      <point x="658" y="610" type="curve"/>
      <point x="658" y="722"/>
      <point x="658" y="610"/>
      <point x="658" y="722" type="curve"/>
      <point x="602" y="722"/>
      <point x="546" y="722"/>
      <point x="490" y="722" type="curve"/>
      <point x="490" y="610"/>
      <point x="490" y="722"/>
    </contour>
    <contour>
      <point x="490" y="0" type="curve"/>
      <point x="546" y="0"/>
      <point x="602" y="0"/>
      <point x="658" y="0" type="curve"/>
      <point x="658" y="112"/>
      <point x="658" y="0"/>
      <point x="658" y="112" type="curve"/>
      <point x="490" y="112"/>
      <point x="658" y="112"/>
      <point x="490" y="112" type="curve"/>
      <point x="490" y="0"/>
      <point x="490" y="112"/>
    </contour>
    <contour>
      <point x="490" y="112" type="curve"/>
      <point x="323" y="112"/>
      <point x="490" y="112"/>
      <point x="323" y="112" type="curve"/>
      <point x="323" y="0"/>
      <point x="323" y="112"/>
      <point x="323" y="0" type="curve"/>
      <point x="490" y="0"/>
      <point x="434" y="0"/>
      <point x="490" y="0" type="curve"/>
      <point x="490" y="112"/>
      <point x="490" y="0"/>
    </contour>
    <contour>
      <point x="464" y="390" type="curve"/>
      <point x="414" y="369"/>
      <point x="376" y="357"/>
      <point x="321" y="357" type="curve"/>
      <point x="242" y="357"/>
      <point x="188" y="397"/>
      <point x="188" y="473" type="curve"/>
      <point x="188" y="568"/>
      <point x="264" y="610"/>
      <point x="365" y="610" type="curve"/>
      <point x="406" y="610"/>
      <point x="447" y="610"/>
      <point x="487" y="610" type="curve"/>
      <point x="487" y="722"/>
      <point x="487" y="610"/>
      <point x="487" y="722" type="curve"/>
      <point x="440" y="722"/>
      <point x="393" y="722"/>
      <point x="345" y="722" type="curve"/>
      <point x="171" y="722"/>
      <point x="38" y="641"/>
      <point x="38" y="478" type="curve"/>
      <point x="38" y="323"/>
      <point x="165" y="250"/>
      <point x="334" y="248" type="curve"/>
      <point x="400" y="248"/>
      <point x="454" y="268"/>
      <point x="513" y="293" type="curve"/>
      <point x="464" y="390"/>
      <point x="512" y="295"/>
    </contour>
    <contour>
      <point x="566" y="0" type="curve"/>
      <point x="566" y="241"/>
      <point x="566" y="481"/>
      <point x="566" y="722" type="curve"/>
      <point x="416" y="722"/>
      <point x="566" y="722"/>
      <point x="416" y="722" type="curve"/>
      <point x="416" y="481"/>
      <point x="416" y="241"/>
      <point x="416" y="0" type="curve"/>
      <point x="566" y="0"/>
      <point x="416" y="0"/>
    </contour>
    <contour>
      <point x="801" y="0" type="curve"/>
      <point x="801" y="241"/>
      <point x="801" y="481"/>
      <point x="801" y="722" type="curve"/>
      <point x="652" y="722"/>
      <point x="801" y="722"/>
      <point x="652" y="722" type="curve"/>
      <point x="652" y="481"/>
      <point x="652" y="241"/>
      <point x="652" y="0" type="curve"/>
      <point x="801" y="0"/>
      <point x="652" y="0"/>
    </contour>
  </outline>
</glyph>
<glyph name="periodcentered" format="1">
  <advance width="283"/>
  <unicode hex="00B7"/>
  <outline>
    <contour>
      <point x="225" y="440" type="curve"/>
      <point x="225" y="489"/>
      <point x="189" y="513"/>
      <point x="139" y="513" type="curve"/>
      <point x="91" y="513"/>
      <point x="58" y="487"/>
      <point x="58" y="440" type="curve"/>
      <point x="225" y="440"/>
      <point x="58" y="440"/>
      <point x="225" y="440" type="curve"/>
      <point x="225" y="390"/>
      <point x="190" y="368"/>
      <point x="139" y="368" type="curve"/>
      <point x="90" y="368"/>
      <point x="58" y="392"/>
      <point x="58" y="440" type="curve"/>
      <point x="225" y="440"/>
      <point x="58" y="440"/>
    </contour>
  </outline>
</glyph>
<glyph name="cedilla" format="1">
  <advance width="416"/>
  <unicode hex="00B8"/>
  <outline>
    <contour>
      <point x="266" y="94" type="move" name="_bottom"/>
    </contour>
    <contour>
      <point x="169" y="172" type="curve"/>
      <point x="155" y="151"/>
      <point x="93" y="50"/>
      <point x="79" y="29" type="curve"/>
      <point x="181" y="-60"/>
      <point x="79" y="29"/>
      <point x="181" y="-60" type="curve"/>
      <point x="198" y="-34"/>
      <point x="267" y="68"/>
      <point x="284" y="94" type="curve"/>
      <point x="169" y="172"/>
      <point x="284" y="94"/>
    </contour>
    <contour>
      <point x="181" y="-60" type="curve"/>
      <point x="186" y="-57"/>
      <point x="190" y="-54"/>
      <point x="196" y="-54" type="curve"/>
      <point x="204" y="-54"/>
      <point x="210" y="-58"/>
      <point x="210" y="-65" type="curve"/>
      <point x="210" y="-79"/>
      <point x="197" y="-82"/>
      <point x="182" y="-82" type="curve"/>
      <point x="159" y="-82"/>
      <point x="140" y="-76"/>
      <point x="112" y="-64" type="curve"/>
      <point x="64" y="-148"/>
      <point x="112" y="-64"/>
      <point x="64" y="-148" type="curve"/>
      <point x="102" y="-166"/>
      <point x="132" y="-176"/>
      <point x="175" y="-176" type="curve"/>
      <point x="263" y="-176"/>
      <point x="329" y="-144"/>
      <point x="329" y="-62" type="curve"/>
      <point x="329" y="13"/>
      <point x="272" y="53"/>
      <point x="194" y="53" type="curve"/>
      <point x="150" y="53"/>
      <point x="120" y="46"/>
      <point x="79" y="29" type="curve"/>
      <point x="181" y="-60"/>
      <point x="79" y="29"/>
    </contour>
  </outline>
</glyph>
<glyph name="onesuperior" format="1">
  <advance width="402"/>
  <unicode hex="00B9"/>
  <outline>
    <contour>
      <point x="214" y="752" type="move" name="_top"/>
    </contour>
    <contour>
      <point x="227" y="319" type="move" name="_bottom"/>
    </contour>
    <contour>
      <point x="157" y="319" type="curve"/>
      <point x="217" y="319"/>
      <point x="285" y="319"/>
      <point x="345" y="319" type="curve"/>
      <point x="345" y="422"/>
      <point x="345" y="314"/>
      <point x="345" y="417" type="curve"/>
      <point x="331" y="417"/>
      <point x="307" y="417"/>
      <point x="294" y="417" type="curve"/>
      <point x="157" y="314"/>
      <point x="294" y="422"/>
    </contour>
    <contour>
      <point x="294" y="417" type="curve"/>
      <point x="232" y="417"/>
      <point x="163" y="417"/>
      <point x="103" y="417" type="curve"/>
      <point x="103" y="314"/>
      <point x="103" y="422"/>
      <point x="103" y="319" type="curve"/>
      <point x="118" y="319"/>
      <point x="142" y="319"/>
      <point x="157" y="319" type="curve"/>
      <point x="294" y="422"/>
      <point x="157" y="314"/>
    </contour>
    <contour>
      <point x="105" y="579" type="line"/>
      <point x="294" y="753" type="line"/>
      <point x="157" y="753" type="line"/>
      <point x="40" y="654" type="line"/>
    </contour>
    <contour>
      <point x="294" y="417" type="curve"/>
      <point x="294" y="753" type="line"/>
      <point x="157" y="753" type="line"/>
      <point x="157" y="319" type="line"/>
      <point x="294" y="422"/>
      <point x="157" y="314"/>
    </contour>
  </outline>
</glyph>
<glyph name="ordmasculine" format="1">
  <advance width="480"/>
  <unicode hex="00BA"/>
  <outline>
    <contour>
      <point x="140" y="600" type="curve"/>
      <point x="140" y="661"/>
      <point x="173" y="705"/>
      <point x="235" y="705" type="curve"/>
      <point x="301" y="705"/>
      <point x="336" y="663"/>
      <point x="336" y="600" type="curve"/>
      <point x="336" y="535"/>
      <point x="302" y="497"/>
      <point x="243" y="497" type="curve"/>
      <point x="175" y="497"/>
      <point x="140" y="534"/>
      <point x="140" y="600" type="curve"/>
      <point x="83" y="600"/>
      <point x="101" y="600"/>
      <point x="44" y="600" type="curve"/>
      <point x="44" y="483"/>
      <point x="120" y="421"/>
      <point x="238" y="421" type="curve"/>
      <point x="358" y="421"/>
      <point x="436" y="482"/>
      <point x="436" y="600" type="curve"/>
      <point x="436" y="714"/>
      <point x="360" y="781"/>
      <point x="240" y="781" type="curve"/>
      <point x="119" y="781"/>
      <point x="44" y="714"/>
      <point x="44" y="600" type="curve"/>
      <point x="101" y="600"/>
      <point x="83" y="600"/>
    </contour>
  </outline>
</glyph>
<glyph name="guillemotright" format="1">
  <advance width="589"/>
  <unicode hex="00BB"/>
  <outline>
    <contour>
      <point x="322" y="483" type="curve"/>
      <point x="380" y="450"/>
      <point x="483" y="387"/>
      <point x="541" y="354" type="curve"/>
      <point x="541" y="230"/>
      <point x="541" y="344"/>
      <point x="541" y="221" type="curve"/>
      <point x="483" y="255"/>
      <point x="380" y="322"/>
      <point x="322" y="356" type="curve"/>
      <point x="322" y="479"/>
      <point x="322" y="361"/>
    </contour>
    <contour>
      <point x="322" y="221" type="curve"/>
      <point x="380" y="254"/>
      <point x="483" y="319"/>
      <point x="541" y="354" type="curve"/>
      <point x="541" y="230"/>
      <point x="541" y="344"/>
      <point x="541" y="221" type="curve"/>
      <point x="483" y="187"/>
      <point x="380" y="127"/>
      <point x="322" y="93" type="curve"/>
      <point x="322" y="216"/>
      <point x="322" y="97"/>
    </contour>
    <contour>
      <point x="74" y="483" type="curve"/>
      <point x="131" y="450"/>
      <point x="234" y="387"/>
      <point x="293" y="354" type="curve"/>
      <point x="293" y="230"/>
      <point x="293" y="344"/>
      <point x="293" y="221" type="curve"/>
      <point x="234" y="255"/>
      <point x="131" y="322"/>
      <point x="74" y="356" type="curve"/>
      <point x="74" y="479"/>
      <point x="74" y="361"/>
    </contour>
    <contour>
      <point x="74" y="221" type="curve"/>
      <point x="131" y="254"/>
      <point x="234" y="319"/>
      <point x="293" y="354" type="curve"/>
      <point x="293" y="230"/>
      <point x="293" y="344"/>
      <point x="293" y="221" type="curve"/>
      <point x="234" y="187"/>
      <point x="131" y="127"/>
      <point x="74" y="93" type="curve"/>
      <point x="74" y="216"/>
      <point x="74" y="97"/>
    </contour>
  </outline>
</glyph>
<glyph name="onequarter" format="1">
  <advance width="1041"/>
  <unicode hex="00BC"/>
  <outline>
    <contour>
      <point x="367" y="-34" type="line"/>
      <point x="811" y="706" type="line"/>
      <point x="674" y="706" type="line"/>
      <point x="230" y="-34" type="line"/>
    </contour>
    <contour>
      <point x="152" y="273" type="curve"/>
      <point x="211" y="273"/>
      <point x="279" y="273"/>
      <point x="339" y="273" type="curve"/>
      <point x="339" y="375"/>
      <point x="339" y="268"/>
      <point x="339" y="370" type="curve"/>
      <point x="326" y="370"/>
      <point x="302" y="370"/>
      <point x="288" y="370" type="curve"/>
      <point x="152" y="268"/>
      <point x="288" y="375"/>
    </contour>
    <contour>
      <point x="288" y="370" type="curve"/>
      <point x="227" y="370"/>
      <point x="158" y="370"/>
      <point x="96" y="370" type="curve"/>
      <point x="96" y="268"/>
      <point x="96" y="375"/>
      <point x="96" y="273" type="curve"/>
      <point x="112" y="273"/>
      <point x="135" y="273"/>
      <point x="152" y="273" type="curve"/>
      <point x="288" y="375"/>
      <point x="152" y="268"/>
    </contour>
    <contour>
      <point x="99" y="533" type="line"/>
      <point x="288" y="706" type="line"/>
      <point x="152" y="706" type="line"/>
      <point x="34" y="607" type="line"/>
    </contour>
    <contour>
      <point x="288" y="370" type="curve"/>
      <point x="288" y="706" type="line"/>
      <point x="152" y="706" type="line"/>
      <point x="152" y="273" type="line"/>
      <point x="288" y="375"/>
      <point x="152" y="268"/>
    </contour>
    <contour>
      <point x="997" y="190" type="line"/>
      <point x="596" y="190" type="line"/>
      <point x="596" y="92" type="line"/>
      <point x="997" y="92" type="line"/>
    </contour>
    <contour>
      <point x="632" y="102" type="line"/>
      <point x="890" y="398" type="line"/>
      <point x="787" y="414" type="line"/>
      <point x="596" y="190" type="line"/>
    </contour>
    <contour>
      <point x="924" y="-33" type="line"/>
      <point x="924" y="414" type="line"/>
      <point x="787" y="414" type="line"/>
      <point x="787" y="-33" type="line"/>
    </contour>
    <contour>
      <point x="856" y="58" type="line"/>
      <point x="734" y="58" type="line"/>
      <point x="734" y="-34" type="line"/>
      <point x="856" y="-34" type="line"/>
    </contour>
    <contour>
      <point x="856" y="-34" type="line"/>
      <point x="976" y="-34" type="line"/>
      <point x="976" y="58" type="line"/>
      <point x="856" y="58" type="line"/>
    </contour>
  </outline>
</glyph>
<glyph name="onehalf" format="1">
  <advance width="1107"/>
  <unicode hex="00BD"/>
  <outline>
    <contour>
      <point x="386" y="-34" type="line"/>
      <point x="831" y="706" type="line"/>
      <point x="694" y="706" type="line"/>
      <point x="250" y="-34" type="line"/>
    </contour>
    <contour>
      <point x="152" y="273" type="curve"/>
      <point x="211" y="273"/>
      <point x="279" y="273"/>
      <point x="339" y="273" type="curve"/>
      <point x="339" y="375"/>
      <point x="339" y="268"/>
      <point x="339" y="370" type="curve"/>
      <point x="326" y="370"/>
      <point x="302" y="370"/>
      <point x="288" y="370" type="curve"/>
      <point x="152" y="268"/>
      <point x="288" y="375"/>
    </contour>
    <contour>
      <point x="288" y="370" type="curve"/>
      <point x="227" y="370"/>
      <point x="158" y="370"/>
      <point x="96" y="370" type="curve"/>
      <point x="96" y="268"/>
      <point x="96" y="375"/>
      <point x="96" y="273" type="curve"/>
      <point x="112" y="273"/>
      <point x="135" y="273"/>
      <point x="152" y="273" type="curve"/>
      <point x="288" y="375"/>
      <point x="152" y="268"/>
    </contour>
    <contour>
      <point x="99" y="533" type="line"/>
      <point x="288" y="706" type="line"/>
      <point x="152" y="706" type="line"/>
      <point x="34" y="607" type="line"/>
    </contour>
    <contour>
      <point x="288" y="370" type="curve"/>
      <point x="288" y="706" type="line"/>
      <point x="152" y="706" type="line"/>
      <point x="152" y="273" type="line"/>
      <point x="288" y="375"/>
      <point x="152" y="268"/>
    </contour>
    <contour>
      <point x="1071" y="-35" type="curve"/>
      <point x="1071" y="13"/>
      <point x="1071" y="62"/>
      <point x="1071" y="111" type="curve"/>
      <point x="964" y="111"/>
      <point x="1081" y="111"/>
      <point x="972" y="111" type="curve"/>
      <point x="972" y="95"/>
      <point x="972" y="80"/>
      <point x="972" y="66" type="curve"/>
      <point x="1086" y="-27"/>
      <point x="957" y="58"/>
    </contour>
    <contour>
      <point x="666" y="-35" type="curve"/>
      <point x="824" y="-35"/>
      <point x="956" y="-35"/>
      <point x="1071" y="-35" type="curve"/>
      <point x="957" y="58"/>
      <point x="1086" y="-27"/>
      <point x="972" y="66" type="curve"/>
      <point x="873" y="66"/>
      <point x="764" y="66"/>
      <point x="666" y="66" type="curve"/>
      <point x="666" y="-35"/>
      <point x="666" y="66"/>
    </contour>
    <contour>
      <point x="769" y="256" type="curve"/>
      <point x="793" y="288"/>
      <point x="816" y="307"/>
      <point x="851" y="307" type="curve"/>
      <point x="887" y="307"/>
      <point x="912" y="291"/>
      <point x="912" y="262" type="curve"/>
      <point x="912" y="228"/>
      <point x="886" y="212"/>
      <point x="860" y="191" type="curve"/>
      <point x="795" y="149"/>
      <point x="730" y="108"/>
      <point x="666" y="66" type="curve"/>
      <point x="667" y="-33"/>
      <point x="668" y="66"/>
      <point x="668" y="-33" type="curve"/>
      <point x="771" y="24"/>
      <point x="864" y="66"/>
      <point x="934" y="112" type="curve"/>
      <point x="996" y="159"/>
      <point x="1047" y="193"/>
      <point x="1047" y="266" type="curve"/>
      <point x="1047" y="363"/>
      <point x="968" y="408"/>
      <point x="864" y="408" type="curve"/>
      <point x="779" y="408"/>
      <point x="715" y="382"/>
      <point x="676" y="308" type="curve"/>
      <point x="769" y="256"/>
      <point x="676" y="308"/>
    </contour>
  </outline>
</glyph>
